<svg xmlns="http://www.w3.org/2000/svg" xmlns:xlink="http://www.w3.org/1999/xlink" width="500" zoomAndPan="magnify" viewBox="0 0 375 374.999991" height="500" preserveAspectRatio="xMidYMid meet" version="1.0"><defs><clipPath id="6eeaf7aa24"><path d="M 105 19.226562 L 259 19.226562 L 259 168 L 105 168 Z M 105 19.226562 " clip-rule="nonzero"/></clipPath><clipPath id="d248a2ec2a"><path d="M 84 157 L 317 157 L 317 355.976562 L 84 355.976562 Z M 84 157 " clip-rule="nonzero"/></clipPath></defs><g clip-path="url(#6eeaf7aa24)"><path fill="#9bbce1" d="M 182.316406 19.496094 C 165.226562 19.5 143.957031 23.082031 129.960938 34.140625 C 103.230469 56.308594 98.296875 98.164062 114.085938 128.101562 C 118.503906 136.667969 126.550781 143.015625 130.15625 151.824219 C 132.214844 156.859375 132.1875 163.132812 128.652344 167.28125 C 168.441406 166.359375 205.9375 166.070312 245.726562 165.148438 C 240.296875 155.039062 242.914062 141.617188 247.398438 131.050781 C 268.46875 88.207031 267.925781 21.691406 182.316406 19.496094 Z M 182.316406 19.496094 " fill-opacity="1" fill-rule="nonzero"/></g><g clip-path="url(#d248a2ec2a)"><path fill="#82aad6" d="M 153.628906 169.167969 C 120 185.335938 99.175781 224.695312 104.703125 261.613281 C 109.695312 289.300781 132.757812 314.667969 98.15625 333.507812 C 92.558594 336.828125 84.578125 339.199219 84.0625 345.6875 C 83.773438 349.316406 86.402344 352.734375 89.726562 354.21875 C 93.050781 355.703125 96.882812 355.5625 100.441406 354.789062 C 118.636719 350.839844 133.949219 331.238281 136.4375 312.765625 C 138.929688 294.300781 130.839844 276.289062 129.0625 257.742188 C 127.28125 239.191406 128.484375 218.964844 140.007812 204.332031 C 141.980469 201.828125 144.753906 199.335938 147.910156 199.777344 C 152.445312 200.410156 153.921875 206.167969 154.183594 210.742188 C 155.183594 228.152344 153.882812 245.652344 155.332031 263.03125 C 156.78125 280.40625 161.300781 298.167969 172.382812 311.632812 C 183.464844 325.09375 202.226562 333.199219 218.84375 327.972656 C 222.253906 326.898438 225.617188 325.214844 227.804688 322.378906 C 229.992188 319.542969 230.71875 315.378906 228.8125 312.351562 C 226.320312 308.394531 213.683594 309.273438 209.105469 308.367188 C 189.867188 304.570312 183.34375 284.96875 178.804688 265.878906 C 174.269531 246.789062 177.121094 226.808594 179.992188 207.402344 C 180.710938 202.566406 182.445312 196.628906 187.269531 195.84375 C 192.773438 194.949219 196.203125 201.523438 197.726562 206.890625 C 206.535156 238.429688 214.058594 274.1875 241.089844 295.414062 C 254.292969 305.691406 272.074219 310.925781 288.195312 306.457031 C 304.320312 301.992188 317.574219 286.582031 316.90625 269.855469 C 316.769531 266.5625 315.582031 262.652344 312.386719 261.847656 C 308.207031 260.785156 305.304688 265.671875 302.5 268.949219 C 273.589844 310.253906 235.28125 255.675781 223.5625 222.691406 C 215.527344 202.867188 214.546875 180.265625 220.839844 159.824219 C 198.304688 155.121094 174.367188 159.199219 153.628906 169.167969 Z M 153.628906 169.167969 " fill-opacity="1" fill-rule="nonzero"/></g><path fill="#6e8db0" d="M 285.894531 286.265625 C 284.652344 284.171875 281.605469 285.128906 280.015625 286.285156 C 278.773438 287.3125 278.617188 289.496094 279.90625 290.558594 C 280.972656 291.410156 284.355469 290.222656 285.160156 289.261719 C 285.753906 288.339844 286.511719 287.382812 285.894531 286.265625 Z M 285.894531 286.265625 " fill-opacity="1" fill-rule="nonzero"/><path fill="#6e8db0" d="M 288.605469 294.367188 C 288.316406 291.761719 285.617188 291.644531 283.800781 292.847656 C 282.539062 293.078125 281 293.554688 280.375 294.789062 C 279.757812 296.046875 280.355469 297.53125 281.605469 298.121094 C 284.175781 299.238281 288.167969 297.160156 288.605469 294.367188 Z M 288.605469 294.367188 " fill-opacity="1" fill-rule="nonzero"/><path fill="#82aad6" d="M 229.140625 201.953125 C 249.582031 237.492188 270.824219 286.367188 242.585938 323.078125 C 239.277344 327.214844 235.109375 331.648438 235.753906 336.910156 C 236.363281 341.871094 241.472656 345.386719 246.472656 345.582031 C 251.464844 345.777344 256.210938 343.371094 260.246094 340.414062 C 287.121094 320.484375 287.996094 281.8125 276.683594 252.785156 C 267.320312 227.714844 252.585938 205.039062 239.996094 181.507812 C 237.007812 176.125 232.066406 162.402344 224.234375 162.609375 C 218.074219 162.773438 215.972656 171.121094 216.46875 176.039062 C 217.359375 184.824219 225 194.308594 229.140625 201.953125 Z M 229.140625 201.953125 " fill-opacity="1" fill-rule="nonzero"/><path fill="#ffffff" d="M 224.558594 101.863281 C 223.984375 125.128906 199.714844 125.121094 199.152344 101.863281 C 199.714844 78.601562 223.992188 78.609375 224.558594 101.863281 Z M 224.558594 101.863281 " fill-opacity="1" fill-rule="nonzero"/><path fill="#3f3f3f" d="M 219.671875 105.242188 C 219.214844 124.03125 199.605469 124.027344 199.152344 105.242188 C 199.605469 86.453125 219.214844 86.460938 219.671875 105.242188 Z M 219.671875 105.242188 " fill-opacity="1" fill-rule="nonzero"/><path fill="#ffffff" d="M 208.3125 99.386719 C 208.171875 104.449219 201.726562 104.449219 201.585938 99.386719 C 201.734375 94.320312 208.171875 94.320312 208.3125 99.386719 Z M 208.3125 99.386719 " fill-opacity="1" fill-rule="nonzero"/><path fill="#ffffff" d="M 139.523438 101.863281 C 140.097656 125.128906 164.367188 125.121094 164.929688 101.863281 C 164.367188 78.601562 140.089844 78.609375 139.523438 101.863281 Z M 139.523438 101.863281 " fill-opacity="1" fill-rule="nonzero"/><path fill="#3f3f3f" d="M 144.410156 105.242188 C 144.867188 124.03125 164.476562 124.027344 164.929688 105.242188 C 164.476562 86.453125 144.867188 86.460938 144.410156 105.242188 Z M 144.410156 105.242188 " fill-opacity="1" fill-rule="nonzero"/><path fill="#ffffff" d="M 155.769531 99.386719 C 155.910156 104.449219 162.355469 104.449219 162.496094 99.386719 C 162.347656 94.320312 155.910156 94.320312 155.769531 99.386719 Z M 155.769531 99.386719 " fill-opacity="1" fill-rule="nonzero"/><path fill="#6e8db0" d="M 174.1875 127.679688 C 175.726562 130.039062 178.34375 131.453125 181.160156 131.421875 C 183.980469 131.386719 186.570312 129.929688 188.054688 127.53125 C 188.71875 126.449219 187.019531 125.464844 186.355469 126.539062 C 184.027344 130.304688 178.308594 130.414062 175.878906 126.6875 C 175.195312 125.632812 173.496094 126.617188 174.1875 127.679688 Z M 174.1875 127.679688 " fill-opacity="1" fill-rule="nonzero"/><path fill="#82aad6" d="M 66.816406 229.644531 C 59.332031 258.160156 59.171875 290.027344 97.007812 300.957031 C 97.007812 300.957031 75.296875 322.640625 62.5 307.269531 C 49.703125 291.894531 23.195312 263.84375 66.816406 229.644531 Z M 66.816406 229.644531 " fill-opacity="1" fill-rule="nonzero"/><path fill="#9bbce1" d="M 130.636719 163.71875 C 124.09375 170.394531 87.914062 181.265625 70.910156 195.277344 C 53.910156 209.289062 40.3125 228.335938 36.296875 250.003906 C 30.140625 279.113281 48.171875 320.007812 81.578125 318.132812 C 86.980469 317.359375 92.121094 314.398438 95.492188 310.09375 C 97.371094 307.6875 102.359375 298.203125 96.171875 297.644531 C 94.238281 297.46875 92.445312 298.585938 90.773438 299.574219 C 81.496094 305.371094 70.582031 306.429688 63.105469 297.398438 C 47.890625 276.695312 52.753906 247.480469 67.933594 228.167969 C 85.867188 204.851562 114.5 192.066406 141.476562 182.265625 C 142.949219 181.707031 140.988281 180.894531 142.464844 180.359375 C 143.222656 180.082031 145.800781 179.632812 146.246094 179.015625 C 151.070312 172.25 152.191406 164.425781 152.957031 156.148438 C 144.601562 156.4375 133.773438 160.523438 130.636719 163.71875 Z M 130.636719 163.71875 " fill-opacity="1" fill-rule="nonzero"/><path fill="#6e8db0" d="M 228.371094 62.5625 C 228.347656 62.59375 228.355469 62.585938 228.371094 62.5625 Z M 228.371094 62.5625 " fill-opacity="1" fill-rule="nonzero"/><path fill="#b2ceeb" d="M 133.652344 44.328125 C 134.625 45.398438 134.027344 47.050781 133.371094 48.125 C 133.683594 49.070312 132.605469 49.890625 131.710938 49.675781 C 131.242188 49.84375 130.886719 49.421875 130.644531 49.058594 C 127.773438 47.800781 130.15625 40.789062 133.652344 44.328125 Z M 133.652344 44.328125 " fill-opacity="1" fill-rule="nonzero"/><path fill="#6e8db0" d="M 132.015625 76.9375 C 132.242188 77.648438 131.894531 78.359375 131.523438 78.953125 C 131.8125 80.867188 129.464844 80.90625 129.363281 79.003906 C 129.203125 78.089844 128.753906 76.996094 129.496094 76.222656 C 130.277344 75.378906 131.71875 75.902344 132.015625 76.9375 Z M 132.015625 76.9375 " fill-opacity="1" fill-rule="nonzero"/><path fill="#82aad6" d="M 139.835938 55.757812 C 140.261719 57.171875 139.363281 58.550781 138.398438 59.519531 C 138.230469 59.699219 138 59.785156 137.765625 59.828125 C 136.082031 61.171875 134.015625 59.289062 134.449219 57.394531 C 134.445312 57.386719 134.445312 57.382812 134.445312 57.375 C 134.175781 56.085938 134.972656 54.582031 136.335938 54.386719 C 137.519531 53.5 139.761719 54.152344 139.835938 55.757812 Z M 139.835938 55.757812 " fill-opacity="1" fill-rule="nonzero"/><path fill="#6e8db0" d="M 115.40625 104.234375 C 115.488281 105.648438 115.898438 107.769531 114.261719 108.421875 C 114.097656 109.121094 113.050781 109.179688 112.789062 108.527344 C 111.113281 108.28125 110.804688 106.40625 110.957031 104.988281 C 110.832031 104.019531 111.207031 102.972656 112.085938 102.488281 C 112.347656 101.730469 113.355469 101.117188 114.003906 101.835938 C 114.597656 102.597656 115.476562 103.121094 115.40625 104.234375 Z M 115.40625 104.234375 " fill-opacity="1" fill-rule="nonzero"/><path fill="#82aad6" d="M 124.273438 110.992188 C 124.296875 112.035156 123.960938 114.109375 122.46875 113.386719 C 121.675781 112.933594 120.90625 112.257812 120.792969 111.300781 C 120.542969 111.007812 120.503906 110.582031 120.65625 110.234375 C 120.785156 108.375 122.027344 108.105469 123.28125 109.359375 C 123.777344 109.785156 124.234375 110.300781 124.273438 110.992188 Z M 124.273438 110.992188 " fill-opacity="1" fill-rule="nonzero"/><path fill="#6e8db0" d="M 182.316406 66.328125 C 182.230469 68.773438 178.8125 68.410156 178.390625 66.300781 C 178.179688 65.515625 178.390625 64.394531 179.203125 64.039062 C 179.636719 63.890625 180.0625 64.382812 179.898438 64.796875 C 180.980469 64.1875 182.308594 65.148438 182.316406 66.328125 Z M 182.316406 66.328125 " fill-opacity="1" fill-rule="nonzero"/><path fill="#82aad6" d="M 151.996094 33.03125 C 150.796875 29.195312 155.921875 26.957031 158.984375 26.691406 C 160.089844 26.617188 162.238281 26.570312 162.789062 27.703125 C 164.777344 28.382812 165.441406 30.726562 164.554688 32.507812 C 162.703125 36.691406 154.089844 37.101562 151.996094 33.03125 Z M 151.996094 33.03125 " fill-opacity="1" fill-rule="nonzero"/><path fill="#6e8db0" d="M 124.652344 56.359375 C 125.316406 58.585938 122.554688 62.125 121.289062 63.898438 C 119.597656 65.992188 117.695312 64.5625 117.609375 62.246094 C 117.355469 59.960938 118.1875 57.515625 119.898438 55.972656 C 120.441406 55.40625 121.140625 55.050781 121.917969 54.964844 C 122.046875 54.941406 122.160156 54.984375 122.234375 55.058594 C 123.269531 54.855469 124.289062 55.339844 124.652344 56.359375 Z M 124.652344 56.359375 " fill-opacity="1" fill-rule="nonzero"/><path fill="#b2ceeb" d="M 166.066406 40.285156 C 166.335938 41.355469 165.917969 42.644531 165.246094 43.496094 C 164.265625 44.757812 161.824219 44.539062 161.460938 42.851562 C 161.171875 41.113281 163.085938 39.753906 164.65625 39.675781 C 165.179688 39.535156 165.871094 39.75 166.066406 40.285156 Z M 166.066406 40.285156 " fill-opacity="1" fill-rule="nonzero"/><path fill="#b2ceeb" d="M 193.71875 33.75 C 193.128906 34.933594 191.660156 35.488281 190.417969 35.171875 C 188.054688 34.65625 187.398438 31.101562 189.921875 30.335938 C 192.210938 28.625 194.976562 31.304688 193.71875 33.75 Z M 193.71875 33.75 " fill-opacity="1" fill-rule="nonzero"/><path fill="#82aad6" d="M 117.890625 82.445312 C 116.871094 82.847656 116.300781 81.597656 116.113281 80.777344 C 115.335938 79.402344 115.1875 77.257812 116.359375 76.054688 C 116.851562 75.6875 117.273438 75.277344 117.675781 74.8125 C 118 74.472656 118.609375 74.597656 118.789062 75.007812 C 119.589844 75.296875 119.933594 76.097656 119.917969 76.867188 C 120.5625 78.304688 119.984375 80.972656 118.480469 81.636719 C 118.476562 81.996094 118.1875 82.316406 117.890625 82.445312 Z M 117.890625 82.445312 " fill-opacity="1" fill-rule="nonzero"/><path fill="#82aad6" d="M 192.074219 44.410156 C 196.378906 50.246094 188.195312 54.222656 185.113281 47.277344 C 184.960938 46.929688 185.007812 46.53125 185.355469 46.324219 C 185.691406 42.972656 190.007812 41.777344 192.074219 44.410156 Z M 192.074219 44.410156 " fill-opacity="1" fill-rule="nonzero"/><path fill="#6e8db0" d="M 150.59375 40.65625 C 149.3125 42.503906 148.054688 46.148438 145.164062 44.660156 C 143.574219 43.785156 143.34375 41.703125 144.210938 40.230469 C 144.378906 39.941406 144.6875 39.835938 144.980469 39.882812 C 145.902344 38.660156 147.171875 37.542969 148.679688 37.160156 C 150.949219 36.707031 151.871094 38.949219 150.59375 40.65625 Z M 150.59375 40.65625 " fill-opacity="1" fill-rule="nonzero"/><path fill="#6e8db0" d="M 159.285156 64.480469 C 159.875 66.363281 159.066406 69.054688 156.648438 68.128906 C 156.023438 68.007812 155.800781 67.378906 155.59375 66.851562 C 155.246094 65.945312 155.183594 64.8125 155.835938 64.023438 C 155.847656 63.882812 155.871094 63.742188 155.890625 63.609375 C 155.957031 63.238281 156.492188 63.113281 156.734375 63.367188 C 157.722656 62.898438 158.964844 63.425781 159.285156 64.480469 Z M 159.285156 64.480469 " fill-opacity="1" fill-rule="nonzero"/><path fill="#6e8db0" d="M 178.019531 35.242188 C 176.945312 36.296875 175.148438 36.988281 173.765625 36.074219 C 171.167969 34.46875 172.347656 29.28125 175.261719 28.894531 C 176.039062 28.402344 177.101562 28.589844 177.859375 29.019531 C 180.242188 30.308594 179.824219 33.636719 178.019531 35.242188 Z M 178.019531 35.242188 " fill-opacity="1" fill-rule="nonzero"/><path fill="#b2ceeb" d="M 170.917969 58.886719 C 167.421875 59.847656 167.261719 55.179688 168.085938 52.921875 C 167.40625 50.441406 170.683594 49.601562 172.222656 51.132812 C 174.582031 53.128906 173.84375 57.8125 170.917969 58.886719 Z M 170.917969 58.886719 " fill-opacity="1" fill-rule="nonzero"/><path fill="#6e8db0" d="M 155.875 56.40625 C 154.164062 58.382812 150.277344 57.429688 151.296875 54.453125 C 151.695312 53.316406 152.695312 52.980469 153.613281 52.4375 C 156.179688 51.214844 157.75 54.648438 155.875 56.40625 Z M 155.875 56.40625 " fill-opacity="1" fill-rule="nonzero"/><path fill="#b2ceeb" d="M 119.804688 96.960938 C 118.957031 96.773438 118.742188 95.867188 118.457031 95.175781 C 117.925781 94.460938 117.742188 93.535156 118.027344 92.695312 C 118.273438 91.585938 119.644531 90.398438 120.523438 91.632812 C 121.71875 92.695312 122.339844 97.332031 119.804688 96.960938 Z M 119.804688 96.960938 " fill-opacity="1" fill-rule="nonzero"/><path fill="#82aad6" d="M 238 76.277344 C 238.53125 77.183594 238.210938 78.3125 237.550781 79.066406 C 237.230469 79.441406 236.847656 79.984375 236.28125 79.8125 C 235.542969 79.601562 234.972656 78.808594 235.113281 78.042969 C 233.671875 75.929688 236.652344 74.148438 238 76.277344 Z M 238 76.277344 " fill-opacity="1" fill-rule="nonzero"/><path fill="#6e8db0" d="M 211.378906 47.628906 C 212.542969 49.46875 210.042969 51.632812 208.488281 50.039062 C 207.40625 50.550781 206.816406 49.097656 207.210938 48.230469 C 207.125 47.992188 207.265625 47.714844 207.488281 47.601562 C 208.285156 46.089844 210.574219 46.164062 211.378906 47.628906 Z M 211.378906 47.628906 " fill-opacity="1" fill-rule="nonzero"/><path fill="#6e8db0" d="M 200.023438 55.515625 C 200.855469 58.679688 196.695312 63.011719 194.519531 59.0625 C 194.128906 58.214844 194.171875 57.273438 194.511719 56.414062 C 194.492188 55.285156 195.109375 54.128906 196.144531 53.632812 C 197.699219 52.785156 199.640625 53.828125 200.023438 55.515625 Z M 200.023438 55.515625 " fill-opacity="1" fill-rule="nonzero"/><path fill="#6e8db0" d="M 208.996094 62.203125 C 209.285156 63.320312 208.636719 64.890625 207.613281 65.414062 C 206.273438 65.625 205.394531 63.757812 205.507812 62.609375 C 205.207031 61.84375 205.828125 61.050781 206.539062 60.792969 C 207.582031 60.390625 208.769531 61.144531 208.996094 62.203125 Z M 208.996094 62.203125 " fill-opacity="1" fill-rule="nonzero"/><path fill="#6e8db0" d="M 244.425781 96.941406 C 242.621094 96.792969 241.765625 94.339844 243.378906 93.285156 C 245.003906 92.277344 246.808594 94.648438 245.097656 95.75 C 245.417969 96.261719 245.007812 96.941406 244.425781 96.941406 Z M 244.425781 96.941406 " fill-opacity="1" fill-rule="nonzero"/><path fill="#6e8db0" d="M 248.679688 112.484375 C 249.089844 113.695312 248.554688 115.117188 247.914062 116.160156 C 246.191406 118.160156 244.082031 115.808594 244.929688 113.773438 C 243.773438 112.117188 246.035156 110.054688 247.648438 111.175781 C 248.359375 111.140625 248.699219 111.859375 248.679688 112.484375 Z M 248.679688 112.484375 " fill-opacity="1" fill-rule="nonzero"/><path fill="#82aad6" d="M 204.460938 39.042969 C 201.558594 37.921875 201.652344 33.84375 204.65625 32.945312 C 204.964844 32.855469 205.207031 32.976562 205.351562 33.179688 C 210.574219 33.023438 209.183594 40.539062 204.460938 39.042969 Z M 204.460938 39.042969 " fill-opacity="1" fill-rule="nonzero"/><path fill="#6e8db0" d="M 242.382812 70.761719 C 240.308594 68.855469 238.714844 64.199219 240.070312 61.578125 C 241.238281 59.785156 243.96875 60.027344 245.386719 61.386719 C 247.148438 62.949219 247.292969 65.429688 247.101562 67.617188 C 246.996094 68.800781 246.828125 70.03125 245.867188 70.84375 C 244.800781 71.742188 243.429688 71.621094 242.382812 70.761719 Z M 242.382812 70.761719 " fill-opacity="1" fill-rule="nonzero"/><path fill="#b2ceeb" d="M 230.316406 63.023438 C 229.925781 64.289062 228.410156 65.179688 227.175781 64.507812 C 225.65625 65.523438 224.652344 62.535156 225.273438 61.445312 C 226.414062 58.417969 231.371094 59.773438 230.316406 63.023438 Z M 230.316406 63.023438 " fill-opacity="1" fill-rule="nonzero"/><path fill="#82aad6" d="M 231.5625 43.550781 C 233.035156 45.363281 232.699219 47.808594 232.0625 49.886719 C 231.511719 52.617188 228.953125 54.425781 227.039062 51.617188 C 226.4375 50.722656 225.441406 50.105469 225.152344 49 C 224.9375 49 224.730469 48.917969 224.578125 48.75 C 222.933594 46.84375 223.984375 43.691406 226.054688 42.550781 C 227.804688 41.582031 230.28125 41.972656 231.5625 43.550781 Z M 231.5625 43.550781 " fill-opacity="1" fill-rule="nonzero"/><path fill="#82aad6" d="M 251.042969 101.769531 C 251.628906 103.765625 249.304688 106.054688 248.148438 103.496094 C 246.910156 101.359375 250.070312 99.273438 251.042969 101.769531 Z M 251.042969 101.769531 " fill-opacity="1" fill-rule="nonzero"/><path fill="#b2ceeb" d="M 247.484375 80.652344 C 250.398438 78.496094 252.582031 82.382812 251.082031 84.9375 C 250.667969 86.253906 249.34375 87.703125 248.007812 86.476562 C 247.191406 85.527344 247.230469 84.109375 247.195312 82.929688 C 246.492188 82.304688 246.855469 81.1875 247.484375 80.652344 Z M 247.484375 80.652344 " fill-opacity="1" fill-rule="nonzero"/><path fill="#6e8db0" d="M 57.050781 266.53125 C 56.984375 266.28125 56.777344 266.132812 56.761719 265.871094 C 56.480469 264.890625 55.117188 264.910156 54.808594 265.871094 C 53.566406 268.832031 53.519531 272.238281 54.640625 275.25 C 55.070312 276.4375 56.667969 276.042969 56.601562 274.800781 C 57.171875 274.96875 57.875 274.53125 57.910156 273.851562 C 58.039062 271.386719 57.722656 268.902344 57.050781 266.53125 Z M 57.050781 266.53125 " fill-opacity="1" fill-rule="nonzero"/><path fill="#6e8db0" d="M 73.90625 292.988281 C 73.597656 291.746094 71.730469 288.347656 70.199219 289.707031 C 69.964844 289.8125 69.792969 290.101562 69.9375 290.410156 C 70.019531 292.054688 70.75 295.046875 72.402344 295.730469 C 72.503906 295.84375 72.542969 296 72.609375 296.132812 C 72.8125 296.597656 73.4375 296.597656 73.785156 296.308594 C 74.773438 295.730469 74.132812 293.863281 73.90625 292.988281 Z M 73.90625 292.988281 " fill-opacity="1" fill-rule="nonzero"/><path fill="#6e8db0" d="M 81.398438 298.109375 C 80.539062 297.363281 77.703125 295.886719 76.738281 296.820312 C 75.953125 297.746094 77.65625 299.425781 78.375 299.988281 C 79.195312 300.539062 80.203125 301.230469 81.230469 300.929688 C 81.753906 300.875 82.121094 300.296875 81.839844 299.820312 C 82.195312 299.238281 81.886719 298.503906 81.398438 298.109375 Z M 81.398438 298.109375 " fill-opacity="1" fill-rule="nonzero"/><path fill="#6e8db0" d="M 178.671875 296.328125 C 179.328125 294.402344 177.46875 289.148438 175.039062 291.773438 C 174.859375 291.855469 174.75 292.023438 174.730469 292.238281 C 174.515625 293.210938 174.410156 294.257812 174.589844 295.246094 C 174.71875 296.253906 175.289062 297.109375 175.699219 298.007812 C 175.867188 298.445312 176.011719 298.875 176.390625 299.183594 C 177.269531 299.902344 178.417969 299.230469 178.691406 298.261719 C 178.839844 297.632812 178.71875 296.964844 178.671875 296.328125 Z M 178.671875 296.328125 " fill-opacity="1" fill-rule="nonzero"/><path fill="#6e8db0" d="M 186.632812 300.609375 C 186.398438 299.21875 185.800781 297.082031 184.109375 297.15625 C 182.476562 297.464844 182.699219 299.484375 183.089844 300.6875 C 183.464844 301.667969 184.140625 303.777344 185.335938 303.867188 C 186.71875 303.792969 186.800781 301.65625 186.632812 300.609375 Z M 186.632812 300.609375 " fill-opacity="1" fill-rule="nonzero"/><path fill="#6e8db0" d="M 184.734375 311.28125 C 184.726562 311.261719 184.71875 311.242188 184.707031 311.222656 C 184.921875 309.835938 184.492188 308.265625 183.355469 307.390625 C 182.933594 307.128906 182.53125 306.933594 182.160156 306.585938 C 181.679688 306.230469 180.859375 306.59375 180.746094 307.164062 C 180.605469 307.847656 180.636719 308.5625 180.8125 309.226562 C 181.121094 310.441406 181.941406 311.53125 183.109375 312.082031 C 183.550781 312.296875 184.121094 312.519531 184.519531 312.101562 C 184.710938 311.90625 184.847656 311.542969 184.734375 311.28125 Z M 184.734375 311.28125 " fill-opacity="1" fill-rule="nonzero"/><path fill="#6e8db0" d="M 206.238281 324.097656 C 206.230469 324.097656 206.230469 324.097656 206.226562 324.097656 C 206.226562 324.097656 206.230469 324.105469 206.230469 324.105469 C 206.230469 324.105469 206.238281 324.105469 206.238281 324.105469 C 206.246094 324.105469 206.246094 324.105469 206.238281 324.097656 C 206.246094 324.105469 206.246094 324.105469 206.238281 324.097656 C 206.246094 324.105469 206.238281 324.105469 206.238281 324.097656 Z M 206.238281 324.097656 " fill-opacity="1" fill-rule="nonzero"/><path fill="#6e8db0" d="M 206.277344 324.085938 C 206.277344 324.085938 206.273438 324.085938 206.273438 324.085938 C 206.273438 324.085938 206.265625 324.09375 206.265625 324.09375 C 206.265625 324.097656 206.273438 324.09375 206.277344 324.085938 Z M 206.277344 324.085938 " fill-opacity="1" fill-rule="nonzero"/><path fill="#6e8db0" d="M 206.257812 324.105469 L 206.265625 324.097656 L 206.257812 324.097656 Z M 206.257812 324.105469 " fill-opacity="1" fill-rule="nonzero"/><path fill="#6e8db0" d="M 206.257812 324.097656 C 206.253906 324.097656 206.253906 324.097656 206.246094 324.097656 C 206.246094 324.097656 206.246094 324.097656 206.246094 324.105469 C 206.253906 324.105469 206.253906 324.105469 206.257812 324.097656 Z M 206.257812 324.097656 " fill-opacity="1" fill-rule="nonzero"/><path fill="#6e8db0" d="M 209.378906 323.527344 C 208.757812 321.417969 205.5 320.929688 204.386719 322.84375 C 204.0625 322.949219 203.921875 323.398438 204.125 323.675781 C 203.847656 325.339844 205.628906 326.800781 207.179688 326.011719 C 208.582031 326.410156 209.828125 324.851562 209.378906 323.527344 Z M 209.378906 323.527344 " fill-opacity="1" fill-rule="nonzero"/><path fill="#6e8db0" d="M 206.292969 324.070312 C 206.292969 324.078125 206.285156 324.078125 206.285156 324.085938 C 206.285156 324.085938 206.292969 324.085938 206.292969 324.085938 C 206.292969 324.078125 206.292969 324.070312 206.292969 324.070312 C 206.300781 324.070312 206.292969 324.070312 206.292969 324.070312 Z M 206.292969 324.070312 " fill-opacity="1" fill-rule="nonzero"/><path fill="#6e8db0" d="M 212.460938 313.355469 C 211.796875 313.015625 211.023438 312.933594 210.304688 313.175781 C 209.238281 313.082031 208.070312 313.78125 207.84375 314.875 C 207.554688 316.191406 208.660156 317.179688 209.675781 317.789062 C 212.929688 319.996094 215.777344 315.304688 212.460938 313.355469 Z M 212.460938 313.355469 " fill-opacity="1" fill-rule="nonzero"/><path fill="#6e8db0" d="M 220.058594 321.640625 C 220.105469 318 214.507812 318.589844 212.75 320.578125 C 212.113281 321.25 212.105469 322.246094 212.722656 322.882812 C 213.75 323.769531 215.273438 323.84375 216.570312 323.890625 C 217.957031 323.929688 220.335938 323.515625 220.058594 321.640625 Z M 220.058594 321.640625 " fill-opacity="1" fill-rule="nonzero"/><path fill="#6e8db0" d="M 223.84375 314.828125 C 223.207031 311.550781 218.144531 313.355469 219.179688 316.40625 C 219.738281 318.273438 222.269531 318.773438 223.339844 317.070312 C 223.804688 316.421875 223.757812 315.59375 223.84375 314.828125 Z M 223.84375 314.828125 " fill-opacity="1" fill-rule="nonzero"/><path fill="#6e8db0" d="M 308.136719 265.144531 C 305.910156 265.039062 303.984375 270.03125 305.742188 271.3125 C 307.351562 272.421875 310.089844 268.671875 310.117188 267.234375 C 310.179688 266.121094 309.28125 265.085938 308.136719 265.144531 Z M 308.136719 265.144531 " fill-opacity="1" fill-rule="nonzero"/><path fill="#6e8db0" d="M 302.890625 274.328125 C 301.050781 270.558594 294.3125 277.292969 296.695312 279.832031 C 298.742188 281.878906 303.613281 276.453125 302.890625 274.328125 Z M 302.890625 274.328125 " fill-opacity="1" fill-rule="nonzero"/><path fill="#6e8db0" d="M 313.453125 272.320312 C 312.796875 271.144531 311.039062 271.542969 310.628906 272.703125 C 310.445312 272.675781 310.257812 272.722656 310.125 272.859375 C 309.472656 273.433594 308.898438 274.222656 308.957031 275.136719 C 309.078125 276.96875 311.347656 277.816406 312.40625 276.164062 C 312.851562 275.445312 313.132812 274.632812 313.480469 273.859375 C 313.683594 273.375 313.722656 272.785156 313.453125 272.320312 Z M 313.453125 272.320312 " fill-opacity="1" fill-rule="nonzero"/><path fill="#6e8db0" d="M 306.695312 277.414062 C 304.84375 277.082031 303.105469 278.6875 302.574219 280.367188 C 302.339844 281.085938 302.152344 282.371094 302.816406 282.898438 C 303.25 283.316406 304.011719 283.261719 304.332031 282.730469 C 305.324219 282.605469 305.949219 281.699219 306.582031 281.007812 C 307.628906 279.972656 308.589844 278.132812 306.695312 277.414062 Z M 306.695312 277.414062 " fill-opacity="1" fill-rule="nonzero"/><path fill="#6e8db0" d="M 294.382812 283.234375 C 294.382812 281.84375 292.714844 281.511719 291.71875 282.15625 C 290.398438 282.402344 289.027344 283.0625 288.257812 284.203125 C 287.875 284.882812 287.753906 285.808594 288.128906 286.5 C 288.933594 287.675781 290.519531 287.011719 291.523438 286.496094 C 292.3125 286.136719 293.792969 285.921875 293.632812 284.789062 C 294.027344 284.34375 294.371094 283.855469 294.382812 283.234375 Z M 294.382812 283.234375 " fill-opacity="1" fill-rule="nonzero"/><path fill="#6e8db0" d="M 299.480469 288.523438 C 299.199219 288.105469 298.773438 287.910156 298.296875 287.84375 C 296.792969 286.996094 294.800781 287.964844 293.765625 289.160156 C 292.894531 289.636719 292.503906 290.691406 292.867188 291.621094 C 294.042969 294.675781 301.015625 291.164062 299.480469 288.523438 Z M 299.480469 288.523438 " fill-opacity="1" fill-rule="nonzero"/><path fill="#6e8db0" d="M 253.621094 284.800781 C 252.613281 283.121094 250.339844 281.738281 248.40625 282.617188 C 247.238281 283.183594 246.914062 284.734375 247.6875 285.753906 C 248.660156 287.085938 250.472656 289.402344 252.257812 288.085938 C 254.25 288.414062 254.527344 286.109375 253.621094 284.800781 Z M 253.621094 284.800781 " fill-opacity="1" fill-rule="nonzero"/><path fill="#6e8db0" d="M 256.621094 278.621094 C 255.957031 276.910156 253.996094 274.878906 252.023438 275.699219 C 250.433594 276.605469 251.554688 278.480469 252.179688 279.664062 C 252.648438 280.542969 253.171875 281.578125 254.265625 281.726562 C 254.464844 281.75 254.667969 281.730469 254.855469 281.683594 C 256.683594 282.085938 257.285156 280.003906 256.621094 278.621094 Z M 253.871094 278.003906 C 254.21875 278.304688 254.441406 278.527344 254.667969 278.964844 C 254.546875 278.996094 254.433594 279.058594 254.339844 279.132812 C 254.078125 278.707031 253.835938 278.273438 253.609375 277.828125 C 253.695312 277.867188 253.773438 277.941406 253.871094 278.003906 Z M 253.871094 278.003906 " fill-opacity="1" fill-rule="nonzero"/><path fill="#6e8db0" d="M 245.625 276.511719 C 244.988281 274.589844 242.960938 272.300781 240.820312 273.628906 C 240.257812 273.703125 239.738281 274.011719 239.410156 274.511719 C 238.492188 275.875 239.492188 278.257812 241.15625 278.414062 C 241.988281 279.527344 244.003906 281.382812 244.933594 279.394531 C 246.222656 279.039062 246.136719 277.5 245.625 276.511719 Z M 245.625 276.511719 " fill-opacity="1" fill-rule="nonzero"/><path fill="#6e8db0" d="M 250.304688 272.144531 C 250.183594 271.453125 249.960938 270.800781 249.679688 270.15625 C 249.359375 269.082031 248.882812 267.847656 247.714844 267.484375 C 246.558594 267.109375 245.359375 267.972656 245.015625 269.0625 C 244.527344 270.601562 245.902344 272.488281 247.246094 273.105469 C 248.414062 275.074219 250.773438 274.535156 250.304688 272.144531 Z M 250.304688 272.144531 " fill-opacity="1" fill-rule="nonzero"/><path fill="#6e8db0" d="M 238.257812 270.023438 C 238.109375 267.820312 236.753906 265.710938 234.707031 264.835938 C 233.78125 264.488281 232.710938 264.972656 232.390625 265.90625 C 232.121094 266.683594 232.503906 267.625 232.878906 268.308594 C 233.558594 269.71875 234.421875 271.5625 236.136719 271.824219 C 237.464844 272.523438 238.449219 271.339844 238.257812 270.023438 Z M 238.257812 270.023438 " fill-opacity="1" fill-rule="nonzero"/><path fill="#6e8db0" d="M 243.296875 263.9375 C 243.296875 262.519531 242.621094 261.15625 241.828125 260.015625 C 240.195312 258.367188 237.539062 259.429688 238.445312 261.875 C 239.128906 263.445312 239.933594 265.28125 241.445312 266.199219 C 242 266.925781 243.144531 266.488281 243.167969 265.601562 C 243.238281 265.046875 243.195312 264.488281 243.296875 263.9375 Z M 243.296875 263.9375 " fill-opacity="1" fill-rule="nonzero"/><path fill="#6e8db0" d="M 263.171875 292.472656 C 262.804688 291.082031 261.03125 290.4375 260.03125 291.605469 C 258.273438 292.890625 257.40625 298.59375 260.234375 299.023438 C 261.199219 299.050781 261.734375 298.183594 262.140625 297.421875 C 262.863281 295.933594 263.535156 294.144531 263.171875 292.472656 Z M 263.171875 292.472656 " fill-opacity="1" fill-rule="nonzero"/><path fill="#6e8db0" d="M 264.75 302.355469 C 263.542969 301.949219 262.546875 302.816406 261.878906 303.738281 C 261.285156 303.746094 261.246094 304.511719 261.164062 304.96875 C 260.3125 306.652344 259.851562 310.570312 262.734375 310.132812 C 264.347656 309.535156 264.898438 307.292969 265.527344 305.839844 C 266.085938 304.65625 266.300781 302.84375 264.75 302.355469 Z M 264.75 302.355469 " fill-opacity="1" fill-rule="nonzero"/><path fill="#6e8db0" d="M 256.777344 310.550781 C 255.023438 308.277344 252.78125 311.535156 252.058594 313.15625 C 251.574219 314.21875 251.015625 315.621094 252.03125 316.574219 C 254.089844 318.160156 255.835938 315.097656 256.488281 313.445312 C 256.855469 312.578125 257.324219 311.449219 256.777344 310.550781 Z M 256.777344 310.550781 " fill-opacity="1" fill-rule="nonzero"/><path fill="#6e8db0" d="M 260.5625 315.371094 C 258.714844 312.800781 254.441406 317.433594 255.042969 319.632812 C 255.378906 321.148438 256.992188 321.398438 258.230469 320.828125 C 259.535156 320.121094 261.441406 316.789062 260.5625 315.371094 Z M 260.5625 315.371094 " fill-opacity="1" fill-rule="nonzero"/><path fill="#6e8db0" d="M 250.390625 318.421875 C 250.136719 318.167969 249.714844 318.03125 249.367188 318.148438 C 247.238281 318.859375 245.324219 320.550781 244.652344 322.726562 C 244.503906 323.339844 244.578125 324.019531 245.0625 324.46875 C 245.695312 325.207031 247.238281 325.097656 247.21875 323.945312 C 248.386719 324.003906 249.15625 322.984375 249.675781 322.070312 C 250.097656 321.148438 251.191406 319.316406 250.390625 318.421875 Z M 250.390625 318.421875 " fill-opacity="1" fill-rule="nonzero"/><path fill="#6e8db0" d="M 252.527344 322.125 C 250.632812 321.613281 248.820312 325.097656 248.574219 326.636719 C 248.40625 327.878906 249.820312 328.855469 250.902344 328.175781 C 251.742188 327.671875 252.082031 326.625 252.566406 325.824219 C 253.480469 324.742188 254.414062 322.734375 252.527344 322.125 Z M 252.527344 322.125 " fill-opacity="1" fill-rule="nonzero"/><path fill="#6e8db0" d="M 243.980469 326.824219 C 242.257812 325.542969 239.921875 327.894531 239.902344 329.679688 C 239.929688 330.097656 239.941406 330.554688 240.148438 330.917969 C 240.546875 331.609375 241.652344 331.425781 241.78125 330.632812 C 242.503906 330.816406 242.988281 330.117188 243.390625 329.628906 C 244.007812 328.875 244.867188 327.71875 243.980469 326.824219 Z M 243.980469 326.824219 " fill-opacity="1" fill-rule="nonzero"/><path fill="#6e8db0" d="M 245.390625 330.546875 C 244.398438 329.960938 243.050781 330.898438 243.191406 332.019531 C 242.285156 332.226562 242.6875 333.261719 242.867188 333.871094 C 243.886719 336.117188 247.566406 331.742188 245.390625 330.546875 Z M 245.390625 330.546875 " fill-opacity="1" fill-rule="nonzero"/><path fill="#6e8db0" d="M 269.925781 292.574219 C 269.144531 291.222656 267.234375 291.335938 266.382812 292.554688 C 265.234375 293.882812 263.414062 299.378906 266.335938 299.519531 C 268.03125 299.707031 268.878906 297.765625 269.550781 296.511719 C 270.074219 295.339844 270.703125 293.78125 269.925781 292.574219 Z M 269.925781 292.574219 " fill-opacity="1" fill-rule="nonzero"/><path fill="#6e8db0" d="M 263.738281 280.320312 C 263.46875 277.359375 259.996094 276.78125 259.367188 279.878906 C 259.253906 280.523438 259.253906 281.175781 259.40625 281.804688 C 259.375 282.980469 259.320312 284.257812 259.804688 285.351562 C 260.179688 286.089844 261.050781 286.472656 261.84375 286.199219 C 263.308594 285.6875 263.664062 283.765625 263.808594 282.421875 C 263.882812 281.71875 263.835938 281.019531 263.738281 280.320312 Z M 263.738281 280.320312 " fill-opacity="1" fill-rule="nonzero"/><path fill="#6e8db0" d="M 268.375 278.875 C 268.03125 278.707031 267.664062 278.648438 267.308594 278.695312 C 267.039062 278.359375 266.527344 278.324219 266.171875 278.554688 C 265.691406 278.882812 265.570312 279.507812 265.386719 280.03125 C 265.214844 280.246094 265.066406 280.488281 264.972656 280.757812 C 264.785156 281.308594 264.777344 281.988281 264.925781 282.597656 C 264.878906 283.597656 264.730469 284.6875 265.246094 285.59375 C 268.160156 289.28125 271.386719 280.125 268.375 278.875 Z M 268.375 278.875 " fill-opacity="1" fill-rule="nonzero"/><path fill="#6e8db0" d="M 268.40625 270.84375 C 268.347656 269.640625 268.125 268.175781 267.039062 267.449219 C 265.898438 266.710938 264.320312 267.503906 263.949219 268.746094 C 263.789062 269.230469 263.84375 269.839844 264.03125 270.378906 C 264.046875 271.136719 264.164062 271.910156 264.339844 272.621094 C 264.640625 274.128906 265.953125 274.773438 267.3125 274.074219 C 268.402344 273.429688 268.414062 271.972656 268.40625 270.84375 Z M 268.40625 270.84375 " fill-opacity="1" fill-rule="nonzero"/><path fill="#6e8db0" d="M 262.039062 272.453125 C 262.039062 270.992188 261.851562 268.523438 259.992188 268.378906 C 258.777344 268.398438 258.3125 269.71875 258.40625 270.75 C 258.179688 271.359375 258.199219 272.097656 258.535156 272.667969 C 258.601562 276.453125 262.359375 276.070312 262.039062 272.453125 Z M 262.039062 272.453125 " fill-opacity="1" fill-rule="nonzero"/><path fill="#6e8db0" d="M 183.417969 288.46875 C 182.355469 286.742188 180.132812 287.246094 180.0625 289.316406 C 179.007812 290.101562 179.226562 292.59375 180.636719 292.78125 C 180.886719 293.515625 181.203125 294.226562 181.523438 294.929688 C 182.066406 295.953125 183.734375 295.503906 183.746094 294.359375 C 184.886719 292.648438 184.464844 290.140625 183.417969 288.46875 Z M 183.417969 288.46875 " fill-opacity="1" fill-rule="nonzero"/><path fill="#6e8db0" d="M 180.195312 281.1875 C 180.203125 279.472656 179.382812 277.9375 178.464844 276.550781 C 177.960938 275.679688 176.535156 275.839844 176.289062 276.835938 C 175.886719 278.488281 175.832031 280.253906 176.355469 281.886719 C 176.53125 282.4375 176.726562 283.019531 177.074219 283.484375 C 177.242188 283.980469 177.308594 284.511719 177.4375 285.023438 C 177.671875 285.96875 178.964844 285.800781 179.242188 284.976562 C 179.746094 284.660156 179.785156 283.941406 179.90625 283.402344 C 180.113281 282.683594 180.214844 281.933594 180.195312 281.1875 Z M 180.195312 281.1875 " fill-opacity="1" fill-rule="nonzero"/><path fill="#6e8db0" d="M 174.609375 284.773438 C 174.535156 283.195312 174.414062 281.375 173.390625 280.097656 C 172.019531 278.808594 170.316406 280.273438 170.125 281.8125 C 169.578125 284.351562 170.074219 287.570312 172.222656 289.242188 C 172.550781 289.46875 173.03125 289.394531 173.339844 289.167969 C 174.765625 289.148438 174.582031 285.800781 174.609375 284.773438 Z M 174.609375 284.773438 " fill-opacity="1" fill-rule="nonzero"/><path fill="#6e8db0" d="M 70.503906 295.449219 C 70.269531 294.789062 69.886719 294.1875 69.46875 293.628906 C 69.121094 292.78125 68.542969 291.863281 67.535156 291.8125 C 65.433594 291.976562 65.503906 294.21875 66.40625 295.636719 C 66.984375 296.679688 68.644531 298.886719 69.90625 297.636719 C 70.476562 297.0625 70.816406 296.246094 70.503906 295.449219 Z M 70.503906 295.449219 " fill-opacity="1" fill-rule="nonzero"/><path fill="#6e8db0" d="M 65.476562 289.785156 C 65.328125 288.171875 64.636719 286.445312 63.285156 285.480469 C 62.40625 284.949219 61.300781 285.390625 60.996094 286.359375 C 60.835938 286.996094 60.882812 287.664062 61.066406 288.289062 C 61.515625 289.691406 62.582031 292.054688 64.355469 291.714844 C 65.289062 291.625 65.5625 290.59375 65.476562 289.785156 Z M 65.476562 289.785156 " fill-opacity="1" fill-rule="nonzero"/><path fill="#6e8db0" d="M 70.148438 286.0625 C 69.65625 284.875 69.148438 283.472656 68.085938 282.691406 C 67.394531 282.335938 66.574219 282.617188 66.226562 283.277344 C 65.972656 283.425781 65.851562 283.714844 65.925781 284.003906 C 65.621094 284.726562 65.890625 285.640625 66.507812 286.117188 C 66.835938 287.066406 67.335938 288.402344 68.550781 288.382812 C 69.765625 288.335938 70.597656 287.261719 70.148438 286.0625 Z M 70.148438 286.0625 " fill-opacity="1" fill-rule="nonzero"/><path fill="#6e8db0" d="M 61.46875 282.121094 C 61.375 280.953125 60.929688 279.796875 60.144531 278.921875 C 59.40625 278.03125 57.84375 278.21875 57.519531 279.378906 C 57.019531 279.855469 57.285156 280.675781 57.519531 281.234375 C 57.972656 282.539062 58.628906 284.734375 60.40625 284.34375 C 61.355469 284.070312 61.664062 283.015625 61.46875 282.121094 Z M 61.46875 282.121094 " fill-opacity="1" fill-rule="nonzero"/><path fill="#6e8db0" d="M 66.347656 279.386719 C 66.308594 278.414062 66.039062 277.445312 65.695312 276.539062 C 65.507812 276.0625 65.328125 275.570312 64.84375 275.304688 C 64.535156 275.128906 64.171875 275.089844 63.832031 275.160156 C 63.488281 275.101562 63.125 275.160156 62.835938 275.34375 C 61.824219 275.976562 62.164062 277.277344 62.601562 278.164062 C 62.65625 278.648438 62.882812 279.144531 63.097656 279.527344 C 63.589844 280.273438 64.441406 281.496094 65.449219 280.945312 C 65.953125 280.574219 66.339844 280.039062 66.347656 279.386719 Z M 66.347656 279.386719 " fill-opacity="1" fill-rule="nonzero"/><path fill="#6e8db0" d="M 63.03125 269.464844 C 62.835938 268.6875 61.808594 268.363281 61.21875 268.902344 C 58.828125 268.277344 60.570312 272.3125 61.011719 273.292969 C 61.164062 273.625 61.582031 273.816406 61.925781 273.816406 C 63.542969 273.738281 63.542969 270.566406 63.03125 269.464844 Z M 63.03125 269.464844 " fill-opacity="1" fill-rule="nonzero"/><path fill="#6e8db0" d="M 63.226562 271.164062 C 63.003906 270.183594 62.621094 269.082031 61.769531 268.476562 C 61.453125 268.351562 61.1875 268.175781 60.832031 268.175781 C 60.253906 268.203125 59.675781 268.671875 59.710938 269.296875 C 59.757812 270.082031 59.890625 270.863281 60.164062 271.59375 C 60.574219 272.523438 61.085938 274.203125 62.328125 274.105469 C 63.675781 273.871094 63.339844 272.160156 63.226562 271.164062 Z M 63.226562 271.164062 " fill-opacity="1" fill-rule="nonzero"/><path fill="#6e8db0" d="M 75.066406 300.035156 C 74.464844 299.027344 73.234375 297.679688 72.007812 298.570312 C 70.871094 298.464844 69.886719 299.625 70.269531 300.734375 C 70.648438 301.898438 73.085938 303.617188 74.296875 303.675781 C 75.121094 303.945312 76.011719 303.375 76.207031 302.550781 C 76.46875 301.554688 75.785156 300.667969 75.066406 300.035156 Z M 75.066406 300.035156 " fill-opacity="1" fill-rule="nonzero"/><path fill="#6e8db0" d="M 95.054688 337.433594 C 93.574219 337.59375 92.035156 338.144531 90.953125 339.199219 C 90.027344 340.242188 91.195312 341.636719 92.4375 341.195312 C 93.605469 340.9375 94.4375 340.058594 95.390625 339.433594 C 95.816406 339.164062 96.25 338.871094 96.238281 338.3125 C 96.21875 337.679688 95.613281 337.378906 95.054688 337.433594 Z M 95.054688 337.433594 " fill-opacity="1" fill-rule="nonzero"/><path fill="#6e8db0" d="M 97.742188 340.816406 C 96.339844 340.074219 93.410156 341.664062 92.941406 343.09375 C 92.652344 343.960938 93.519531 345.105469 94.433594 344.621094 C 95.230469 344.632812 96.007812 344.246094 96.660156 343.792969 C 97.96875 343.378906 99.171875 341.832031 97.742188 340.816406 Z M 97.742188 340.816406 " fill-opacity="1" fill-rule="nonzero"/><path fill="#6e8db0" d="M 103.5 332.972656 C 102.441406 331.621094 98.246094 334.035156 98.03125 335.402344 C 96.902344 336.230469 97.675781 337.640625 98.984375 337.339844 C 99.453125 337.304688 100.058594 337.398438 100.332031 336.875 C 101.773438 336.230469 104.957031 334.972656 103.5 332.972656 Z M 103.5 332.972656 " fill-opacity="1" fill-rule="nonzero"/><path fill="#6e8db0" d="M 106.320312 337.582031 C 105.191406 336.632812 103.5 337.332031 102.324219 337.875 C 101.910156 338.117188 101.386719 338.210938 101.164062 338.675781 C 99.929688 339.714844 100.585938 341.671875 102.238281 341.609375 C 103.394531 341.4375 104.480469 340.785156 105.480469 340.1875 C 106.414062 339.714844 107.207031 338.480469 106.320312 337.582031 Z M 106.320312 337.582031 " fill-opacity="1" fill-rule="nonzero"/><path fill="#6e8db0" d="M 110.882812 328.457031 C 110.332031 326.429688 105.957031 328.203125 105.304688 329.472656 C 105.144531 329.796875 105.097656 330.136719 105.152344 330.460938 C 104.875 331.097656 105.03125 332.011719 105.808594 332.199219 C 106.488281 332.359375 106.992188 331.84375 107.554688 331.570312 C 108.636719 330.992188 111.300781 329.984375 110.882812 328.457031 Z M 110.882812 328.457031 " fill-opacity="1" fill-rule="nonzero"/><path fill="#6e8db0" d="M 113.824219 333.234375 C 113.191406 329.796875 106.929688 333.5625 108.171875 335.953125 C 109.191406 337.949219 114.402344 335.128906 113.824219 333.234375 Z M 113.824219 333.234375 " fill-opacity="1" fill-rule="nonzero"/><path fill="#6e8db0" d="M 115.964844 320.242188 C 115.433594 319.925781 114.863281 320.195312 114.480469 320.597656 C 113.179688 321.027344 111.078125 322.796875 110.925781 324.234375 C 110.769531 325.289062 112.003906 326.28125 112.953125 325.65625 C 113.636719 325.671875 114.171875 325.144531 114.570312 324.648438 C 115.023438 324.164062 115.628906 323.703125 115.738281 323.003906 C 116.179688 322.222656 117 320.894531 115.964844 320.242188 Z M 115.964844 320.242188 " fill-opacity="1" fill-rule="nonzero"/><path fill="#6e8db0" d="M 120.746094 325.097656 C 118.574219 323.546875 115.199219 326.289062 115.703125 328.71875 C 115.628906 329.164062 115.683594 329.601562 116.066406 329.941406 C 117.394531 331.03125 118.683594 329.292969 119.683594 328.53125 C 120.792969 327.773438 121.980469 326.316406 120.746094 325.097656 Z M 120.746094 325.097656 " fill-opacity="1" fill-rule="nonzero"/><path fill="#6e8db0" d="M 124.035156 316.125 C 123.683594 315.417969 122.792969 315.128906 122.074219 315.386719 C 120.804688 314.863281 119.265625 316.554688 120.121094 317.703125 C 119.925781 318.46875 119.804688 319.316406 119.917969 320.09375 C 120.074219 321.042969 121.269531 321.472656 122.019531 320.894531 C 122.945312 320.136719 124.726562 317.285156 124.035156 316.125 Z M 124.035156 316.125 " fill-opacity="1" fill-rule="nonzero"/><path fill="#6e8db0" d="M 118.226562 312.296875 C 117.242188 311.1875 116.019531 312.140625 115.703125 313.308594 C 115.488281 314.027344 115.160156 314.707031 115.199219 315.480469 C 114.121094 317.226562 115.785156 318.449219 117.273438 317.117188 C 117.957031 316.515625 118.328125 315.582031 118.308594 314.675781 C 118.488281 313.90625 118.742188 312.980469 118.226562 312.296875 Z M 118.226562 312.296875 " fill-opacity="1" fill-rule="nonzero"/><path fill="#6e8db0" d="M 123.113281 308.613281 C 123.007812 307.269531 122.382812 304.898438 120.628906 305.214844 C 119.730469 305.449219 119.527344 306.4375 119.648438 307.246094 C 119.242188 307.566406 119.265625 308.132812 119.5625 308.527344 C 119.671875 309.308594 119.710938 310.195312 120.308594 310.777344 C 120.816406 311.269531 121.503906 311.363281 122.132812 311.058594 C 123.058594 310.625 123.167969 309.507812 123.113281 308.613281 Z M 123.113281 308.613281 " fill-opacity="1" fill-rule="nonzero"/><path fill="#6e8db0" d="M 116.882812 304.273438 C 117.105469 306.027344 117.160156 307.875 117.019531 309.5625 C 117.367188 309.589844 117.742188 309.425781 117.910156 309.105469 C 118.710938 307.6875 118.246094 305.167969 116.882812 304.273438 Z M 116.882812 304.273438 " fill-opacity="1" fill-rule="nonzero"/><path fill="#6e8db0" d="M 284.457031 288.101562 C 284.355469 286.710938 284.355469 285.292969 284.015625 283.933594 C 283.953125 283.738281 283.878906 283.53125 283.773438 283.355469 C 283.664062 283.167969 283.445312 283.09375 283.351562 282.925781 C 283.234375 282.710938 282.867188 282.753906 282.820312 282.996094 C 282.792969 283.121094 282.691406 283.175781 282.625 283.28125 C 282.523438 283.449219 282.496094 283.671875 282.476562 283.859375 C 282.375 285.0625 282.636719 286.257812 282.664062 287.460938 C 282.804688 291.398438 282.429688 295.359375 281.800781 299.238281 C 281.25 301.796875 280.253906 304.242188 279.851562 306.828125 C 279.746094 307.640625 280.730469 308.171875 281.230469 307.40625 C 282.207031 306.023438 282.585938 304.355469 283.015625 302.742188 C 284.203125 297.960938 284.78125 293.042969 284.457031 288.101562 Z M 284.457031 288.101562 " fill-opacity="1" fill-rule="nonzero"/><path fill="#6e8db0" d="M 256.871094 279.5625 C 256.367188 272.84375 254.574219 268.761719 255.183594 278.84375 C 255.371094 284.558594 254.6875 290.207031 253.277344 295.742188 C 252.863281 297.875 251.855469 299.847656 251.511719 301.984375 C 251.390625 302.878906 252.464844 303.441406 253.015625 302.617188 C 256.023438 297.019531 257.300781 285.941406 256.871094 279.5625 Z M 256.871094 279.5625 " fill-opacity="1" fill-rule="nonzero"/><path fill="#9bbce1" d="M 141.472656 182.265625 C 146.574219 180.554688 151.984375 185.347656 153.003906 190.628906 C 154.023438 195.914062 152.011719 201.261719 150.03125 206.265625 C 145.96875 216.546875 141.90625 226.824219 137.847656 237.101562 C 131.757812 253.28125 122.769531 272.589844 104.097656 276.09375 C 95.230469 277.648438 85.15625 273.832031 81.089844 265.789062 C 79.371094 262.390625 78.777344 258.496094 77 255.128906 C 75.222656 251.765625 71.515625 248.847656 67.84375 249.855469 C 63.09375 251.167969 62.171875 257.460938 62.582031 262.371094 C 66.097656 313.257812 117.878906 314.097656 141.277344 275.449219 C 148.007812 265.019531 152.535156 253.335938 157.011719 241.75 C 163.945312 223.792969 170.878906 205.835938 177.8125 187.882812 C 181.578125 177.148438 189.949219 174.492188 194.828125 185.972656 C 205.417969 209.277344 208.828125 235.789062 204.472656 261.015625 C 200.117188 286.238281 188.007812 310.074219 170.207031 328.457031 C 167.507812 331.246094 164.46875 335.234375 166.460938 338.566406 C 168.441406 341.878906 173.429688 341.101562 176.960938 339.542969 C 196.089844 331.070312 209.207031 312.476562 216.105469 292.714844 C 224.617188 268.296875 224.90625 242.042969 223.777344 216.484375 C 223.628906 213.171875 223.636719 209.792969 223.121094 206.515625 C 222.542969 202.875 222.085938 199.140625 222.703125 195.472656 C 224.488281 184.867188 233.980469 181.460938 242.746094 187.332031 C 246.585938 189.835938 249.613281 193.375 253.023438 196.445312 C 259.613281 202.371094 267.421875 205.5 275.441406 208.960938 C 283.988281 212.640625 292.6875 215.953125 301.359375 219.328125 C 313.152344 223.875 324.785156 229.03125 329.007812 240.957031 C 331.605469 248.292969 331.019531 256.6875 327.429688 263.585938 C 317.476562 281.992188 301.773438 275.523438 298.25 284.386719 C 297.089844 287.878906 299.511719 292.605469 303.15625 293.105469 C 331.585938 296.992188 343.988281 279.871094 346.21875 260.015625 C 351.714844 210.988281 302.070312 201.308594 288.070312 194.949219 C 266.667969 185.222656 248.648438 168.234375 237.652344 147.441406 C 216.402344 147.535156 192.390625 145.796875 171.132812 145.890625 C 162.097656 145.929688 152.015625 146.394531 145.726562 152.890625 C 138.847656 159.992188 140.464844 172.417969 141.472656 182.265625 Z M 141.472656 182.265625 " fill-opacity="1" fill-rule="nonzero"/><path fill="#6e8db0" d="M 128.074219 256.945312 C 127.964844 256.6875 127.746094 256.433594 127.4375 256.460938 C 126.46875 256.535156 126.046875 257.601562 125.582031 258.328125 C 125.113281 259.058594 124.625 259.777344 124.113281 260.476562 C 120.195312 265.84375 114.90625 269.996094 109.3125 273.488281 C 108.875 273.816406 108.527344 274.195312 108.050781 274.457031 C 107.714844 274.636719 108.011719 275.109375 108.347656 274.960938 C 114.664062 273.066406 120.871094 267.195312 124.988281 262.144531 C 125.628906 261.351562 126.253906 260.53125 126.84375 259.699219 C 127.335938 259.019531 128.449219 257.851562 128.074219 256.945312 Z M 128.074219 256.945312 " fill-opacity="1" fill-rule="nonzero"/><path fill="#6e8db0" d="M 132.878906 284.835938 C 132.175781 285.125 131.738281 285.796875 131.242188 286.347656 C 129.800781 287.90625 128.207031 289.316406 126.644531 290.746094 C 123.375 293.804688 119.496094 296.046875 115.789062 298.503906 C 115.355469 298.8125 115.601562 299.632812 116.179688 299.433594 C 118.890625 298.484375 121.410156 296.859375 123.746094 295.199219 C 126.824219 293.050781 129.726562 290.613281 132.242188 287.816406 C 132.792969 287.246094 133.652344 286.589844 133.851562 285.800781 C 133.980469 285.277344 133.457031 284.601562 132.878906 284.835938 Z M 132.878906 284.835938 " fill-opacity="1" fill-rule="nonzero"/><path fill="#6e8db0" d="M 191.621094 298.453125 C 190.390625 299.9375 189.59375 301.761719 188.457031 303.335938 C 185.542969 307.917969 182.214844 312.214844 179.25 316.75 C 178.941406 317.765625 179.261719 318.09375 180.207031 317.496094 C 183.8125 313.355469 186.800781 308.707031 189.847656 304.148438 C 190.828125 302.480469 192.148438 300.976562 192.914062 299.203125 C 193.109375 298.417969 192.195312 297.960938 191.621094 298.453125 Z M 191.621094 298.453125 " fill-opacity="1" fill-rule="nonzero"/><path fill="#6e8db0" d="M 208.015625 308.796875 C 205.050781 313.257812 202.265625 317.945312 198.5 321.820312 C 197.875 322.492188 197.246094 323.15625 196.632812 323.84375 C 196.191406 324.339844 195.203125 325.074219 195.332031 325.816406 C 195.875 326.625 197.128906 325.167969 197.574219 324.785156 C 201.527344 320.96875 205.164062 316.730469 208.03125 312.035156 C 208.46875 311.222656 209.125 310.480469 209.378906 309.59375 C 209.527344 308.777344 208.648438 308.246094 208.015625 308.796875 Z M 208.015625 308.796875 " fill-opacity="1" fill-rule="nonzero"/><path fill="#d9eaf9" d="M 105.078125 182.164062 C 104.949219 181.703125 104.378906 181.296875 103.890625 181.488281 C 97.199219 184.058594 90.6875 187.191406 84.53125 190.863281 C 60.246094 205.050781 40.203125 229.523438 37.792969 258.292969 C 37.71875 259.160156 37.707031 260.027344 37.6875 260.894531 C 37.667969 262.007812 39.289062 261.96875 39.390625 260.894531 C 39.707031 257.460938 40.191406 254.046875 40.867188 250.667969 C 47.433594 219.347656 73.429688 196.171875 102.058594 184.347656 C 102.984375 183.785156 105.425781 183.496094 105.078125 182.164062 Z M 105.078125 182.164062 " fill-opacity="1" fill-rule="nonzero"/><path fill="#d9eaf9" d="M 88.277344 296.625 C 80.308594 293.945312 74.34375 287.246094 71.269531 279.554688 C 69.394531 274.699219 68.050781 269.648438 66.980469 264.5625 C 66.628906 262.675781 66.320312 260.785156 65.730469 258.960938 C 65.636719 258.625 65.097656 258.683594 65.113281 259.039062 C 65.078125 260.773438 65.3125 262.484375 65.582031 264.199219 C 66.832031 275.128906 70.246094 286.730469 79.113281 293.902344 C 81.664062 295.871094 84.597656 297.765625 87.847656 298.210938 C 88.679688 298.289062 89.015625 296.988281 88.277344 296.625 Z M 88.277344 296.625 " fill-opacity="1" fill-rule="nonzero"/><path fill="#d9eaf9" d="M 156.339844 201.324219 C 151.25 217.304688 145.101562 232.941406 137.464844 247.890625 C 132.875 256.949219 127.605469 266.179688 119.179688 272.199219 C 118.871094 272.40625 119.148438 272.890625 119.476562 272.703125 C 128.1875 268.046875 133.511719 259.289062 138.027344 250.824219 C 143.304688 240.796875 147.957031 230.464844 152.003906 219.878906 C 154.292969 213.945312 156.394531 207.941406 158.125 201.820312 C 158.460938 200.660156 156.714844 200.195312 156.339844 201.324219 Z M 156.339844 201.324219 " fill-opacity="1" fill-rule="nonzero"/><path fill="#d9eaf9" d="M 210.472656 249.226562 C 209.9375 249.226562 209.589844 249.65625 209.546875 250.152344 C 209.097656 255.417969 208.5 260.652344 207.488281 265.84375 C 203.464844 287.238281 193.417969 307.097656 179.953125 324.085938 C 179.726562 324.386719 180.214844 324.742188 180.46875 324.488281 C 195.21875 308.984375 204.621094 288.804688 209.105469 267.996094 C 210.3125 262.128906 211.191406 256.144531 211.402344 250.160156 C 211.421875 249.65625 210.964844 249.226562 210.472656 249.226562 Z M 210.472656 249.226562 " fill-opacity="1" fill-rule="nonzero"/><path fill="#d9eaf9" d="M 266.402344 200.253906 C 264.355469 198.730469 262.097656 197.496094 260.179688 195.789062 C 258.191406 194.121094 256.332031 192.316406 254.445312 190.535156 C 248.808594 185.175781 241.089844 179.117188 232.859375 181.675781 C 232.492188 181.761719 232.652344 182.300781 233.015625 182.238281 C 233.660156 182.132812 234.242188 182.183594 234.886719 182.21875 C 239.382812 182.339844 243.550781 184.320312 247.144531 186.914062 C 252.472656 190.59375 256.480469 195.890625 261.730469 199.675781 C 262.890625 200.523438 264.125 201.378906 265.507812 201.78125 C 266.339844 202.023438 267.140625 200.839844 266.402344 200.253906 Z M 266.402344 200.253906 " fill-opacity="1" fill-rule="nonzero"/><path fill="#d9eaf9" d="M 334.402344 246.195312 C 334.183594 242.414062 333.363281 238.671875 331.980469 235.144531 C 331.496094 233.910156 331.007812 232.6875 330.160156 231.660156 C 329.597656 230.972656 328.558594 231.71875 328.75 232.480469 C 329.019531 233.539062 329.515625 234.527344 329.90625 235.550781 C 336.53125 252.464844 329.242188 271.769531 313.191406 280.207031 C 311.304688 281.28125 309.285156 282.074219 307.339844 283.019531 C 306.996094 283.164062 307.117188 283.652344 307.492188 283.585938 C 308.492188 283.398438 309.46875 283.242188 310.441406 282.921875 C 325.488281 277.855469 335.652344 261.980469 334.402344 246.195312 Z M 334.402344 246.195312 " fill-opacity="1" fill-rule="nonzero"/><path fill="#6e8db0" d="M 132.289062 191.355469 C 131.851562 190.917969 131.25 191 130.804688 191.355469 C 127.925781 193.644531 125.34375 196.351562 122.972656 199.160156 C 113.460938 210.433594 107.304688 224.8125 106.753906 239.625 C 106.78125 240.171875 106.863281 240.722656 106.921875 241.257812 C 106.976562 241.742188 107.722656 241.945312 107.84375 241.386719 C 108.039062 240.460938 108.234375 239.558594 108.339844 238.617188 C 110.019531 225.222656 115.171875 212.171875 123.730469 201.679688 C 126.335938 198.476562 129.25 195.628906 132.289062 192.847656 C 132.707031 192.464844 132.679688 191.746094 132.289062 191.355469 Z M 132.289062 191.355469 " fill-opacity="1" fill-rule="nonzero"/><path fill="#6e8db0" d="M 188.691406 180.242188 C 187.214844 178.082031 183.933594 179.09375 182.242188 180.492188 C 180.347656 182.042969 179.355469 184.4375 178.289062 186.570312 C 169.730469 203.601562 162.523438 221.292969 156.695312 239.429688 C 155.828125 242.285156 154.777344 245.148438 154.535156 248.136719 C 155.109375 250.078125 157.707031 241.601562 157.929688 241.117188 C 164.675781 221.429688 172.460938 201.949219 182.371094 183.628906 C 183.34375 182.144531 185.09375 180.867188 186.933594 181.351562 C 187.496094 181.339844 188.214844 181.640625 188.625 181.125 C 188.808594 180.894531 188.886719 180.507812 188.691406 180.242188 Z M 188.691406 180.242188 " fill-opacity="1" fill-rule="nonzero"/><path fill="#6e8db0" d="M 242.789062 186.988281 C 241.765625 185.539062 239.988281 184.851562 238.355469 184.367188 C 232.222656 182.566406 224.785156 186.34375 223.195312 192.738281 C 223.152344 192.988281 223.214844 193.230469 223.179688 193.484375 C 223.132812 193.832031 223.53125 194.054688 223.730469 193.734375 C 223.90625 193.449219 224.167969 193.242188 224.355469 192.960938 C 227.074219 188.378906 231.753906 185.09375 237.222656 186.398438 C 238.878906 186.714844 240.335938 187.632812 241.859375 188.277344 C 242.511719 188.445312 243.203125 187.640625 242.789062 186.988281 Z M 242.789062 186.988281 " fill-opacity="1" fill-rule="nonzero"/><path fill="#6e8db0" d="M 257.394531 248.753906 C 255.585938 241.628906 252.675781 234.769531 249.023438 228.402344 C 245.914062 223.019531 242.3125 217.960938 238.109375 213.386719 C 237.859375 213.097656 237.464844 213.515625 237.699219 213.796875 C 239.519531 216.027344 241.101562 218.480469 242.699219 220.871094 C 247.507812 227.992188 251.070312 235.898438 253.808594 244.019531 C 254.78125 247.101562 255.648438 250.226562 256.640625 253.296875 C 256.789062 253.660156 257.085938 253.921875 257.5 253.855469 C 257.871094 253.800781 258.199219 253.476562 258.179688 253.089844 C 258.113281 251.644531 257.707031 250.167969 257.394531 248.753906 Z M 257.394531 248.753906 " fill-opacity="1" fill-rule="nonzero"/><path fill="#6e8db0" d="M 270.695312 321.667969 C 269.355469 323.03125 268.46875 324.8125 267.347656 326.347656 C 266.273438 327.832031 265.09375 329.242188 263.863281 330.601562 C 259.996094 335.09375 254.929688 338.191406 250.023438 341.390625 C 249.546875 341.664062 249.867188 342.503906 250.40625 342.304688 C 254.199219 341.1875 257.453125 338.957031 260.488281 336.480469 C 263.582031 334.054688 266.328125 331.257812 268.695312 328.121094 C 269.964844 326.34375 271.433594 324.582031 272.027344 322.4375 C 272.21875 321.6875 271.265625 321.089844 270.695312 321.667969 Z M 270.695312 321.667969 " fill-opacity="1" fill-rule="nonzero"/><path fill="#6e8db0" d="M 132.136719 310.125 C 130.363281 325.65625 121.703125 339.488281 107.863281 346.992188 C 104.125 349.066406 100.199219 350.585938 96.117188 351.835938 C 95.742188 351.949219 95.789062 352.613281 96.21875 352.558594 C 100.0625 352.078125 103.835938 350.867188 107.359375 349.261719 C 121.386719 342.949219 131.351562 329.035156 133.644531 313.90625 C 133.820312 312.738281 133.847656 311.542969 133.859375 310.359375 C 133.859375 309.40625 132.289062 309.132812 132.136719 310.125 Z M 132.136719 310.125 " fill-opacity="1" fill-rule="nonzero"/><path fill="#6e8db0" d="M 175.320312 309.582031 C 173.824219 306.566406 172.019531 303.71875 170.542969 300.6875 C 165.019531 289.054688 161.488281 276.476562 160.023438 263.6875 C 159.890625 262.722656 159.675781 261.765625 159.609375 260.785156 C 159.582031 260.417969 159.011719 260.410156 159.023438 260.785156 C 159.058594 261.660156 158.972656 262.527344 158.984375 263.394531 C 159.519531 276.195312 162.769531 288.832031 168.320312 300.371094 C 169.9375 303.8125 171.570312 307.378906 173.832031 310.449219 C 174.488281 311.335938 175.824219 310.597656 175.320312 309.582031 Z M 175.320312 309.582031 " fill-opacity="1" fill-rule="nonzero"/><path fill="#82aad6" d="M 335.027344 279.703125 C 333.660156 280.691406 332.632812 282.109375 331.308594 283.15625 C 330.082031 284.195312 328.75 285.109375 327.347656 285.910156 C 322.910156 288.429688 317.664062 289.730469 312.601562 290.035156 C 312.21875 290.015625 312.234375 290.578125 312.601562 290.617188 C 314.3125 290.792969 316.023438 291.210938 317.761719 291.089844 C 319.496094 290.96875 321.261719 290.566406 322.925781 290.066406 C 326.347656 289.046875 329.496094 287.320312 332.269531 285.082031 C 333.746094 283.894531 335.519531 282.4375 336.234375 280.636719 C 336.496094 279.972656 335.589844 279.328125 335.027344 279.703125 Z M 335.027344 279.703125 " fill-opacity="1" fill-rule="nonzero"/><path fill="#82aad6" d="M 90.574219 308.574219 C 88.503906 310.125 86.402344 311.757812 83.933594 312.652344 C 81.492188 313.59375 78.878906 314.109375 76.261719 314.195312 C 74.773438 314.265625 73.300781 313.980469 71.8125 314.074219 C 70.589844 314.527344 73.113281 315.414062 73.53125 315.488281 C 78.441406 316.554688 83.679688 315.539062 87.921875 312.875 C 89.242188 311.964844 90.746094 310.992188 91.621094 309.628906 C 91.960938 308.917969 91.277344 308.238281 90.574219 308.574219 Z M 90.574219 308.574219 " fill-opacity="1" fill-rule="nonzero"/><path fill="#6e8db0" d="M 224.757812 233.417969 C 224.738281 232.648438 224.683594 231.875 224.625 231.101562 C 224.554688 230.253906 224.363281 229.4375 224.292969 228.589844 C 224.269531 228.21875 223.710938 228.207031 223.710938 228.589844 C 223.71875 229.300781 223.597656 230 223.582031 230.710938 C 223.578125 231.417969 223.550781 232.128906 223.5625 232.835938 C 223.589844 234.253906 223.601562 235.667969 223.601562 237.085938 C 223.601562 239.855469 223.554688 242.621094 223.457031 245.390625 C 223.246094 250.992188 222.871094 256.582031 222.195312 262.148438 C 222.007812 263.6875 221.804688 265.21875 221.589844 266.75 C 221.367188 268.308594 220.957031 269.921875 221.171875 271.5 C 221.253906 272.117188 222.199219 272.039062 222.339844 271.5 C 222.703125 270.152344 222.75 268.707031 222.933594 267.324219 C 223.121094 265.917969 223.292969 264.515625 223.441406 263.105469 C 223.738281 260.351562 223.984375 257.59375 224.207031 254.835938 C 224.652344 249.246094 224.851562 243.648438 224.824219 238.046875 C 224.832031 236.507812 224.804688 234.964844 224.757812 233.417969 Z M 224.757812 233.417969 " fill-opacity="1" fill-rule="nonzero"/></svg>