<svg xmlns="http://www.w3.org/2000/svg" xmlns:xlink="http://www.w3.org/1999/xlink" width="500" zoomAndPan="magnify" viewBox="0 0 375 374.999991" height="500" preserveAspectRatio="xMidYMid meet" version="1.0"><defs><clipPath id="16a16bb405"><path d="M 32 52.128906 L 157 52.128906 L 157 127 L 32 127 Z M 32 52.128906 " clip-rule="nonzero"/></clipPath><clipPath id="278d5f4137"><path d="M 304 169 L 367.09375 169 L 367.09375 208 L 304 208 Z M 304 169 " clip-rule="nonzero"/></clipPath><clipPath id="a9866b887d"><path d="M 304 203 L 367.09375 203 L 367.09375 242 L 304 242 Z M 304 203 " clip-rule="nonzero"/></clipPath><clipPath id="5c8ed838ff"><path d="M 304 197 L 367.09375 197 L 367.09375 242 L 304 242 Z M 304 197 " clip-rule="nonzero"/></clipPath><clipPath id="4335e7c409"><path d="M 74 72 L 319 72 L 319 299.628906 L 74 299.628906 Z M 74 72 " clip-rule="nonzero"/></clipPath><clipPath id="c0d6fe0da2"><path d="M 9.34375 125 L 20 125 L 20 130 L 9.34375 130 Z M 9.34375 125 " clip-rule="nonzero"/></clipPath></defs><g clip-path="url(#16a16bb405)"><path fill="#445c8c" d="M 35.742188 126.226562 C 35.605469 126.226562 35.46875 126.214844 35.335938 126.199219 C 34.921875 126.144531 34.535156 126.015625 34.175781 125.808594 C 33.816406 125.601562 33.511719 125.332031 33.257812 125.003906 C 33.003906 124.675781 32.824219 124.3125 32.71875 123.910156 C 32.609375 123.511719 32.582031 123.105469 32.636719 122.695312 C 39.265625 71.917969 71.351562 53.253906 96.8125 52.695312 C 121.511719 52.113281 149.683594 68.226562 156.199219 105.371094 C 156.269531 105.78125 156.261719 106.1875 156.171875 106.589844 C 156.082031 106.996094 155.917969 107.367188 155.679688 107.707031 C 155.441406 108.046875 155.144531 108.328125 154.796875 108.550781 C 154.445312 108.769531 154.066406 108.917969 153.65625 108.988281 C 153.25 109.0625 152.84375 109.050781 152.4375 108.960938 C 152.03125 108.871094 151.660156 108.707031 151.320312 108.46875 C 150.980469 108.230469 150.699219 107.9375 150.476562 107.589844 C 150.253906 107.238281 150.105469 106.859375 150.035156 106.453125 C 144.164062 72.964844 119.136719 58.425781 96.949219 58.945312 C 73.964844 59.449219 44.960938 76.660156 38.839844 123.503906 C 38.792969 123.878906 38.679688 124.234375 38.5 124.570312 C 38.320312 124.902344 38.089844 125.195312 37.804688 125.445312 C 37.519531 125.695312 37.199219 125.890625 36.84375 126.023438 C 36.488281 126.15625 36.121094 126.226562 35.742188 126.226562 Z M 35.742188 126.226562 " fill-opacity="1" fill-rule="nonzero"/></g><path fill="#445c8c" d="M 302.113281 244.785156 C 310.375 246.914062 319.65625 258.894531 319.695312 263.183594 C 319.730469 267.476562 303.28125 283.976562 295.960938 283.113281 C 288.636719 282.253906 285.5 256.300781 286.402344 253.277344 C 287.308594 250.253906 302.113281 244.785156 302.113281 244.785156 Z M 302.113281 244.785156 " fill-opacity="1" fill-rule="nonzero"/><path fill="#445c8c" d="M 316.65625 268.734375 C 315.945312 269.574219 315.175781 270.496094 314.265625 271.445312 C 308.273438 262.257812 301.957031 254.484375 294.964844 247.761719 C 296.226562 247.183594 297.417969 246.617188 298.492188 246.210938 C 305.339844 253.078125 311.394531 260.585938 316.65625 268.734375 Z M 316.65625 268.734375 " fill-opacity="1" fill-rule="nonzero"/><path fill="#445c8c" d="M 306.851562 278.191406 C 305.90625 278.917969 304.925781 279.59375 303.910156 280.214844 C 298.792969 271.554688 292.917969 263.441406 286.285156 255.878906 C 286.191406 255.003906 286.230469 254.140625 286.402344 253.277344 C 286.640625 252.746094 286.992188 252.300781 287.457031 251.949219 C 294.800781 260.046875 301.265625 268.796875 306.851562 278.191406 Z M 306.851562 278.191406 " fill-opacity="1" fill-rule="nonzero"/><g clip-path="url(#278d5f4137)"><path fill="#445c8c" d="M 304.9375 206.117188 C 302.816406 190.601562 331.0625 166.613281 367.078125 169.4375 C 360.015625 192.011719 332.476562 211.761719 304.9375 206.117188 Z M 304.9375 206.117188 " fill-opacity="1" fill-rule="nonzero"/></g><g clip-path="url(#a9866b887d)"><path fill="#445c8c" d="M 304.9375 204.75 C 302.816406 220.269531 331.0625 244.253906 367.078125 241.433594 C 360.015625 218.859375 332.476562 199.105469 304.9375 204.75 Z M 304.9375 204.75 " fill-opacity="1" fill-rule="nonzero"/></g><path fill="#141414" d="M 365.804688 172.890625 C 365.105469 174.738281 364.234375 176.503906 363.191406 178.183594 C 347.878906 186 333.027344 194.605469 318.632812 204.003906 C 317.507812 204.640625 316.421875 205.347656 315.382812 206.117188 C 314.898438 206.398438 314.425781 206.707031 313.972656 207.035156 C 312.910156 207.742188 311.851562 208.445312 310.792969 209.222656 C 309.714844 209.863281 308.675781 210.570312 307.6875 211.339844 C 307.121094 211.691406 306.628906 212.042969 306.0625 212.46875 C 305.648438 211.460938 305.316406 210.425781 305.074219 209.363281 C 304.933594 209.292969 304.792969 209.152344 304.648438 209.082031 C 304.777344 209.027344 304.894531 208.957031 305.003906 208.871094 L 307.757812 206.964844 C 307.96875 206.824219 308.109375 206.753906 308.320312 206.613281 C 309.523438 205.769531 310.792969 204.921875 311.992188 204.144531 C 312.0625 204.074219 312.207031 204.003906 312.277344 203.933594 C 313.265625 203.296875 314.183594 202.664062 315.171875 201.957031 C 331.519531 191.347656 348.398438 181.660156 365.804688 172.890625 Z M 365.804688 172.890625 " fill-opacity="1" fill-rule="nonzero"/><path fill="#141414" d="M 363.476562 169.296875 C 342.714844 179.3125 325.414062 189.261719 311.007812 199.558594 C 309.949219 200.261719 308.890625 201.042969 307.902344 201.816406 C 306.84375 202.59375 305.785156 203.371094 304.796875 204.074219 C 304.851562 202.832031 305.039062 201.609375 305.359375 200.40625 C 305.105469 200.207031 304.824219 200.066406 304.511719 199.984375 C 304.9375 199.632812 305.359375 199.28125 305.855469 198.925781 C 306.417969 198.503906 306.984375 198.078125 307.621094 197.65625 C 320.824219 188.058594 336.570312 178.75 355.074219 169.4375 C 357.871094 169.210938 360.671875 169.164062 363.476562 169.296875 Z M 363.476562 169.296875 " fill-opacity="1" fill-rule="nonzero"/><g clip-path="url(#5c8ed838ff)"><path fill="#141414" d="M 367.078125 241.460938 C 365.804688 241.53125 364.605469 241.601562 363.40625 241.601562 C 348.011719 227.988281 332.617188 216.558594 316.871094 206.964844 C 316.375 206.683594 315.882812 206.402344 315.386719 206.117188 C 314.257812 205.414062 313.128906 204.777344 311.996094 204.144531 C 311.925781 204 311.808594 203.929688 311.644531 203.933594 C 310.375 203.15625 309.175781 202.449219 307.902344 201.816406 C 307.085938 201.292969 306.238281 200.820312 305.359375 200.40625 C 305.105469 200.207031 304.824219 200.066406 304.511719 199.980469 C 304.9375 199.628906 305.359375 199.277344 305.855469 198.921875 C 306.066406 198.359375 306.277344 197.722656 306.558594 197.089844 C 306.925781 197.25 307.28125 197.4375 307.617188 197.652344 C 308.75 198.21875 309.878906 198.851562 311.007812 199.558594 C 312.351562 200.261719 313.761719 201.109375 315.175781 201.957031 C 316.304688 202.589844 317.433594 203.296875 318.632812 204.003906 C 319.90625 204.777344 321.175781 205.554688 322.519531 206.472656 C 337.347656 215.714844 351.824219 226.648438 366.371094 239.488281 C 366.652344 240.121094 366.867188 240.828125 367.078125 241.460938 Z M 367.078125 241.460938 " fill-opacity="1" fill-rule="nonzero"/></g><path fill="#141414" d="M 351.824219 241.039062 C 349.421875 240.757812 347.09375 240.335938 344.835938 239.839844 C 334.242188 231.234375 322.167969 221.921875 307.691406 211.339844 C 306.84375 210.636719 305.996094 210 305.078125 209.363281 C 304.9375 209.292969 304.796875 209.152344 304.652344 209.082031 C 304.78125 209.027344 304.898438 208.957031 305.007812 208.871094 C 304.855469 207.746094 304.808594 206.617188 304.867188 205.484375 C 304.867188 205.273438 304.796875 204.988281 304.796875 204.78125 C 304.867188 204.851562 304.867188 204.851562 304.9375 204.851562 C 305.640625 205.417969 306.347656 205.910156 307.054688 206.402344 C 307.277344 206.609375 307.511719 206.796875 307.757812 206.96875 C 308.746094 207.746094 309.804688 208.449219 310.796875 209.226562 C 327.109375 221.214844 340.386719 231.515625 351.824219 241.039062 Z M 351.824219 241.039062 " fill-opacity="1" fill-rule="nonzero"/><path fill="#669ed1" d="M 266.804688 103.828125 C 263.929688 104.539062 261.304688 105.648438 259.210938 107.628906 L 266.804688 112.804688 C 267.523438 109.8125 267.523438 106.820312 266.804688 103.828125 Z M 266.804688 103.828125 " fill-opacity="1" fill-rule="nonzero"/><g clip-path="url(#4335e7c409)"><path fill="#669ed1" d="M 230.054688 93.007812 C 230.335938 88.972656 229.601562 85.132812 227.851562 81.484375 C 223.953125 84.042969 221.09375 86.679688 219.597656 89.425781 C 209.917969 86.457031 200.027344 84.617188 189.925781 83.902344 C 188.515625 79.75 186.488281 75.925781 183.839844 72.429688 C 181.683594 75.945312 180.109375 79.703125 179.113281 83.707031 C 156.503906 84.246094 135.972656 91.101562 119.136719 102.507812 L 121.558594 100.761719 C 119.210938 98.6875 116.007812 96.867188 111.699219 95.378906 C 110.730469 98.953125 110.949219 103.25 111.699219 107.875 L 113.261719 106.75 C 89.144531 125.636719 74.035156 154.414062 74.035156 187.070312 C 74.035156 246.679688 117.097656 299.589844 188.074219 299.589844 C 259.054688 299.589844 318.351562 259.382812 318.351562 199.769531 C 318.351562 153.527344 277.527344 111.175781 230.054688 93.007812 Z M 230.054688 93.007812 " fill-opacity="1" fill-rule="nonzero"/></g><path fill="#ffffff" d="M 64.992188 179.265625 C 61.316406 173.667969 64.847656 160.96875 72.617188 160.96875 C 81.089844 160.96875 86.734375 168.632812 83.558594 179.265625 C 80.382812 189.894531 64.992188 179.265625 64.992188 179.265625 Z M 64.992188 179.265625 " fill-opacity="1" fill-rule="nonzero"/><path fill="#ffffff" d="M 85.023438 183.652344 C 81.457031 178.21875 84.882812 165.886719 92.429688 165.886719 C 100.65625 165.886719 106.136719 173.332031 103.054688 183.652344 C 99.96875 193.976562 85.023438 183.652344 85.023438 183.652344 Z M 85.023438 183.652344 " fill-opacity="1" fill-rule="nonzero"/><path fill="#ffffff" d="M 103.382812 192.824219 C 99.8125 187.390625 103.246094 175.058594 110.789062 175.058594 C 119.015625 175.058594 124.496094 182.5 121.414062 192.824219 C 118.328125 203.148438 103.382812 192.824219 103.382812 192.824219 Z M 103.382812 192.824219 " fill-opacity="1" fill-rule="nonzero"/><path fill="#ffffff" d="M 122.011719 201.453125 C 118.550781 196.183594 121.875 184.230469 129.1875 184.230469 C 137.164062 184.230469 142.480469 191.445312 139.488281 201.453125 C 136.5 211.457031 122.011719 201.453125 122.011719 201.453125 Z M 122.011719 201.453125 " fill-opacity="1" fill-rule="nonzero"/><path fill="#ffffff" d="M 140.429688 207.066406 C 137.320312 203.113281 139.148438 193.390625 144.957031 192.890625 C 151.292969 192.347656 156.011719 197.722656 154.316406 205.875 C 152.625 214.03125 140.429688 207.066406 140.429688 207.066406 Z M 140.429688 207.066406 " fill-opacity="1" fill-rule="nonzero"/><path fill="#141414" d="M 127.640625 151.109375 C 126.789062 151.109375 125.953125 150.984375 125.140625 150.730469 C 122.042969 149.753906 119.695312 146.902344 118.160156 142.257812 C 118.078125 142.011719 118.042969 141.757812 118.058594 141.496094 C 118.074219 141.234375 118.140625 140.984375 118.257812 140.75 C 118.371094 140.515625 118.527344 140.3125 118.726562 140.140625 C 118.925781 139.972656 119.148438 139.84375 119.394531 139.761719 C 119.644531 139.679688 119.898438 139.648438 120.160156 139.667969 C 120.421875 139.691406 120.667969 139.757812 120.902344 139.878906 C 121.136719 140 121.335938 140.15625 121.503906 140.359375 C 121.671875 140.558594 121.796875 140.78125 121.875 141.03125 C 122.996094 144.417969 124.492188 146.425781 126.320312 147 C 128.425781 147.660156 131.335938 146.617188 135 143.886719 C 135.210938 143.726562 135.4375 143.613281 135.691406 143.546875 C 135.945312 143.480469 136.199219 143.46875 136.457031 143.503906 C 136.71875 143.539062 136.960938 143.625 137.183594 143.757812 C 137.410156 143.890625 137.601562 144.058594 137.757812 144.269531 C 137.914062 144.476562 138.023438 144.710938 138.085938 144.960938 C 138.148438 145.214844 138.160156 145.472656 138.121094 145.730469 C 138.082031 145.988281 137.996094 146.226562 137.859375 146.453125 C 137.722656 146.675781 137.550781 146.863281 137.339844 147.015625 C 133.671875 149.75 130.476562 151.109375 127.640625 151.109375 Z M 127.640625 151.109375 " fill-opacity="1" fill-rule="nonzero"/><path fill="#445c8c" d="M 212.433594 183.542969 C 212.433594 176.492188 245.644531 156.722656 256.917969 175.785156 C 266.097656 191.304688 263.980469 224.460938 255.507812 224.460938 C 244.207031 224.464844 217.375 214.585938 212.433594 183.542969 Z M 212.433594 183.542969 " fill-opacity="1" fill-rule="nonzero"/><path fill="#141414" d="M 260.945312 185.941406 C 244.84375 178.957031 229.167969 177.617188 213.277344 181.78125 L 213.207031 181.78125 C 213.109375 181.777344 213.011719 181.800781 212.925781 181.851562 C 212.925781 181.78125 212.996094 181.78125 213.066406 181.710938 C 213.703125 180.371094 215.113281 178.886719 216.949219 177.335938 C 231.144531 174.445312 245.125 175.855469 259.53125 181.5 C 260.085938 182.953125 260.558594 184.433594 260.945312 185.941406 Z M 260.945312 185.941406 " fill-opacity="1" fill-rule="nonzero"/><path fill="#141414" d="M 262.851562 199.839844 C 249.644531 198.570312 233.332031 193.84375 213.140625 185.589844 C 213.066406 185.589844 212.996094 185.519531 212.855469 185.449219 C 212.71875 185.207031 212.648438 184.949219 212.644531 184.671875 C 212.574219 184.320312 212.503906 183.898438 212.433594 183.542969 C 212.449219 182.9375 212.613281 182.375 212.925781 181.851562 C 212.925781 181.78125 212.996094 181.78125 213.066406 181.710938 C 213.140625 181.78125 213.140625 181.78125 213.210938 181.78125 L 213.277344 181.78125 C 233.40625 190.175781 249.644531 194.902344 262.640625 196.242188 C 262.707031 197.441406 262.777344 198.640625 262.851562 199.839844 Z M 262.851562 199.839844 " fill-opacity="1" fill-rule="nonzero"/><path fill="#141414" d="M 262.214844 212.46875 C 262.003906 213.738281 261.792969 214.867188 261.582031 215.996094 C 240.324219 213.738281 225.777344 207.460938 216.105469 196.171875 C 214.566406 192.734375 213.484375 189.160156 212.855469 185.449219 C 212.71875 185.207031 212.648438 184.949219 212.644531 184.671875 C 212.785156 184.957031 212.996094 185.308594 213.140625 185.589844 C 221.753906 201.460938 237.148438 209.929688 262.214844 212.46875 Z M 262.214844 212.46875 " fill-opacity="1" fill-rule="nonzero"/><path fill="#c2e4ff" d="M 47.3125 130.925781 C 47.3125 131.671875 47.238281 132.410156 47.09375 133.140625 C 46.949219 133.871094 46.730469 134.582031 46.445312 135.269531 C 46.160156 135.957031 45.8125 136.613281 45.398438 137.230469 C 44.984375 137.851562 44.511719 138.421875 43.984375 138.949219 C 43.457031 139.476562 42.882812 139.949219 42.261719 140.363281 C 41.644531 140.777344 40.988281 141.125 40.300781 141.410156 C 39.609375 141.695312 38.898438 141.910156 38.167969 142.054688 C 37.4375 142.203125 36.699219 142.273438 35.953125 142.273438 C 35.207031 142.273438 34.46875 142.203125 33.734375 142.054688 C 33.003906 141.910156 32.292969 141.695312 31.605469 141.410156 C 30.917969 141.125 30.261719 140.777344 29.640625 140.363281 C 29.019531 139.949219 28.449219 139.476562 27.921875 138.949219 C 27.394531 138.421875 26.921875 137.851562 26.507812 137.230469 C 26.09375 136.613281 25.742188 135.957031 25.457031 135.269531 C 25.171875 134.582031 24.957031 133.871094 24.8125 133.140625 C 24.664062 132.410156 24.59375 131.671875 24.59375 130.925781 C 24.59375 130.179688 24.664062 129.441406 24.8125 128.710938 C 24.957031 127.980469 25.171875 127.273438 25.457031 126.582031 C 25.742188 125.894531 26.09375 125.242188 26.507812 124.621094 C 26.921875 124.003906 27.394531 123.429688 27.921875 122.902344 C 28.449219 122.375 29.019531 121.90625 29.640625 121.492188 C 30.261719 121.078125 30.917969 120.726562 31.605469 120.441406 C 32.292969 120.15625 33.003906 119.941406 33.734375 119.796875 C 34.46875 119.652344 35.207031 119.578125 35.953125 119.578125 C 36.699219 119.578125 37.4375 119.652344 38.167969 119.796875 C 38.898438 119.941406 39.609375 120.15625 40.300781 120.441406 C 40.988281 120.726562 41.644531 121.078125 42.261719 121.492188 C 42.882812 121.90625 43.457031 122.375 43.984375 122.902344 C 44.511719 123.429688 44.984375 124.003906 45.398438 124.621094 C 45.8125 125.242188 46.160156 125.894531 46.445312 126.582031 C 46.730469 127.273438 46.949219 127.980469 47.09375 128.710938 C 47.238281 129.441406 47.3125 130.179688 47.3125 130.925781 Z M 47.3125 130.925781 " fill-opacity="1" fill-rule="nonzero"/><path fill="#669ed1" d="M 39.960938 157.460938 C 39.722656 157.460938 39.492188 157.417969 39.265625 157.335938 C 39.042969 157.25 38.84375 157.125 38.664062 156.96875 C 38.488281 156.808594 38.34375 156.625 38.230469 156.414062 C 38.121094 156.199219 38.050781 155.976562 38.023438 155.738281 L 37.390625 150.46875 C 37.359375 150.210938 37.375 149.957031 37.445312 149.703125 C 37.515625 149.453125 37.628906 149.222656 37.789062 149.019531 C 37.949219 148.8125 38.144531 148.648438 38.371094 148.519531 C 38.597656 148.390625 38.839844 148.3125 39.097656 148.28125 C 39.359375 148.25 39.613281 148.269531 39.863281 148.339844 C 40.113281 148.410156 40.34375 148.527344 40.546875 148.691406 C 40.75 148.851562 40.917969 149.046875 41.042969 149.277344 C 41.167969 149.503906 41.246094 149.746094 41.273438 150.007812 L 41.90625 155.277344 C 41.9375 155.535156 41.917969 155.789062 41.847656 156.039062 C 41.777344 156.289062 41.660156 156.515625 41.5 156.71875 C 41.339844 156.921875 41.148438 157.085938 40.921875 157.214844 C 40.695312 157.339844 40.453125 157.417969 40.195312 157.449219 C 40.117188 157.457031 40.039062 157.464844 39.960938 157.460938 Z M 39.960938 157.460938 " fill-opacity="1" fill-rule="nonzero"/><path fill="#669ed1" d="M 53.863281 125.117188 C 53.453125 125.117188 53.082031 125 52.746094 124.769531 C 52.410156 124.535156 52.171875 124.230469 52.027344 123.847656 C 51.886719 123.464844 51.863281 123.078125 51.964844 122.679688 C 52.066406 122.285156 52.269531 121.953125 52.578125 121.6875 L 56.898438 117.9375 C 57.09375 117.761719 57.316406 117.628906 57.566406 117.542969 C 57.8125 117.457031 58.066406 117.417969 58.332031 117.433594 C 58.59375 117.449219 58.84375 117.515625 59.078125 117.632812 C 59.3125 117.75 59.519531 117.90625 59.691406 118.105469 C 59.863281 118.304688 59.988281 118.527344 60.070312 118.777344 C 60.152344 119.027344 60.183594 119.28125 60.164062 119.542969 C 60.140625 119.804688 60.070312 120.054688 59.949219 120.285156 C 59.828125 120.519531 59.667969 120.71875 59.464844 120.886719 L 55.144531 124.636719 C 54.777344 124.957031 54.351562 125.117188 53.863281 125.117188 Z M 53.863281 125.117188 " fill-opacity="1" fill-rule="nonzero"/><path fill="#669ed1" d="M 21.617188 119.820312 C 21.132812 119.820312 20.707031 119.664062 20.339844 119.347656 L 15.765625 115.414062 C 15.566406 115.246094 15.410156 115.046875 15.292969 114.816406 C 15.171875 114.582031 15.105469 114.335938 15.082031 114.078125 C 15.0625 113.820312 15.09375 113.566406 15.175781 113.316406 C 15.253906 113.070312 15.382812 112.847656 15.550781 112.652344 C 15.722656 112.453125 15.921875 112.296875 16.15625 112.179688 C 16.386719 112.0625 16.632812 111.996094 16.894531 111.976562 C 17.152344 111.957031 17.40625 111.992188 17.652344 112.074219 C 17.902344 112.15625 18.121094 112.28125 18.320312 112.453125 L 22.890625 116.386719 C 23.203125 116.652344 23.40625 116.980469 23.507812 117.378906 C 23.613281 117.773438 23.589844 118.164062 23.449219 118.546875 C 23.308594 118.929688 23.066406 119.238281 22.730469 119.46875 C 22.394531 119.703125 22.023438 119.820312 21.617188 119.820312 Z M 21.617188 119.820312 " fill-opacity="1" fill-rule="nonzero"/><path fill="#669ed1" d="M 59.996094 137.066406 C 59.957031 137.066406 59.921875 137.0625 59.886719 137.0625 L 54.089844 136.742188 C 53.832031 136.730469 53.585938 136.667969 53.351562 136.554688 C 53.117188 136.441406 52.914062 136.289062 52.742188 136.097656 C 52.570312 135.90625 52.4375 135.6875 52.355469 135.441406 C 52.269531 135.199219 52.230469 134.945312 52.246094 134.6875 C 52.257812 134.425781 52.316406 134.179688 52.429688 133.945312 C 52.539062 133.710938 52.691406 133.503906 52.886719 133.332031 C 53.082031 133.15625 53.300781 133.027344 53.546875 132.945312 C 53.792969 132.859375 54.046875 132.824219 54.304688 132.84375 L 60.101562 133.160156 C 60.355469 133.171875 60.597656 133.234375 60.832031 133.34375 C 61.0625 133.449219 61.265625 133.597656 61.4375 133.785156 C 61.609375 133.972656 61.742188 134.183594 61.832031 134.425781 C 61.921875 134.664062 61.964844 134.910156 61.957031 135.164062 C 61.949219 135.417969 61.894531 135.664062 61.792969 135.898438 C 61.6875 136.132812 61.546875 136.335938 61.363281 136.515625 C 61.179688 136.691406 60.96875 136.828125 60.734375 136.921875 C 60.496094 137.019531 60.25 137.066406 59.996094 137.066406 Z M 59.996094 137.066406 " fill-opacity="1" fill-rule="nonzero"/><path fill="#669ed1" d="M 53.480469 149.882812 C 52.9375 149.882812 52.476562 149.691406 52.09375 149.304688 L 48.421875 145.609375 C 48.238281 145.421875 48.101562 145.210938 48 144.972656 C 47.902344 144.734375 47.855469 144.484375 47.855469 144.226562 C 47.855469 143.964844 47.90625 143.71875 48.007812 143.476562 C 48.105469 143.238281 48.25 143.027344 48.433594 142.847656 C 48.617188 142.664062 48.828125 142.523438 49.070312 142.425781 C 49.308594 142.328125 49.558594 142.277344 49.816406 142.277344 C 50.074219 142.28125 50.324219 142.332031 50.5625 142.429688 C 50.804688 142.53125 51.015625 142.671875 51.195312 142.855469 L 54.867188 146.550781 C 55.148438 146.832031 55.324219 147.164062 55.402344 147.550781 C 55.476562 147.941406 55.441406 148.316406 55.289062 148.679688 C 55.136719 149.042969 54.898438 149.335938 54.566406 149.554688 C 54.238281 149.773438 53.878906 149.882812 53.480469 149.882812 Z M 53.480469 149.882812 " fill-opacity="1" fill-rule="nonzero"/><path fill="#669ed1" d="M 12.863281 143.207031 C 12.640625 143.207031 12.421875 143.167969 12.210938 143.09375 C 12.003906 143.019531 11.808594 142.914062 11.636719 142.773438 C 11.460938 142.632812 11.316406 142.46875 11.199219 142.277344 C 11.082031 142.089844 11 141.882812 10.953125 141.664062 C 10.90625 141.449219 10.894531 141.226562 10.921875 141.007812 C 10.949219 140.785156 11.015625 140.574219 11.117188 140.375 C 11.214844 140.175781 11.347656 140 11.507812 139.84375 C 11.667969 139.6875 11.851562 139.566406 12.054688 139.472656 L 17.265625 137.105469 C 17.5 137 17.746094 136.941406 18.007812 136.933594 C 18.265625 136.925781 18.515625 136.964844 18.757812 137.054688 C 19.003906 137.148438 19.21875 137.28125 19.40625 137.457031 C 19.597656 137.632812 19.746094 137.839844 19.851562 138.078125 C 19.960938 138.3125 20.019531 138.558594 20.027344 138.816406 C 20.035156 139.078125 19.996094 139.328125 19.90625 139.570312 C 19.8125 139.8125 19.679688 140.027344 19.503906 140.21875 C 19.328125 140.40625 19.121094 140.554688 18.882812 140.664062 L 13.671875 143.03125 C 13.417969 143.148438 13.144531 143.207031 12.863281 143.207031 Z M 12.863281 143.207031 " fill-opacity="1" fill-rule="nonzero"/><g clip-path="url(#c0d6fe0da2)"><path fill="#669ed1" d="M 17.761719 129.925781 C 17.726562 129.925781 17.6875 129.921875 17.652344 129.921875 L 11.277344 129.574219 C 11.019531 129.558594 10.773438 129.496094 10.539062 129.382812 C 10.304688 129.273438 10.101562 129.121094 9.929688 128.925781 C 9.753906 128.734375 9.625 128.515625 9.539062 128.269531 C 9.453125 128.027344 9.417969 127.773438 9.433594 127.515625 C 9.441406 127.253906 9.5 127.007812 9.609375 126.769531 C 9.71875 126.53125 9.871094 126.328125 10.066406 126.152344 C 10.261719 125.976562 10.480469 125.847656 10.730469 125.765625 C 10.976562 125.683594 11.230469 125.652344 11.492188 125.671875 L 17.867188 126.019531 C 18.121094 126.035156 18.363281 126.09375 18.59375 126.203125 C 18.824219 126.3125 19.027344 126.460938 19.199219 126.648438 C 19.371094 126.835938 19.5 127.046875 19.589844 127.285156 C 19.679688 127.523438 19.722656 127.769531 19.714844 128.023438 C 19.707031 128.277344 19.652344 128.523438 19.550781 128.753906 C 19.449219 128.988281 19.304688 129.191406 19.125 129.371094 C 18.941406 129.546875 18.730469 129.683594 18.496094 129.78125 C 18.261719 129.875 18.015625 129.925781 17.761719 129.925781 Z M 17.761719 129.925781 " fill-opacity="1" fill-rule="nonzero"/></g><path fill="#669ed1" d="M 25.1875 153.554688 C 25.015625 153.554688 24.847656 153.53125 24.683594 153.488281 C 24.515625 153.441406 24.359375 153.378906 24.210938 153.292969 C 24.0625 153.207031 23.929688 153.105469 23.808594 152.984375 C 23.6875 152.863281 23.582031 152.730469 23.496094 152.582031 C 23.410156 152.433594 23.34375 152.277344 23.300781 152.113281 C 23.253906 151.949219 23.234375 151.78125 23.230469 151.609375 C 23.230469 151.4375 23.253906 151.269531 23.296875 151.105469 C 23.339844 150.9375 23.402344 150.78125 23.488281 150.632812 L 25.632812 146.878906 C 25.757812 146.65625 25.925781 146.460938 26.132812 146.304688 C 26.335938 146.144531 26.5625 146.03125 26.8125 145.964844 C 27.0625 145.894531 27.316406 145.878906 27.574219 145.910156 C 27.832031 145.941406 28.074219 146.023438 28.296875 146.148438 C 28.523438 146.277344 28.714844 146.445312 28.875 146.648438 C 29.035156 146.855469 29.148438 147.082031 29.214844 147.332031 C 29.285156 147.582031 29.304688 147.832031 29.269531 148.089844 C 29.238281 148.347656 29.160156 148.589844 29.03125 148.8125 L 26.886719 152.566406 C 26.714844 152.871094 26.472656 153.113281 26.171875 153.289062 C 25.867188 153.464844 25.539062 153.554688 25.1875 153.554688 Z M 25.1875 153.554688 " fill-opacity="1" fill-rule="nonzero"/><path fill="#669ed1" d="M 30.242188 114.152344 C 30.007812 114.152344 29.777344 114.109375 29.558594 114.027344 C 29.339844 113.945312 29.140625 113.828125 28.964844 113.671875 C 28.785156 113.519531 28.640625 113.339844 28.527344 113.132812 C 28.414062 112.929688 28.34375 112.710938 28.308594 112.476562 L 27.605469 107.601562 C 27.566406 107.347656 27.582031 107.09375 27.648438 106.839844 C 27.710938 106.589844 27.820312 106.363281 27.976562 106.152344 C 28.132812 105.945312 28.320312 105.777344 28.542969 105.644531 C 28.769531 105.511719 29.007812 105.425781 29.265625 105.390625 C 29.519531 105.355469 29.773438 105.371094 30.023438 105.4375 C 30.273438 105.503906 30.503906 105.613281 30.710938 105.769531 C 30.917969 105.921875 31.085938 106.113281 31.21875 106.332031 C 31.351562 106.554688 31.441406 106.792969 31.480469 107.046875 L 32.183594 111.921875 C 32.222656 112.179688 32.207031 112.433594 32.144531 112.683594 C 32.078125 112.933594 31.96875 113.164062 31.8125 113.371094 C 31.65625 113.578125 31.46875 113.75 31.246094 113.882812 C 31.023438 114.011719 30.78125 114.097656 30.523438 114.136719 C 30.429688 114.148438 30.335938 114.152344 30.242188 114.152344 Z M 30.242188 114.152344 " fill-opacity="1" fill-rule="nonzero"/><path fill="#669ed1" d="M 46.917969 116.195312 C 46.75 116.195312 46.585938 116.175781 46.425781 116.132812 C 46.261719 116.089844 46.109375 116.03125 45.964844 115.949219 C 45.816406 115.867188 45.683594 115.769531 45.5625 115.652344 C 45.445312 115.539062 45.339844 115.410156 45.253906 115.265625 C 45.164062 115.125 45.097656 114.976562 45.046875 114.816406 C 45 114.65625 44.96875 114.492188 44.964844 114.324219 C 44.957031 114.160156 44.96875 113.996094 45.003906 113.832031 C 45.039062 113.667969 45.097656 113.511719 45.171875 113.363281 L 47.234375 109.269531 C 47.347656 109.035156 47.503906 108.832031 47.699219 108.660156 C 47.894531 108.488281 48.117188 108.359375 48.363281 108.273438 C 48.613281 108.191406 48.867188 108.160156 49.128906 108.175781 C 49.390625 108.195312 49.636719 108.261719 49.871094 108.378906 C 50.101562 108.496094 50.304688 108.65625 50.476562 108.855469 C 50.644531 109.050781 50.769531 109.277344 50.851562 109.523438 C 50.929688 109.773438 50.960938 110.027344 50.9375 110.289062 C 50.917969 110.546875 50.84375 110.792969 50.726562 111.027344 L 48.664062 115.121094 C 48.5 115.449219 48.261719 115.710938 47.945312 115.90625 C 47.628906 116.101562 47.289062 116.195312 46.917969 116.195312 Z M 46.917969 116.195312 " fill-opacity="1" fill-rule="nonzero"/><path fill="#c2e4ff" d="M 206.347656 277.371094 C 210.402344 277.363281 213.691406 279.628906 213.699219 282.429688 C 213.703125 285.230469 210.417969 287.503906 206.367188 287.515625 C 202.3125 287.523438 199.023438 285.257812 199.015625 282.453125 C 199.007812 279.652344 202.292969 277.375 206.347656 277.371094 Z M 206.347656 277.371094 " fill-opacity="1" fill-rule="nonzero"/><path fill="#e2e2e2" d="M 64.496094 178.722656 C 64.242188 178.722656 64.011719 178.648438 63.808594 178.5 C 63.601562 178.351562 63.460938 178.160156 63.382812 177.917969 C 61.925781 173.5625 62.90625 167.589844 65.695312 163.714844 C 67.523438 161.1875 69.980469 159.796875 72.613281 159.796875 C 73.941406 159.792969 75.242188 159.972656 76.519531 160.335938 C 76.667969 160.378906 76.804688 160.449219 76.925781 160.546875 C 77.046875 160.644531 77.144531 160.761719 77.21875 160.898438 C 77.296875 161.035156 77.339844 161.183594 77.359375 161.335938 C 77.375 161.492188 77.359375 161.644531 77.316406 161.792969 C 77.277344 161.945312 77.207031 162.082031 77.109375 162.203125 C 77.011719 162.328125 76.894531 162.425781 76.757812 162.5 C 76.621094 162.574219 76.476562 162.621094 76.320312 162.636719 C 76.164062 162.652344 76.011719 162.636719 75.863281 162.59375 C 74.800781 162.289062 73.71875 162.136719 72.613281 162.144531 C 70.226562 162.144531 68.574219 163.746094 67.601562 165.089844 C 65.253906 168.34375 64.394531 173.542969 65.605469 177.179688 C 65.652344 177.328125 65.671875 177.480469 65.664062 177.632812 C 65.652344 177.789062 65.613281 177.9375 65.542969 178.074219 C 65.472656 178.214844 65.378906 178.335938 65.261719 178.4375 C 65.144531 178.539062 65.011719 178.613281 64.863281 178.664062 C 64.742188 178.703125 64.621094 178.722656 64.496094 178.722656 Z M 64.496094 178.722656 " fill-opacity="1" fill-rule="nonzero"/><path fill="#669ed1" d="M 150.890625 294.21875 C 81.089844 273.136719 52.136719 187.777344 64.140625 177.195312 C 76.148438 166.613281 114.984375 193.421875 138.992188 198.359375 C 163.003906 203.296875 175.007812 192.011719 178.539062 187.070312 Z M 150.890625 294.21875 " fill-opacity="1" fill-rule="nonzero"/><path fill="#c2e4ff" d="M 103.894531 239.226562 C 106.332031 243.085938 106.660156 247.25 104.625 248.53125 C 102.59375 249.8125 98.96875 247.722656 96.53125 243.863281 C 94.097656 240.003906 93.769531 235.835938 95.804688 234.554688 C 97.835938 233.273438 101.460938 235.367188 103.894531 239.226562 Z M 103.894531 239.226562 " fill-opacity="1" fill-rule="nonzero"/><path fill="#c2e4ff" d="M 120.179688 237.417969 C 123.246094 239.53125 124.628906 242.847656 123.265625 244.824219 C 121.898438 246.796875 118.304688 246.6875 115.238281 244.578125 C 112.171875 242.464844 110.789062 239.148438 112.152344 237.167969 C 113.515625 235.191406 117.109375 235.304688 120.179688 237.417969 Z M 120.179688 237.417969 " fill-opacity="1" fill-rule="nonzero"/><path fill="#c2e4ff" d="M 122.75 256.742188 C 126.410156 260.398438 127.484375 265.246094 125.15625 267.574219 C 122.828125 269.902344 117.972656 268.824219 114.316406 265.171875 C 110.660156 261.515625 109.582031 256.667969 111.910156 254.339844 C 114.238281 252.011719 119.09375 253.089844 122.75 256.742188 Z M 122.75 256.742188 " fill-opacity="1" fill-rule="nonzero"/><path fill="#c2e4ff" d="M 275.941406 134.457031 C 278.753906 138.054688 279.5 142.164062 277.609375 143.644531 C 275.714844 145.125 271.898438 143.410156 269.085938 139.816406 C 266.269531 136.222656 265.523438 132.109375 267.417969 130.632812 C 269.3125 129.152344 273.128906 130.863281 275.941406 134.457031 Z M 275.941406 134.457031 " fill-opacity="1" fill-rule="nonzero"/><path fill="#c2e4ff" d="M 191.683594 103.902344 C 196.214844 104.464844 199.648438 106.855469 199.351562 109.238281 C 199.054688 111.621094 195.136719 113.09375 190.605469 112.53125 C 186.074219 111.96875 182.640625 109.578125 182.941406 107.195312 C 183.238281 104.808594 187.148438 103.339844 191.683594 103.902344 Z M 191.683594 103.902344 " fill-opacity="1" fill-rule="nonzero"/><path fill="#c2e4ff" d="M 181.40625 277.371094 C 185.976562 277.363281 189.679688 279.941406 189.6875 283.132812 C 189.695312 286.324219 185.996094 288.917969 181.429688 288.925781 C 176.867188 288.933594 173.15625 286.355469 173.152344 283.164062 C 173.144531 279.972656 176.839844 277.378906 181.40625 277.371094 Z M 181.40625 277.371094 " fill-opacity="1" fill-rule="nonzero"/><path fill="#c2e4ff" d="M 293.59375 152.800781 C 295.878906 155.71875 296.375 159.148438 294.695312 160.460938 C 293.019531 161.769531 289.804688 160.46875 287.519531 157.546875 C 285.234375 154.625 284.742188 151.195312 286.417969 149.886719 C 288.09375 148.574219 291.308594 149.882812 293.59375 152.800781 Z M 293.59375 152.800781 " fill-opacity="1" fill-rule="nonzero"/><path fill="#c2e4ff" d="M 276.085938 151.121094 C 277.949219 153.503906 278.105469 156.488281 276.4375 157.796875 C 274.769531 159.101562 271.902344 158.230469 270.039062 155.847656 C 268.175781 153.46875 268.019531 150.480469 269.6875 149.175781 C 271.359375 147.871094 274.222656 148.742188 276.085938 151.121094 Z M 276.085938 151.121094 " fill-opacity="1" fill-rule="nonzero"/><path fill="#c2e4ff" d="M 208.75 115.308594 C 211.734375 115.800781 213.871094 117.898438 213.527344 119.984375 C 213.183594 122.074219 210.480469 123.371094 207.496094 122.878906 C 204.511719 122.386719 202.375 120.292969 202.71875 118.203125 C 203.066406 116.113281 205.765625 114.816406 208.75 115.308594 Z M 208.75 115.308594 " fill-opacity="1" fill-rule="nonzero"/><path fill="#c2e4ff" d="M 191.519531 262.554688 C 194.449219 262.546875 196.824219 264.183594 196.828125 266.207031 C 196.832031 268.226562 194.460938 269.875 191.535156 269.878906 C 188.609375 269.882812 186.230469 268.246094 186.226562 266.226562 C 186.222656 264.203125 188.59375 262.558594 191.519531 262.554688 Z M 191.519531 262.554688 " fill-opacity="1" fill-rule="nonzero"/><path fill="#c2e4ff" d="M 166.09375 259.03125 C 170.230469 259.023438 173.585938 261.625 173.59375 264.84375 C 173.597656 268.0625 170.25 270.679688 166.117188 270.683594 C 161.980469 270.691406 158.621094 268.089844 158.617188 264.871094 C 158.613281 261.652344 161.960938 259.035156 166.09375 259.03125 Z M 166.09375 259.03125 " fill-opacity="1" fill-rule="nonzero"/><path fill="#c2e4ff" d="M 150.421875 201.144531 C 146.464844 201.125 142.546875 200.703125 138.675781 199.886719 C 129.507812 198.003906 118.210938 192.984375 107.285156 188.132812 C 89.90625 180.40625 71.933594 172.417969 65.179688 178.367188 C 65.023438 178.507812 64.847656 178.613281 64.648438 178.679688 C 64.453125 178.75 64.25 178.777344 64.042969 178.765625 C 63.832031 178.753906 63.636719 178.703125 63.449219 178.609375 C 63.261719 178.519531 63.097656 178.394531 62.960938 178.238281 C 62.820312 178.082031 62.71875 177.90625 62.652344 177.710938 C 62.585938 177.511719 62.558594 177.308594 62.570312 177.101562 C 62.585938 176.894531 62.640625 176.695312 62.730469 176.507812 C 62.824219 176.324219 62.949219 176.160156 63.109375 176.023438 C 71.363281 168.746094 89.4375 176.777344 108.558594 185.273438 C 119.332031 190.058594 130.46875 195.011719 139.3125 196.828125 C 144.191406 197.878906 149.121094 198.226562 154.101562 197.871094 C 168.699219 196.648438 175.519531 188.601562 177.265625 186.164062 C 177.382812 185.992188 177.53125 185.847656 177.707031 185.734375 C 177.886719 185.621094 178.078125 185.546875 178.285156 185.511719 C 178.488281 185.476562 178.695312 185.480469 178.898438 185.527344 C 179.105469 185.574219 179.289062 185.660156 179.460938 185.78125 C 179.632812 185.902344 179.773438 186.050781 179.882812 186.230469 C 179.992188 186.40625 180.0625 186.601562 180.097656 186.808594 C 180.128906 187.011719 180.121094 187.21875 180.070312 187.421875 C 180.023438 187.625 179.933594 187.8125 179.808594 187.980469 C 177.871094 190.691406 170.300781 199.648438 154.363281 200.984375 C 153.074219 201.089844 151.757812 201.144531 150.421875 201.144531 Z M 150.421875 201.144531 " fill-opacity="1" fill-rule="nonzero"/><path fill="#669ed1" d="M 41.324219 130.925781 C 41.324219 131.277344 41.289062 131.628906 41.21875 131.972656 C 41.152344 132.320312 41.050781 132.65625 40.914062 132.980469 C 40.78125 133.304688 40.613281 133.613281 40.417969 133.90625 C 40.222656 134.199219 40 134.472656 39.75 134.71875 C 39.5 134.96875 39.230469 135.191406 38.9375 135.386719 C 38.644531 135.582031 38.332031 135.75 38.007812 135.882812 C 37.683594 136.019531 37.347656 136.121094 37 136.1875 C 36.652344 136.257812 36.304688 136.292969 35.953125 136.292969 C 35.597656 136.292969 35.25 136.257812 34.902344 136.1875 C 34.558594 136.121094 34.222656 136.019531 33.898438 135.882812 C 33.570312 135.75 33.261719 135.582031 32.96875 135.386719 C 32.675781 135.191406 32.402344 134.96875 32.152344 134.71875 C 31.90625 134.472656 31.683594 134.199219 31.484375 133.90625 C 31.289062 133.613281 31.125 133.304688 30.988281 132.980469 C 30.855469 132.65625 30.753906 132.320312 30.683594 131.972656 C 30.617188 131.628906 30.582031 131.277344 30.582031 130.925781 C 30.582031 130.574219 30.617188 130.226562 30.683594 129.878906 C 30.753906 129.535156 30.855469 129.199219 30.988281 128.871094 C 31.125 128.546875 31.289062 128.238281 31.484375 127.945312 C 31.683594 127.652344 31.90625 127.382812 32.152344 127.132812 C 32.402344 126.882812 32.675781 126.660156 32.96875 126.464844 C 33.261719 126.269531 33.570312 126.105469 33.898438 125.96875 C 34.222656 125.832031 34.558594 125.730469 34.902344 125.664062 C 35.25 125.59375 35.597656 125.558594 35.953125 125.558594 C 36.304688 125.558594 36.652344 125.59375 37 125.664062 C 37.347656 125.730469 37.683594 125.832031 38.007812 125.96875 C 38.332031 126.105469 38.644531 126.269531 38.9375 126.464844 C 39.230469 126.660156 39.5 126.882812 39.75 127.132812 C 40 127.382812 40.222656 127.652344 40.417969 127.945312 C 40.613281 128.238281 40.78125 128.546875 40.914062 128.871094 C 41.050781 129.199219 41.152344 129.535156 41.21875 129.878906 C 41.289062 130.226562 41.324219 130.574219 41.324219 130.925781 Z M 41.324219 130.925781 " fill-opacity="1" fill-rule="nonzero"/></svg>