<svg width="50" height="50" viewBox="0 0 50 50" fill="none" xmlns="http://www.w3.org/2000/svg">
<g clip-path="url(#clip0_1663_892)">
<path fill-rule="evenodd" clip-rule="evenodd" d="M24.5816 0.0077863C28.3892 -0.0665377 32.1479 0.87522 35.4706 2.73611C38.7934 4.597 41.5602 7.30978 43.4863 10.5952C45.412 13.8806 46.4277 17.62 46.4284 21.4283V35.7143C46.4284 37.135 45.8641 38.4979 44.8595 39.5025C43.8549 40.5071 42.492 41.0714 41.0713 41.0714H35.7141V48.2143C35.7141 49.2007 34.9146 50 33.9284 50H16.0713C15.0851 50 14.2856 49.2007 14.2856 48.2143V39.99C11.3174 38.2764 8.79846 35.8725 6.94632 32.9758C4.89478 29.7673 3.73536 26.07 3.58746 22.2645C3.43954 18.4591 4.30846 14.683 6.10478 11.3249C7.90111 7.96678 10.5599 5.14811 13.8075 3.15897C17.055 1.16983 20.774 0.0821102 24.5816 0.0077863ZM12.7125 25.749C10.5687 19.7479 12.9465 12.8876 18.6617 9.58789C24.3042 6.33025 31.3257 7.62496 35.4733 12.3325C36.5238 13.525 36.2795 15.3052 35.1003 16.3704C30.6489 20.3912 23.3218 25.5482 16.1254 27.4546C14.7031 27.8314 13.2075 27.1346 12.7125 25.749Z" fill="black"/>
</g>
<defs>
<clipPath id="clip0_1663_892">
<rect width="50" height="50" fill="white"/>
</clipPath>
</defs>
</svg>
