<svg width="50" height="50" viewBox="0 0 50 50" fill="none" xmlns="http://www.w3.org/2000/svg">
<path d="M20.8333 27.0833C21.728 28.2794 22.8694 29.2691 24.1802 29.9853C25.4911 30.7015 26.9406 31.1273 28.4305 31.234C29.9203 31.3407 31.4157 31.1258 32.8152 30.6037C34.2147 30.0817 35.4856 29.2647 36.5416 28.2083L42.7916 21.9583C44.6891 19.9937 45.739 17.3625 45.7153 14.6312C45.6916 11.9 44.596 9.28739 42.6647 7.35606C40.7334 5.42472 38.1207 4.32921 35.3895 4.30548C32.6583 4.28174 30.027 5.33169 28.0624 7.22917L24.4791 10.7917M29.1666 22.9167C28.2719 21.7206 27.1304 20.7309 25.8196 20.0147C24.5088 19.2985 23.0593 18.8727 21.5694 18.766C20.0795 18.6593 18.5841 18.8742 17.1846 19.3963C15.7851 19.9183 14.5143 20.7353 13.4583 21.7917L7.20826 28.0417C5.31078 30.0063 4.26084 32.6375 4.28457 35.3688C4.30831 38.1 5.40382 40.7126 7.33515 42.6439C9.26649 44.5753 11.8791 45.6708 14.6103 45.6945C17.3415 45.7183 19.9728 44.6683 21.9374 42.7708L25.4999 39.2083" stroke="#1E1E1E" stroke-width="4" stroke-linecap="round" stroke-linejoin="round"/>
</svg>
