<svg width="38" height="62" viewBox="0 0 38 62" fill="none" xmlns="http://www.w3.org/2000/svg">
<path d="M3.7955 61.9773L11.75 21.9205L6.63641 23.9091V33.5682H0.95459V20.2159L15.3012 14.108C15.9641 13.8239 16.6624 13.6581 17.3964 13.6108C18.1303 13.5634 18.8286 13.6581 19.4915 13.8949C20.1544 14.1316 20.7818 14.4631 21.3736 14.8892C21.9655 15.3153 22.4508 15.8598 22.8296 16.5227L25.6705 21.0682C26.9016 23.0568 28.5706 24.6903 30.6776 25.9687C32.7846 27.2472 35.1875 27.8864 37.8864 27.8864V33.5682C34.572 33.5682 31.6127 32.8816 29.0086 31.5085C26.4044 30.1354 24.179 28.3835 22.3324 26.2528L20.5569 34.9886L26.5228 40.6705V61.9773H20.841V43.5114L14.875 38.9659L9.76141 61.9773H3.7955ZM22.2614 12.2614C20.6989 12.2614 19.3613 11.705 18.2486 10.5923C17.1359 9.47964 16.5796 8.14205 16.5796 6.57955C16.5796 5.01705 17.1359 3.67945 18.2486 2.56676C19.3613 1.45407 20.6989 0.897728 22.2614 0.897728C23.8239 0.897728 25.1615 1.45407 26.2742 2.56676C27.3869 3.67945 27.9432 5.01705 27.9432 6.57955C27.9432 8.14205 27.3869 9.47964 26.2742 10.5923C25.1615 11.705 23.8239 12.2614 22.2614 12.2614Z" fill="#1D1B20"/>
</svg>
