<svg xmlns="http://www.w3.org/2000/svg" xmlns:xlink="http://www.w3.org/1999/xlink" width="500" zoomAndPan="magnify" viewBox="0 0 375 374.999991" height="500" preserveAspectRatio="xMidYMid meet" version="1.0"><defs><clipPath id="69326faf49"><path d="M 61 59.582031 L 313 59.582031 L 313 177 L 61 177 Z M 61 59.582031 " clip-rule="nonzero"/></clipPath><clipPath id="0290faa72a"><path d="M 85 211 L 296 211 L 296 315.332031 L 85 315.332031 Z M 85 211 " clip-rule="nonzero"/></clipPath><clipPath id="1d4a4197ae"><path d="M 1.0625 165 L 95 165 L 95 226 L 1.0625 226 Z M 1.0625 165 " clip-rule="nonzero"/></clipPath></defs><path fill="#f58921" d="M 292.539062 185.164062 C 294.710938 233.796875 249.804688 275.296875 192.246094 277.859375 C 134.683594 280.421875 86.261719 243.074219 84.09375 194.441406 C 81.925781 145.8125 126.828125 104.308594 184.386719 101.75 C 241.949219 99.183594 290.371094 136.53125 292.539062 185.164062 " fill-opacity="1" fill-rule="nonzero"/><g clip-path="url(#69326faf49)"><path fill="#f58921" d="M 85.058594 176.3125 C 85.058594 176.3125 91.800781 163.359375 85.246094 154.011719 C 78.128906 143.855469 61.9375 137.878906 61.9375 137.878906 C 61.9375 137.878906 90.757812 143.902344 97.15625 135.164062 C 104.898438 124.585938 87.871094 106.042969 87.871094 106.042969 C 87.871094 106.042969 107.363281 123.144531 115.246094 115.777344 C 122.230469 109.246094 116.230469 92.917969 116.230469 92.917969 C 116.230469 92.917969 126.753906 111.613281 137.601562 105.390625 C 146.703125 100.167969 140.03125 71.777344 140.03125 71.777344 C 140.03125 71.777344 147.660156 97.90625 160.304688 96.484375 C 171.320312 95.242188 172.425781 76.722656 172.425781 76.722656 C 172.425781 76.722656 173.394531 95.792969 192.476562 91.867188 C 207.003906 88.878906 209.128906 59.578125 209.128906 59.578125 C 209.128906 59.578125 207.515625 92.5 222.789062 98.339844 C 230.492188 101.285156 248.136719 85.21875 248.136719 85.21875 C 248.136719 85.21875 240.101562 106.042969 250.871094 113.390625 C 259.285156 119.125 288.613281 97.109375 288.613281 97.109375 C 288.613281 97.109375 262.398438 118.4375 270.621094 127.199219 C 275.644531 132.550781 294.367188 126.972656 294.367188 126.972656 C 294.367188 126.972656 278.398438 141.109375 281.839844 149.171875 C 286.210938 159.410156 312.652344 147.734375 312.652344 147.734375 C 312.652344 147.734375 292.015625 157.863281 292.914062 163.355469 C 293.8125 168.847656 303.671875 170.367188 303.671875 170.367188 L 287.613281 176.824219 C 287.613281 176.824219 229.078125 151.519531 182.597656 154.140625 C 142.839844 156.382812 85.058594 176.3125 85.058594 176.3125 " fill-opacity="1" fill-rule="nonzero"/></g><path fill="#f5c880" d="M 286.511719 218.789062 C 285.796875 235.179688 245.511719 275.226562 192.25 277.597656 C 148.421875 279.546875 103.117188 258.054688 93.28125 227.386719 C 84.117188 198.800781 129.375 161.136719 186.9375 158.574219 C 244.5 156.011719 287.703125 191.472656 286.511719 218.789062 " fill-opacity="1" fill-rule="nonzero"/><g clip-path="url(#0290faa72a)"><path fill="#f5c880" d="M 102.289062 226.660156 C 102.289062 226.660156 108.917969 237.023438 104.121094 245.363281 C 98.90625 254.414062 85.773438 260.636719 85.773438 260.636719 C 85.773438 260.636719 109.503906 253.425781 115.527344 260.28125 C 122.816406 268.578125 109.917969 285.410156 109.917969 285.410156 C 109.917969 285.410156 124.996094 269.601562 132.160156 275.191406 C 138.511719 280.148438 134.699219 294.300781 134.699219 294.300781 C 134.699219 294.300781 142.128906 277.824219 151.695312 282.234375 C 159.726562 285.9375 156.253906 310.257812 156.253906 310.257812 C 156.253906 310.257812 160.695312 287.761719 171.410156 288.011719 C 180.75 288.226562 183.066406 303.679688 183.066406 303.679688 C 183.066406 303.679688 182.445312 287.609375 198.75 289.476562 C 211.164062 290.898438 215.144531 315.324219 215.144531 315.324219 C 215.144531 315.324219 211.324219 287.820312 223.699219 281.777344 C 229.941406 278.730469 245.953125 290.886719 245.953125 290.886719 C 245.953125 290.886719 237.648438 274.015625 246.136719 267.046875 C 252.765625 261.605469 279.023438 277.882812 279.023438 277.882812 C 279.023438 277.882812 255.425781 261.949219 261.667969 253.984375 C 265.484375 249.117188 281.609375 252.394531 281.609375 252.394531 C 281.609375 252.394531 267.148438 241.726562 269.433594 234.707031 C 272.335938 225.792969 295.398438 233.609375 295.398438 233.609375 C 295.398438 233.609375 277.324219 226.648438 277.664062 221.976562 C 278.003906 217.304688 286.164062 215.292969 286.164062 215.292969 L 272.207031 211.074219 C 272.207031 211.074219 224.988281 236.6875 185.792969 237.964844 C 152.265625 239.058594 102.289062 226.660156 102.289062 226.660156 " fill-opacity="1" fill-rule="nonzero"/></g><path fill="#f5d699" d="M 194.917969 163.101562 C 192.253906 163.101562 189.554688 163.160156 186.835938 163.28125 C 138.460938 165.433594 100.097656 186.285156 101.148438 209.847656 C 101.417969 215.894531 104.289062 222.230469 109.226562 228.273438 C 123.300781 231.410156 156.027344 238.035156 181.46875 238.035156 C 182.933594 238.035156 184.382812 238.011719 185.796875 237.964844 C 224.988281 236.6875 272.207031 211.074219 272.207031 211.074219 L 274.730469 211.835938 C 275.914062 208.492188 276.46875 205.203125 276.328125 202.054688 C 275.335938 179.808594 239.597656 163.101562 194.917969 163.101562 " fill-opacity="1" fill-rule="nonzero"/><path fill="#f5d699" d="M 272.207031 211.074219 C 272.207031 211.074219 224.984375 236.6875 185.792969 237.964844 C 184.378906 238.011719 182.933594 238.035156 181.464844 238.035156 C 156.027344 238.035156 123.296875 231.410156 109.226562 228.273438 C 122.820312 244.90625 152.078125 259.296875 185.839844 259.296875 C 187.582031 259.296875 189.347656 259.257812 191.113281 259.179688 C 233.015625 257.316406 267.054688 233.492188 274.726562 211.835938 L 272.207031 211.074219 " fill-opacity="1" fill-rule="nonzero"/><path fill="#f58921" d="M 120.976562 225.019531 C 121.230469 225.789062 121.433594 226.566406 121.628906 227.34375 C 121.828125 228.117188 122.003906 228.890625 122.171875 229.667969 C 122.332031 230.441406 122.476562 231.230469 122.609375 232.015625 C 122.683594 232.40625 122.71875 232.8125 122.773438 233.210938 C 122.828125 233.609375 122.871094 234.011719 122.914062 234.414062 C 122.984375 235.222656 123.007812 236.046875 123.042969 236.863281 C 123.042969 237.277344 123.019531 237.691406 123 238.105469 C 122.980469 238.519531 122.972656 238.9375 122.941406 239.351562 L 122.765625 240.589844 C 122.703125 241.003906 122.664062 241.421875 122.574219 241.832031 C 122.371094 242.640625 122.1875 243.457031 121.964844 244.261719 L 118.492188 242.914062 L 119.097656 241.804688 C 119.320312 241.445312 119.566406 241.097656 119.8125 240.753906 C 120.070312 240.414062 120.355469 240.09375 120.628906 239.769531 C 120.921875 239.457031 121.242188 239.167969 121.554688 238.875 C 121.886719 238.609375 122.222656 238.34375 122.566406 238.089844 C 122.925781 237.867188 123.285156 237.632812 123.652344 237.433594 C 124.03125 237.25 124.398438 237.042969 124.789062 236.898438 C 125.179688 236.757812 125.558594 236.585938 125.953125 236.480469 C 126.347656 236.378906 126.738281 236.253906 127.132812 236.1875 C 127.527344 236.109375 127.921875 236.023438 128.316406 235.992188 C 128.710938 235.953125 129.101562 235.894531 129.496094 235.890625 C 129.886719 235.882812 130.277344 235.851562 130.664062 235.875 C 131.054688 235.898438 131.4375 235.890625 131.820312 235.941406 C 132.203125 235.984375 132.585938 236.007812 132.960938 236.078125 C 133.339844 236.144531 133.714844 236.199219 134.089844 236.277344 C 134.460938 236.367188 134.832031 236.449219 135.199219 236.554688 C 134.828125 236.660156 134.460938 236.734375 134.09375 236.824219 L 133.007812 237.085938 L 131.9375 237.363281 C 131.585938 237.449219 131.238281 237.558594 130.890625 237.65625 C 130.203125 237.855469 129.53125 238.082031 128.882812 238.332031 C 128.554688 238.445312 128.25 238.601562 127.933594 238.726562 C 127.613281 238.847656 127.328125 239.027344 127.027344 239.167969 C 126.722656 239.304688 126.457031 239.5 126.171875 239.65625 C 125.890625 239.824219 125.640625 240.023438 125.371094 240.195312 C 125.113281 240.382812 124.878906 240.597656 124.636719 240.789062 L 123.957031 241.433594 L 123.347656 242.136719 C 123.164062 242.390625 122.96875 242.628906 122.792969 242.886719 C 122.636719 243.160156 122.464844 243.417969 122.300781 243.6875 L 121.859375 244.53125 L 114.945312 257.753906 L 118.386719 243.183594 C 118.554688 242.46875 118.761719 241.761719 118.949219 241.050781 L 119.382812 238.890625 L 119.707031 236.691406 L 119.8125 235.566406 C 119.84375 235.1875 119.90625 234.816406 119.929688 234.433594 C 119.972656 233.667969 120.054688 232.902344 120.105469 232.125 C 120.15625 231.34375 120.226562 230.566406 120.296875 229.773438 L 120.417969 228.585938 C 120.46875 228.1875 120.5 227.789062 120.566406 227.394531 C 120.683594 226.605469 120.804688 225.8125 120.976562 225.019531 " fill-opacity="1" fill-rule="nonzero"/><path fill="#f58921" d="M 169.636719 260.863281 C 170.039062 260.914062 170.421875 261.003906 170.8125 261.074219 C 171.199219 261.175781 171.582031 261.285156 171.96875 261.402344 C 172.34375 261.53125 172.714844 261.671875 173.085938 261.8125 C 173.445312 261.972656 173.816406 262.125 174.171875 262.300781 C 174.523438 262.480469 174.882812 262.65625 175.226562 262.851562 C 175.566406 263.054688 175.910156 263.253906 176.246094 263.464844 L 177.230469 264.136719 L 178.175781 264.863281 C 178.796875 265.359375 179.378906 265.902344 179.953125 266.453125 L 180.777344 267.3125 C 181.042969 267.605469 181.300781 267.90625 181.5625 268.210938 L 182.300781 269.140625 L 182.996094 270.105469 C 183.4375 270.761719 183.859375 271.429688 184.25 272.121094 L 179.398438 272.757812 C 179.652344 271.925781 179.941406 271.273438 180.246094 270.621094 C 180.542969 269.976562 180.886719 269.375 181.210938 268.777344 C 181.542969 268.183594 181.910156 267.613281 182.261719 267.042969 C 182.636719 266.480469 183.003906 265.917969 183.398438 265.378906 C 183.785156 264.832031 184.1875 264.292969 184.601562 263.769531 C 185.015625 263.242188 185.4375 262.722656 185.878906 262.210938 C 186.3125 261.703125 186.765625 261.199219 187.222656 260.703125 L 187.90625 259.957031 C 188.023438 259.832031 188.136719 259.707031 188.238281 259.582031 C 188.289062 259.519531 188.335938 259.449219 188.371094 259.394531 L 188.410156 259.351562 L 188.300781 259.347656 C 188.332031 259.3125 188.351562 259.269531 188.417969 259.253906 C 188.511719 259.234375 188.566406 259.355469 188.570312 259.398438 C 188.601562 259.503906 188.601562 259.597656 188.605469 259.691406 C 188.609375 259.878906 188.601562 260.058594 188.59375 260.238281 C 188.566406 260.597656 188.523438 260.949219 188.46875 261.292969 C 188.363281 261.984375 188.222656 262.65625 188.0625 263.316406 C 187.910156 263.980469 187.730469 264.628906 187.546875 265.273438 C 187.363281 265.917969 187.164062 266.550781 186.957031 267.179688 C 186.757812 267.808594 186.53125 268.421875 186.324219 269.039062 L 185.664062 270.855469 C 185.433594 271.449219 185.230469 272.046875 185.023438 272.617188 C 184.824219 273.179688 184.628906 273.75 184.523438 274.183594 L 183.03125 280.109375 L 179.667969 274.820312 L 178.554688 273.066406 L 177.410156 271.332031 C 177.214844 271.046875 177.015625 270.761719 176.828125 270.46875 L 176.234375 269.617188 C 176.027344 269.335938 175.832031 269.042969 175.632812 268.757812 C 175.421875 268.476562 175.214844 268.199219 175.015625 267.90625 L 173.75 266.199219 L 172.4375 264.472656 C 172.207031 264.191406 171.988281 263.894531 171.757812 263.601562 C 171.527344 263.3125 171.292969 263.019531 171.0625 262.714844 C 170.828125 262.425781 170.59375 262.125 170.359375 261.8125 C 170.121094 261.5 169.867188 261.199219 169.636719 260.863281 " fill-opacity="1" fill-rule="nonzero"/><path fill="#f58921" d="M 246.976562 221.707031 C 247.660156 221.574219 248.332031 221.496094 249.007812 221.421875 C 249.347656 221.394531 249.695312 221.410156 250.046875 221.40625 L 251.105469 221.429688 C 251.453125 221.460938 251.792969 221.515625 252.144531 221.554688 L 253.1875 221.714844 C 253.53125 221.785156 253.867188 221.886719 254.207031 221.976562 C 254.550781 222.070312 254.894531 222.160156 255.234375 222.261719 C 255.894531 222.519531 256.554688 222.785156 257.210938 223.070312 C 257.523438 223.238281 257.839844 223.40625 258.148438 223.582031 C 258.460938 223.761719 258.777344 223.929688 259.082031 224.113281 C 259.664062 224.523438 260.246094 224.941406 260.820312 225.367188 L 262.40625 226.796875 L 259.589844 229.242188 L 258.976562 228.375 C 258.789062 228.074219 258.597656 227.777344 258.417969 227.46875 L 257.917969 226.527344 C 257.761719 226.207031 257.621094 225.878906 257.480469 225.550781 C 257.351562 225.222656 257.234375 224.882812 257.109375 224.546875 C 256.996094 224.210938 256.910156 223.859375 256.816406 223.515625 C 256.734375 223.167969 256.660156 222.816406 256.59375 222.464844 C 256.542969 222.109375 256.503906 221.753906 256.464844 221.402344 C 256.433594 221.046875 256.433594 220.683594 256.421875 220.332031 C 256.429688 219.972656 256.445312 219.617188 256.46875 219.261719 C 256.515625 218.90625 256.554688 218.558594 256.613281 218.210938 C 256.695312 217.863281 256.765625 217.519531 256.855469 217.179688 C 256.972656 216.847656 257.074219 216.515625 257.199219 216.191406 C 257.347656 215.871094 257.480469 215.554688 257.644531 215.25 C 257.820312 214.953125 257.988281 214.660156 258.171875 214.375 C 258.382812 214.101562 258.578125 213.828125 258.800781 213.574219 C 258.777344 213.917969 258.730469 214.242188 258.695312 214.566406 L 258.632812 215.53125 L 258.625 216.472656 L 258.671875 217.390625 L 258.765625 218.292969 L 258.910156 219.171875 C 258.980469 219.460938 259.039062 219.746094 259.101562 220.03125 L 259.34375 220.875 L 259.625 221.699219 L 259.941406 222.503906 L 260.300781 223.292969 L 260.691406 224.066406 C 260.839844 224.316406 260.972656 224.574219 261.117188 224.824219 L 261.574219 225.5625 C 261.742188 225.800781 261.894531 226.046875 262.054688 226.289062 L 262.574219 226.988281 L 259.757812 229.4375 L 258.425781 228.191406 C 257.96875 227.796875 257.492188 227.421875 257.03125 227.023438 C 256.550781 226.660156 256.046875 226.324219 255.566406 225.941406 C 255.050781 225.625 254.535156 225.296875 254.019531 224.953125 C 253.476562 224.667969 252.933594 224.355469 252.386719 224.050781 L 251.53125 223.644531 C 251.246094 223.507812 250.957031 223.355469 250.667969 223.222656 C 250.085938 222.984375 249.496094 222.730469 248.886719 222.457031 C 248.246094 222.226562 247.609375 221.992188 246.976562 221.707031 " fill-opacity="1" fill-rule="nonzero"/><path fill="#d15123" d="M 296.816406 213.519531 C 325.21875 229 357.039062 211.738281 375.238281 188.015625 C 367.710938 197.335938 347.625 190.863281 352.890625 176.902344 C 342.363281 190.878906 328.480469 181.796875 333.957031 168.609375 C 333.957031 168.609375 332.8125 175.847656 326.527344 174.851562 C 319.8125 173.785156 319.207031 168.242188 318.160156 159.304688 C 319.019531 176.691406 302.117188 205.023438 281.3125 191.042969 C 281.3125 191.042969 281.925781 205.40625 296.816406 213.519531 " fill-opacity="1" fill-rule="nonzero"/><path fill="#f58921" d="M 298.332031 213.15625 C 323.285156 226.757812 352.636719 207.902344 369.082031 192.445312 C 362.46875 200.628906 345.328125 195.40625 349.953125 183.136719 C 340.707031 195.417969 326.824219 185.902344 331.636719 174.316406 C 331.636719 174.316406 329.953125 180.0625 324.433594 179.1875 C 318.535156 178.25 319.109375 172.847656 318.191406 164.992188 C 318.941406 180.265625 301.601562 207.207031 283.320312 194.929688 C 283.320312 194.929688 285.25 206.027344 298.332031 213.15625 " fill-opacity="1" fill-rule="nonzero"/><path fill="#ca3e26" d="M 302.324219 205.566406 C 302.324219 205.566406 302.566406 205.570312 303.019531 205.578125 C 303.476562 205.597656 304.128906 205.578125 304.960938 205.554688 C 306.628906 205.480469 308.976562 205.242188 311.726562 204.671875 C 314.476562 204.105469 317.628906 203.226562 320.902344 202.027344 C 321.71875 201.722656 322.542969 201.402344 323.367188 201.0625 C 324.191406 200.714844 325.019531 200.363281 325.84375 199.976562 C 327.484375 199.203125 329.121094 198.363281 330.65625 197.410156 C 331.40625 196.945312 332.210938 196.40625 332.972656 195.886719 C 333.742188 195.359375 334.515625 194.835938 335.265625 194.300781 C 336.777344 193.234375 338.242188 192.152344 339.644531 191.082031 C 342.445312 188.9375 344.984375 186.832031 347.066406 184.929688 C 348.105469 183.976562 349.027344 183.074219 349.800781 182.238281 C 350.570312 181.398438 351.207031 180.636719 351.613281 179.953125 C 352.015625 179.277344 352.191406 178.65625 351.929688 178.339844 C 351.671875 178.027344 351.367188 178.007812 351.386719 177.996094 C 351.386719 177.996094 351.449219 177.996094 351.5625 178 C 351.679688 178.019531 351.871094 178.03125 352.082031 178.1875 C 352.296875 178.335938 352.453125 178.671875 352.46875 179.039062 C 352.496094 179.410156 352.421875 179.816406 352.292969 180.242188 C 351.773438 181.957031 350.460938 184.082031 348.648438 186.386719 C 346.828125 188.699219 344.476562 191.1875 341.757812 193.621094 C 340.398438 194.84375 338.941406 196.050781 337.417969 197.214844 C 335.882812 198.390625 334.335938 199.496094 332.625 200.585938 C 330.902344 201.640625 329.121094 202.546875 327.320312 203.296875 C 325.523438 204.066406 323.703125 204.679688 321.925781 205.1875 C 318.367188 206.199219 314.9375 206.714844 311.984375 206.832031 C 310.507812 206.886719 309.152344 206.851562 307.960938 206.75 C 306.765625 206.652344 305.734375 206.46875 304.902344 206.300781 C 304.0625 206.128906 303.410156 205.925781 302.984375 205.792969 C 302.554688 205.644531 302.324219 205.566406 302.324219 205.566406 " fill-opacity="1" fill-rule="nonzero"/><path fill="#ca3e26" d="M 303.957031 200.882812 C 303.957031 200.882812 304.121094 200.8125 304.425781 200.679688 C 304.582031 200.617188 304.769531 200.539062 304.988281 200.445312 C 305.203125 200.339844 305.449219 200.222656 305.71875 200.097656 C 305.988281 199.980469 306.28125 199.816406 306.601562 199.644531 C 306.921875 199.476562 307.261719 199.296875 307.621094 199.078125 C 307.976562 198.875 308.355469 198.652344 308.746094 198.398438 C 309.140625 198.160156 309.546875 197.890625 309.96875 197.605469 C 310.808594 197.042969 311.695312 196.398438 312.613281 195.703125 C 313.53125 194.992188 314.484375 194.242188 315.441406 193.421875 C 315.921875 193.019531 316.398438 192.585938 316.890625 192.167969 C 317.363281 191.726562 317.863281 191.300781 318.34375 190.84375 C 319.3125 189.945312 320.269531 189.007812 321.214844 188.050781 C 322.152344 187.09375 323.078125 186.121094 323.957031 185.136719 C 324.40625 184.648438 324.816406 184.144531 325.253906 183.664062 C 325.664062 183.164062 326.082031 182.683594 326.476562 182.191406 C 327.273438 181.222656 328.007812 180.253906 328.6875 179.324219 C 329.363281 178.390625 329.980469 177.488281 330.511719 176.632812 C 330.777344 176.207031 331.039062 175.792969 331.257812 175.390625 C 331.375 175.191406 331.488281 174.996094 331.597656 174.808594 C 331.699219 174.613281 331.796875 174.425781 331.890625 174.242188 C 331.988281 174.058594 332.082031 173.882812 332.175781 173.710938 C 332.257812 173.535156 332.335938 173.367188 332.414062 173.203125 C 332.570312 172.878906 332.71875 172.578125 332.824219 172.300781 C 332.933594 172.019531 333.035156 171.769531 333.132812 171.550781 C 333.210938 171.328125 333.277344 171.140625 333.332031 170.984375 C 333.445312 170.671875 333.507812 170.507812 333.507812 170.507812 C 333.507812 170.507812 333.519531 170.683594 333.542969 171.011719 C 333.554688 171.179688 333.566406 171.386719 333.578125 171.628906 C 333.578125 171.871094 333.566406 172.152344 333.550781 172.464844 C 333.542969 172.78125 333.5 173.125 333.457031 173.503906 C 333.421875 173.882812 333.347656 174.289062 333.257812 174.71875 C 333.183594 175.152344 333.066406 175.605469 332.933594 176.082031 C 332.816406 176.5625 332.644531 177.050781 332.472656 177.5625 C 332.308594 178.085938 332.074219 178.59375 331.863281 179.140625 C 331.632812 179.675781 331.375 180.21875 331.105469 180.777344 C 330.546875 181.878906 329.90625 183.019531 329.164062 184.144531 C 328.433594 185.269531 327.621094 186.398438 326.726562 187.488281 C 325.851562 188.597656 324.871094 189.636719 323.886719 190.675781 C 322.863281 191.675781 321.835938 192.671875 320.742188 193.5625 C 319.667969 194.472656 318.554688 195.304688 317.441406 196.058594 C 316.335938 196.820312 315.210938 197.480469 314.125 198.066406 C 313.578125 198.351562 313.039062 198.621094 312.511719 198.867188 C 311.972656 199.09375 311.472656 199.339844 310.960938 199.523438 C 310.453125 199.710938 309.972656 199.898438 309.496094 200.035156 C 309.027344 200.183594 308.582031 200.320312 308.148438 200.414062 C 307.726562 200.519531 307.328125 200.613281 306.949219 200.664062 C 306.574219 200.726562 306.234375 200.785156 305.914062 200.8125 C 305.601562 200.847656 305.316406 200.875 305.078125 200.886719 C 304.839844 200.886719 304.632812 200.890625 304.46875 200.890625 C 304.136719 200.886719 303.957031 200.882812 303.957031 200.882812 " fill-opacity="1" fill-rule="nonzero"/><g clip-path="url(#1d4a4197ae)"><path fill="#d15123" d="M 81.519531 217.707031 C 54.609375 235.648438 21.378906 221.277344 1.140625 199.269531 C 9.46875 207.882812 28.894531 199.652344 22.410156 186.210938 C 34.136719 199.203125 47.160156 188.921875 40.53125 176.273438 C 40.53125 176.273438 42.316406 183.382812 48.488281 181.832031 C 55.078125 180.171875 55.1875 174.597656 55.433594 165.601562 C 56.128906 182.996094 75.484375 209.710938 94.960938 193.941406 C 94.960938 193.941406 95.628906 208.296875 81.519531 217.707031 " fill-opacity="1" fill-rule="nonzero"/></g><path fill="#f58921" d="M 79.980469 217.480469 C 56.335938 233.242188 25.417969 217.066406 7.664062 203.128906 C 14.980469 210.699219 31.585938 203.972656 25.886719 192.164062 C 36.191406 203.574219 49.171875 192.863281 43.347656 181.75 C 43.347656 181.75 45.535156 187.324219 50.957031 185.960938 C 56.746094 184.503906 55.695312 179.171875 55.910156 171.269531 C 56.519531 186.550781 76.191406 211.84375 93.304688 197.988281 C 93.304688 197.988281 92.371094 209.214844 79.980469 217.480469 " fill-opacity="1" fill-rule="nonzero"/><path fill="#ca3e26" d="M 75.328125 210.273438 C 75.328125 210.273438 75.105469 210.371094 74.691406 210.558594 C 74.277344 210.730469 73.644531 210.988281 72.828125 211.234375 C 72.007812 211.476562 71 211.75 69.816406 211.953125 C 68.636719 212.160156 67.292969 212.316406 65.816406 212.390625 C 62.867188 212.539062 59.402344 212.328125 55.769531 211.636719 C 53.953125 211.292969 52.085938 210.839844 50.230469 210.234375 C 48.367188 209.644531 46.511719 208.902344 44.699219 208.003906 C 42.902344 207.070312 41.261719 206.105469 39.628906 205.070312 C 38.007812 204.046875 36.449219 202.976562 34.988281 201.878906 C 32.058594 199.695312 29.496094 197.425781 27.480469 195.285156 C 25.46875 193.148438 23.972656 191.148438 23.304688 189.488281 C 23.140625 189.074219 23.027344 188.675781 23.019531 188.304688 C 23.003906 187.9375 23.128906 187.589844 23.332031 187.421875 C 23.523438 187.246094 23.714844 187.21875 23.828125 187.191406 C 23.945312 187.179688 24.003906 187.171875 24.003906 187.171875 C 24.023438 187.179688 23.722656 187.226562 23.492188 187.558594 C 23.261719 187.898438 23.496094 188.5 23.957031 189.136719 C 24.417969 189.785156 25.121094 190.488281 25.960938 191.253906 C 26.804688 192.015625 27.804688 192.835938 28.925781 193.691406 C 31.167969 195.402344 33.886719 197.273438 36.867188 199.160156 C 38.359375 200.101562 39.914062 201.046875 41.511719 201.976562 C 42.308594 202.445312 43.125 202.894531 43.941406 203.355469 C 44.746094 203.804688 45.59375 204.269531 46.382812 204.664062 C 47.996094 205.480469 49.699219 206.171875 51.402344 206.796875 C 52.257812 207.105469 53.117188 207.382812 53.964844 207.65625 C 54.820312 207.925781 55.667969 208.167969 56.511719 208.394531 C 59.875 209.304688 63.09375 209.898438 65.882812 210.21875 C 68.671875 210.542969 71.035156 210.570312 72.699219 210.496094 C 73.53125 210.445312 74.183594 210.40625 74.632812 210.351562 C 75.085938 210.300781 75.328125 210.273438 75.328125 210.273438 " fill-opacity="1" fill-rule="nonzero"/><path fill="#ca3e26" d="M 73.28125 205.753906 C 73.28125 205.753906 73.105469 205.769531 72.773438 205.804688 C 72.609375 205.816406 72.40625 205.835938 72.167969 205.855469 C 71.925781 205.863281 71.644531 205.863281 71.328125 205.855469 C 71.007812 205.859375 70.664062 205.828125 70.285156 205.800781 C 69.902344 205.785156 69.496094 205.726562 69.0625 205.65625 C 68.625 205.601562 68.171875 205.507812 67.691406 205.402344 C 67.203125 205.304688 66.707031 205.160156 66.1875 205.019531 C 65.660156 204.882812 65.140625 204.683594 64.582031 204.503906 C 64.035156 204.308594 63.476562 204.085938 62.902344 203.851562 C 61.773438 203.363281 60.589844 202.804688 59.421875 202.144531 C 58.246094 201.496094 57.066406 200.761719 55.914062 199.953125 C 54.746094 199.160156 53.632812 198.261719 52.523438 197.355469 C 51.453125 196.410156 50.378906 195.460938 49.410156 194.433594 C 48.421875 193.429688 47.515625 192.375 46.683594 191.316406 C 45.84375 190.265625 45.109375 189.183594 44.453125 188.136719 C 44.132812 187.605469 43.828125 187.085938 43.550781 186.574219 C 43.292969 186.046875 43.015625 185.5625 42.804688 185.058594 C 42.589844 184.5625 42.375 184.09375 42.210938 183.621094 C 42.039062 183.160156 41.882812 182.722656 41.769531 182.292969 C 41.640625 181.875 41.53125 181.476562 41.464844 181.101562 C 41.386719 180.730469 41.3125 180.390625 41.277344 180.074219 C 41.234375 179.765625 41.195312 179.488281 41.175781 179.246094 C 41.167969 179.003906 41.160156 178.796875 41.152344 178.628906 C 41.148438 178.296875 41.144531 178.121094 41.144531 178.121094 C 41.144531 178.121094 41.222656 178.28125 41.363281 178.582031 C 41.429688 178.730469 41.511719 178.914062 41.613281 179.128906 C 41.726562 179.339844 41.851562 179.578125 41.988281 179.847656 C 42.117188 180.117188 42.292969 180.402344 42.476562 180.710938 C 42.566406 180.863281 42.660156 181.027344 42.757812 181.195312 C 42.863281 181.355469 42.972656 181.523438 43.085938 181.699219 C 43.199219 181.871094 43.3125 182.050781 43.429688 182.234375 C 43.558594 182.414062 43.6875 182.597656 43.820312 182.785156 C 44.078125 183.167969 44.371094 183.554688 44.675781 183.957031 C 45.28125 184.761719 45.976562 185.605469 46.730469 186.476562 C 47.492188 187.339844 48.304688 188.238281 49.1875 189.136719 C 49.621094 189.589844 50.085938 190.03125 50.535156 190.492188 C 51.015625 190.933594 51.472656 191.398438 51.960938 191.84375 C 52.921875 192.746094 53.929688 193.632812 54.949219 194.507812 C 55.976562 195.371094 57.011719 196.226562 58.058594 197.03125 C 58.578125 197.441406 59.113281 197.820312 59.621094 198.222656 C 60.152344 198.59375 60.664062 198.984375 61.179688 199.339844 C 62.207031 200.070312 63.222656 200.738281 64.199219 201.359375 C 65.179688 201.972656 66.117188 202.539062 67.003906 203.019531 C 67.449219 203.265625 67.875 203.5 68.289062 203.703125 C 68.703125 203.917969 69.097656 204.109375 69.476562 204.28125 C 69.847656 204.464844 70.207031 204.613281 70.539062 204.753906 C 70.871094 204.898438 71.179688 205.035156 71.457031 205.128906 C 71.738281 205.226562 71.992188 205.320312 72.214844 205.410156 C 72.445312 205.480469 72.640625 205.542969 72.796875 205.59375 C 73.113281 205.695312 73.28125 205.753906 73.28125 205.753906 " fill-opacity="1" fill-rule="nonzero"/><path fill="#ca3e26" d="M 195.496094 123.601562 C 195.949219 123.265625 196.425781 122.984375 196.878906 122.65625 C 197.308594 122.316406 197.726562 122.007812 198.132812 121.675781 C 198.527344 121.3125 198.9375 120.988281 199.324219 120.628906 C 199.699219 120.257812 200.089844 119.914062 200.453125 119.539062 C 200.816406 119.15625 201.1875 118.792969 201.539062 118.410156 L 202.582031 117.253906 C 202.910156 116.847656 203.257812 116.460938 203.59375 116.066406 C 203.921875 115.65625 204.242188 115.25 204.578125 114.851562 C 205.21875 114.03125 205.859375 113.207031 206.492188 112.375 L 207.429688 111.113281 C 207.746094 110.695312 208.046875 110.261719 208.355469 109.835938 L 212.089844 104.660156 L 216.617188 107.472656 L 216.015625 108.703125 L 215.492188 109.992188 C 215.34375 110.429688 215.179688 110.867188 215.035156 111.3125 C 214.917969 111.765625 214.78125 112.214844 214.652344 112.671875 C 214.550781 113.136719 214.433594 113.59375 214.339844 114.0625 C 214.269531 114.53125 214.164062 115 214.089844 115.472656 L 213.910156 116.90625 L 213.796875 118.355469 C 213.792969 118.839844 213.765625 119.328125 213.75 119.820312 C 213.765625 120.308594 213.777344 120.796875 213.777344 121.296875 C 213.808594 121.789062 213.855469 122.277344 213.878906 122.78125 L 214.054688 124.273438 L 214.308594 125.769531 L 214.648438 127.273438 L 215.078125 128.785156 C 215.238281 129.285156 215.433594 129.78125 215.59375 130.3125 C 215.179688 129.957031 214.792969 129.574219 214.386719 129.191406 C 214.03125 128.777344 213.667969 128.359375 213.320312 127.917969 C 213.003906 127.46875 212.691406 127.007812 212.382812 126.535156 C 212.105469 126.050781 211.839844 125.558594 211.574219 125.058594 C 211.339844 124.546875 211.117188 124.03125 210.894531 123.507812 C 210.703125 122.976562 210.527344 122.441406 210.347656 121.898438 C 210.195312 121.355469 210.054688 120.804688 209.921875 120.246094 C 209.820312 119.691406 209.710938 119.128906 209.625 118.5625 L 209.453125 116.855469 C 209.421875 116.28125 209.425781 115.707031 209.410156 115.132812 C 209.425781 114.558594 209.449219 113.980469 209.488281 113.402344 C 209.546875 112.828125 209.628906 112.253906 209.699219 111.675781 C 209.792969 111.101562 209.921875 110.53125 210.042969 109.960938 C 210.1875 109.394531 210.355469 108.832031 210.515625 108.265625 C 210.695312 107.707031 210.925781 107.15625 211.132812 106.605469 C 211.375 106.0625 211.632812 105.523438 211.886719 104.984375 L 216.417969 107.796875 C 215.777344 108.675781 215.117188 109.546875 214.449219 110.425781 C 214.105469 110.859375 213.765625 111.289062 213.410156 111.71875 C 213.054688 112.144531 212.71875 112.582031 212.34375 112.996094 C 211.605469 113.832031 210.867188 114.671875 210.074219 115.464844 C 209.671875 115.859375 209.28125 116.261719 208.875 116.648438 L 207.617188 117.785156 C 207.183594 118.15625 206.742188 118.515625 206.304688 118.867188 C 205.847656 119.210938 205.394531 119.558594 204.933594 119.886719 L 203.5 120.832031 C 203.007812 121.125 202.503906 121.402344 202.007812 121.679688 C 201.496094 121.9375 200.96875 122.175781 200.449219 122.410156 C 199.917969 122.628906 199.371094 122.816406 198.835938 122.996094 C 198.285156 123.171875 197.707031 123.292969 197.160156 123.421875 C 196.609375 123.492188 196.058594 123.558594 195.496094 123.601562 " fill-opacity="1" fill-rule="nonzero"/><path fill="#ca3e26" d="M 147.234375 122.925781 C 147.605469 121.507812 148.140625 120.21875 148.570312 118.988281 C 148.683594 118.6875 148.78125 118.382812 148.867188 118.089844 C 148.960938 117.800781 149.042969 117.515625 149.101562 117.238281 C 149.171875 116.960938 149.222656 116.695312 149.257812 116.433594 C 149.285156 116.171875 149.324219 115.921875 149.328125 115.667969 C 149.339844 115.417969 149.332031 115.164062 149.328125 114.90625 C 149.320312 114.648438 149.308594 114.386719 149.273438 114.117188 C 149.234375 113.578125 149.148438 113.007812 149.054688 112.417969 L 148.4375 108.691406 L 145.863281 93.089844 L 153.398438 106.933594 C 153.703125 107.496094 154.03125 108.027344 154.386719 108.527344 C 154.746094 109.027344 155.125 109.5 155.539062 109.9375 C 155.75 110.160156 155.976562 110.359375 156.199219 110.574219 C 156.429688 110.78125 156.667969 110.980469 156.921875 111.171875 C 157.425781 111.546875 157.96875 111.917969 158.558594 112.253906 C 159.144531 112.601562 159.773438 112.910156 160.425781 113.230469 C 161.082031 113.535156 161.757812 113.84375 162.457031 114.144531 C 163.152344 114.449219 163.863281 114.75 164.578125 115.074219 C 164.9375 115.234375 165.292969 115.402344 165.65625 115.578125 C 166.011719 115.761719 166.371094 115.921875 166.730469 116.128906 C 166.328125 116.214844 165.933594 116.261719 165.539062 116.332031 C 165.144531 116.386719 164.746094 116.4375 164.351562 116.472656 C 163.558594 116.554688 162.765625 116.597656 161.96875 116.601562 C 161.5625 116.613281 161.164062 116.597656 160.757812 116.578125 C 160.355469 116.566406 159.945312 116.535156 159.535156 116.484375 C 159.128906 116.4375 158.714844 116.394531 158.300781 116.308594 C 157.890625 116.230469 157.472656 116.140625 157.054688 116.03125 C 156.636719 115.921875 156.226562 115.785156 155.8125 115.636719 C 155.398438 115.484375 154.984375 115.316406 154.578125 115.117188 C 154.175781 114.917969 153.777344 114.695312 153.386719 114.460938 C 152.992188 114.21875 152.621094 113.945312 152.257812 113.664062 C 151.53125 113.097656 150.863281 112.449219 150.277344 111.75 C 149.691406 111.046875 149.179688 110.304688 148.738281 109.539062 L 153.695312 107.777344 C 153.949219 109.125 154.144531 110.503906 154.191406 111.980469 C 154.207031 112.347656 154.199219 112.726562 154.183594 113.109375 C 154.167969 113.492188 154.152344 113.882812 154.101562 114.28125 C 154.050781 114.675781 153.980469 115.082031 153.890625 115.488281 C 153.804688 115.894531 153.675781 116.296875 153.527344 116.695312 C 153.378906 117.089844 153.210938 117.476562 153.007812 117.839844 C 152.804688 118.203125 152.589844 118.550781 152.355469 118.867188 C 151.878906 119.507812 151.359375 120.054688 150.8125 120.539062 C 150.265625 121.023438 149.699219 121.453125 149.105469 121.847656 C 148.808594 122.046875 148.503906 122.234375 148.195312 122.417969 C 147.875 122.589844 147.570312 122.769531 147.234375 122.925781 " fill-opacity="1" fill-rule="nonzero"/><path fill="#040606" d="M 265.875 160.570312 C 266.109375 165.871094 262.003906 170.355469 256.699219 170.589844 C 251.398438 170.828125 246.90625 166.726562 246.671875 161.425781 C 246.433594 156.132812 250.539062 151.644531 255.84375 151.410156 C 261.144531 151.171875 265.636719 155.277344 265.875 160.570312 " fill-opacity="1" fill-rule="nonzero"/><path fill="#ffffff" d="M 263.445312 155.816406 C 263.488281 156.832031 262.703125 157.691406 261.6875 157.738281 C 260.671875 157.78125 259.8125 156.996094 259.765625 155.984375 C 259.71875 154.96875 260.507812 154.109375 261.523438 154.0625 C 262.539062 154.019531 263.398438 154.804688 263.445312 155.816406 " fill-opacity="1" fill-rule="nonzero"/><path fill="#040606" d="M 133.195312 165.328125 C 133.429688 170.625 129.324219 175.109375 124.023438 175.34375 C 118.71875 175.582031 114.226562 171.476562 113.992188 166.179688 C 113.757812 160.882812 117.863281 156.398438 123.167969 156.164062 C 128.46875 155.925781 132.960938 160.027344 133.195312 165.328125 " fill-opacity="1" fill-rule="nonzero"/><path fill="#ffffff" d="M 130.765625 160.570312 C 130.8125 161.585938 130.023438 162.445312 129.007812 162.488281 C 127.992188 162.535156 127.132812 161.75 127.085938 160.734375 C 127.042969 159.722656 127.828125 158.863281 128.84375 158.816406 C 129.859375 158.769531 130.71875 159.558594 130.765625 160.570312 " fill-opacity="1" fill-rule="nonzero"/><path fill="#ca3e26" d="M 176 170.003906 C 177.023438 176.125 180.445312 186.597656 188.59375 185.492188 C 196.460938 184.425781 198.234375 174.152344 198.023438 167.8125 C 197.964844 166.09375 195.289062 166.085938 195.34375 167.8125 C 195.511719 172.871094 194.628906 181.261719 188.582031 182.800781 C 181.976562 184.484375 179.296875 173.574219 178.582031 169.292969 C 178.300781 167.59375 175.71875 168.320312 176 170.003906 " fill-opacity="1" fill-rule="nonzero"/></svg>