<svg xmlns="http://www.w3.org/2000/svg" xmlns:xlink="http://www.w3.org/1999/xlink" width="500" zoomAndPan="magnify" viewBox="0 0 375 374.999991" height="500" preserveAspectRatio="xMidYMid meet" version="1.0"><path fill="#ff87bb" d="M 330.378906 164.65625 C 322.433594 171.210938 315.179688 176.8125 308.636719 181.75 C 274.6875 207.359375 259.765625 214.984375 266.734375 242.089844 C 269.976562 254.683594 277.941406 271.480469 290.925781 296.257812 C 295.460938 304.183594 304.09375 323.863281 294.910156 332.367188 C 293.386719 333.789062 291.363281 334.898438 288.75 335.582031 C 287.566406 335.902344 286.273438 336.128906 284.839844 336.257812 C 278.125 336.890625 268.128906 329.050781 263.042969 325.476562 C 254.976562 319.792969 247.5 313.292969 239.941406 306.953125 C 228.191406 297.117188 216.359375 285.242188 201.136719 281.085938 C 189.945312 278.03125 182.953125 283.28125 173.839844 288.796875 C 169.011719 291.714844 164.308594 294.875 159.59375 297.992188 C 149.945312 304.375 140.414062 310.929688 130.75 317.3125 C 122.695312 322.628906 114.578125 328.054688 105.957031 332.429688 C 103.433594 333.714844 98.167969 336.867188 94.417969 336.539062 C 93.667969 336.476562 92.972656 336.277344 92.363281 335.878906 C 92.328125 335.855469 92.292969 335.832031 92.257812 335.808594 C 91.667969 335.761719 91.113281 335.675781 90.589844 335.570312 C 87.671875 334.957031 85.628906 333.464844 84.285156 331.246094 C 72.105469 311.136719 117.917969 231.535156 105.710938 213.398438 C 87.949219 190.085938 58.019531 180.300781 33.742188 164.796875 C 28.839844 162.316406 21.066406 154.546875 19.636719 146.867188 C 19.636719 146.859375 19.628906 146.859375 19.636719 146.855469 C 19.152344 144.234375 19.410156 141.625 20.773438 139.246094 C 22.023438 137.058594 24.214844 135.050781 27.636719 133.402344 C 55.230469 128.96875 82.996094 133.871094 110.808594 133.910156 C 120.925781 135.894531 128.804688 135.429688 134.964844 133.113281 C 151.65625 126.84375 155.6875 107.011719 157.328125 85.457031 C 158.5625 69.316406 158.460938 52.214844 161.347656 39.136719 C 161.605469 37.953125 161.890625 36.800781 162.199219 35.695312 C 164.929688 25.972656 171.511719 16.269531 181.652344 24.886719 C 191.78125 33.492188 194.765625 49.5 198.554688 61.566406 C 202.84375 75.210938 206.949219 88.941406 212.648438 102.070312 C 215.75 109.222656 219.484375 116.386719 225.53125 121.320312 C 226.125 121.804688 226.746094 122.269531 227.382812 122.707031 C 244.523438 134.441406 272.855469 124.804688 291.347656 121.144531 C 308.152344 117.816406 332.328125 111.121094 348.078125 121.21875 C 349.5 122.949219 350.523438 124.722656 351.183594 126.53125 C 356.273438 140.433594 340.242188 156.109375 330.378906 164.65625 Z M 330.378906 164.65625 " fill-opacity="1" fill-rule="nonzero"/><path fill="#ff87bb" d="M 94.980469 336.917969 C 94.78125 336.917969 94.582031 336.914062 94.386719 336.894531 C 93.519531 336.824219 92.796875 336.589844 92.171875 336.183594 C 92.164062 336.175781 92.152344 336.171875 92.136719 336.160156 C 91.585938 336.105469 91.039062 336.03125 90.511719 335.921875 C 87.613281 335.3125 85.417969 333.800781 83.988281 331.433594 C 77.765625 321.15625 86.476562 295.582031 94.894531 270.851562 C 102.996094 247.054688 111.375 222.449219 105.417969 213.597656 C 93.113281 197.441406 74.636719 187.660156 56.769531 178.195312 C 48.988281 174.074219 40.9375 169.808594 33.550781 165.09375 C 28.671875 162.625 20.78125 154.75 19.304688 146.996094 L 19.199219 146.820312 L 19.261719 146.75 C 18.773438 143.914062 19.175781 141.335938 20.472656 139.074219 C 21.828125 136.695312 24.1875 134.683594 27.480469 133.09375 L 27.574219 133.066406 C 45.75 130.140625 64.308594 131.285156 82.253906 132.382812 C 91.609375 132.953125 101.285156 133.550781 110.804688 133.566406 L 110.867188 133.574219 C 120.417969 135.445312 128.480469 135.183594 134.828125 132.792969 C 151.597656 126.496094 155.382812 106.3125 156.972656 85.433594 C 157.347656 80.550781 157.597656 75.511719 157.84375 70.648438 C 158.425781 59.105469 158.976562 48.210938 160.992188 39.0625 C 161.25 37.863281 161.539062 36.699219 161.851562 35.59375 C 162.867188 31.976562 165.867188 23.371094 171.890625 21.539062 C 174.988281 20.59375 178.339844 21.632812 181.855469 24.617188 C 190.3125 31.800781 193.828125 44.078125 196.929688 54.902344 C 197.589844 57.203125 198.214844 59.371094 198.871094 61.457031 C 199.320312 62.890625 199.769531 64.328125 200.21875 65.761719 C 203.976562 77.769531 207.859375 90.1875 212.949219 101.929688 C 215.832031 108.582031 219.605469 116.054688 225.726562 121.046875 C 226.328125 121.535156 226.941406 121.996094 227.554688 122.417969 C 241.75 132.132812 263.730469 127.054688 281.386719 122.976562 C 284.894531 122.164062 288.203125 121.402344 291.261719 120.800781 C 293.078125 120.4375 294.980469 120.042969 296.949219 119.628906 C 313.492188 116.15625 334.082031 111.84375 348.238281 120.921875 L 348.320312 120.992188 C 349.734375 122.703125 350.804688 124.523438 351.488281 126.402344 C 355.300781 136.816406 348.46875 149.421875 330.589844 164.914062 L 330.582031 164.921875 C 321.75 172.203125 313.933594 178.164062 308.828125 182.023438 C 305.535156 184.507812 302.457031 186.796875 299.484375 189.007812 C 272.136719 209.335938 260.820312 217.75 267.046875 242.003906 C 270.40625 255.054688 278.785156 272.375 291.214844 296.09375 C 292.742188 298.773438 305.914062 322.632812 295.125 332.625 C 293.496094 334.140625 291.375 335.25 288.816406 335.921875 C 287.609375 336.246094 286.277344 336.480469 284.859375 336.609375 C 278.730469 337.179688 270.238281 331.082031 264.617188 327.039062 C 263.96875 326.574219 263.375 326.140625 262.832031 325.761719 C 256.003906 320.949219 249.5 315.472656 243.210938 310.175781 C 242.042969 309.1875 240.875 308.203125 239.699219 307.222656 C 237.867188 305.6875 235.992188 304.070312 234.1875 302.507812 C 224.164062 293.855469 213.800781 284.910156 201.027344 281.425781 C 190.949219 278.671875 184.496094 282.644531 176.328125 287.675781 C 175.570312 288.140625 174.792969 288.621094 174.003906 289.097656 C 169.78125 291.648438 165.589844 294.433594 161.527344 297.121094 L 159.769531 298.289062 C 154.992188 301.453125 150.15625 304.707031 145.484375 307.859375 C 140.722656 311.066406 135.796875 314.386719 130.925781 317.609375 L 129.78125 318.367188 C 122.1875 323.386719 114.332031 328.574219 106.097656 332.746094 C 105.757812 332.921875 105.367188 333.132812 104.933594 333.359375 C 102.242188 334.792969 98.234375 336.917969 94.980469 336.917969 Z M 20.011719 146.976562 C 21.492188 154.480469 29.140625 162.085938 33.898438 164.5 C 41.292969 169.21875 49.328125 173.472656 57.09375 177.589844 C 75.027344 187.085938 93.574219 196.902344 105.984375 213.199219 C 112.148438 222.351562 104.085938 246.015625 95.554688 271.078125 C 87.183594 295.65625 78.527344 321.074219 84.582031 331.078125 C 85.925781 333.304688 87.917969 334.664062 90.660156 335.242188 C 91.191406 335.355469 91.734375 335.4375 92.289062 335.476562 L 92.371094 335.484375 L 92.511719 335.570312 C 93.082031 335.945312 93.695312 336.140625 94.449219 336.199219 C 97.589844 336.476562 101.996094 334.136719 104.625 332.742188 C 105.0625 332.507812 105.453125 332.300781 105.796875 332.121094 C 113.992188 327.96875 121.832031 322.785156 129.414062 317.785156 L 130.558594 317.027344 C 135.429688 313.804688 140.347656 310.492188 145.109375 307.28125 C 149.78125 304.128906 154.617188 300.867188 159.402344 297.707031 L 161.160156 296.542969 C 165.226562 293.847656 169.425781 291.058594 173.660156 288.503906 C 174.449219 288.023438 175.21875 287.550781 175.980469 287.085938 C 183.964844 282.171875 190.855469 277.929688 201.226562 280.761719 C 214.152344 284.285156 224.570312 293.28125 234.652344 301.988281 C 236.464844 303.550781 238.332031 305.167969 240.160156 306.699219 C 241.335938 307.679688 242.503906 308.664062 243.679688 309.652344 C 249.953125 314.9375 256.441406 320.40625 263.246094 325.195312 C 263.789062 325.582031 264.390625 326.011719 265.039062 326.472656 C 270.238281 330.214844 278.945312 336.46875 284.8125 335.914062 C 286.195312 335.785156 287.488281 335.566406 288.660156 335.25 C 291.109375 334.609375 293.128906 333.550781 294.675781 332.117188 C 303.125 324.296875 296.109375 306.007812 290.628906 296.433594 C 278.167969 272.660156 269.777344 255.300781 266.398438 242.183594 C 260.050781 217.484375 271.480469 208.988281 299.09375 188.464844 C 302.066406 186.253906 305.144531 183.964844 308.433594 181.480469 C 313.539062 177.628906 321.339844 171.671875 330.160156 164.402344 C 347.789062 149.113281 354.566406 136.765625 350.855469 126.652344 C 350.203125 124.863281 349.191406 123.121094 347.84375 121.488281 C 333.921875 112.597656 313.515625 116.878906 297.113281 120.316406 C 295.144531 120.730469 293.234375 121.125 291.417969 121.488281 C 288.375 122.089844 285.066406 122.855469 281.570312 123.660156 C 263.777344 127.765625 241.628906 132.882812 227.183594 123 C 226.558594 122.574219 225.925781 122.101562 225.308594 121.597656 C 219.074219 116.515625 215.25 108.949219 212.328125 102.222656 C 207.222656 90.453125 203.332031 78.015625 199.570312 65.988281 C 199.121094 64.554688 198.671875 63.117188 198.222656 61.683594 C 197.5625 59.589844 196.9375 57.414062 196.277344 55.113281 C 193.199219 44.382812 189.710938 32.214844 181.417969 25.167969 C 178.09375 22.34375 174.964844 21.351562 172.105469 22.21875 C 166.417969 23.953125 163.515625 32.296875 162.535156 35.804688 C 162.222656 36.894531 161.941406 38.046875 161.6875 39.230469 C 159.683594 48.320312 159.132812 59.191406 158.550781 70.699219 C 158.304688 75.570312 158.046875 80.605469 157.671875 85.503906 C 156.0625 106.609375 152.210938 127.027344 135.078125 133.457031 C 128.613281 135.890625 120.4375 136.164062 110.773438 134.273438 C 101.242188 134.257812 91.570312 133.667969 82.21875 133.089844 C 64.328125 131.992188 45.828125 130.855469 27.742188 133.753906 C 24.601562 135.277344 22.359375 137.191406 21.078125 139.433594 C 19.851562 141.574219 19.476562 144.042969 19.976562 146.761719 L 19.988281 146.832031 Z M 20.011719 146.976562 " fill-opacity="1" fill-rule="nonzero"/><path fill="#f2619f" d="M 351.179688 126.523438 C 350.519531 124.714844 349.496094 122.941406 348.070312 121.214844 C 332.328125 111.113281 308.148438 117.8125 291.339844 121.136719 C 272.847656 124.796875 244.519531 134.4375 227.375 122.703125 C 226.738281 122.265625 226.121094 121.804688 225.523438 121.3125 C 219.476562 116.382812 215.746094 109.21875 212.644531 102.0625 C 206.949219 88.929688 202.835938 75.199219 198.550781 61.5625 C 194.757812 49.492188 191.773438 33.488281 181.644531 24.882812 C 171.511719 16.257812 164.921875 25.960938 162.195312 35.6875 C 161.886719 36.796875 161.597656 37.945312 161.339844 39.128906 C 158.457031 52.207031 158.5625 69.308594 157.324219 85.449219 C 155.675781 107.003906 151.644531 126.84375 134.957031 133.105469 C 128.800781 135.421875 120.921875 135.882812 110.804688 133.90625 C 82.988281 133.863281 55.226562 128.964844 27.632812 133.398438 C 24.210938 135.050781 22.019531 137.050781 20.769531 139.238281 C 19.402344 141.625 19.144531 144.226562 19.628906 146.847656 C 19.625 146.855469 19.628906 146.855469 19.628906 146.859375 C 21.0625 154.539062 28.835938 162.304688 33.738281 164.792969 C 58.011719 180.296875 87.941406 190.074219 105.703125 213.394531 C 117.917969 231.527344 72.101562 311.132812 84.28125 331.242188 C 87.554688 333.097656 90.933594 334.863281 94.40625 336.539062 C 98.164062 336.867188 103.421875 333.707031 105.945312 332.429688 C 114.566406 328.054688 122.683594 322.628906 130.738281 317.3125 C 140.394531 310.929688 149.929688 304.375 159.582031 297.992188 C 164.296875 294.871094 169 291.714844 173.828125 288.796875 C 182.941406 283.273438 189.933594 278.03125 201.125 281.085938 C 216.347656 285.242188 228.179688 297.117188 239.929688 306.953125 C 247.492188 313.292969 254.964844 319.792969 263.03125 325.476562 C 268.117188 329.050781 278.113281 336.890625 284.828125 336.257812 C 286.253906 336.128906 287.554688 335.898438 288.738281 335.582031 C 290.832031 334.550781 292.882812 333.476562 294.898438 332.367188 C 304.085938 323.863281 295.449219 304.175781 290.914062 296.257812 C 277.9375 271.488281 269.964844 254.6875 266.722656 242.089844 C 259.757812 214.984375 274.675781 207.359375 308.625 181.75 C 315.167969 176.8125 322.421875 171.210938 330.367188 164.65625 C 340.242188 156.109375 356.273438 140.433594 351.179688 126.523438 Z M 317.8125 168.976562 C 303.773438 184.023438 287.363281 193.769531 277.417969 199.585938 C 257.195312 211.425781 252.632812 210.363281 250.097656 216.636719 C 246.605469 225.246094 252.914062 232.839844 274.789062 272.148438 C 287.859375 295.628906 293.800781 307.632812 288.691406 316.074219 C 285.761719 320.914062 280.460938 322.515625 279.273438 322.871094 C 264.90625 327.214844 244.628906 312.351562 227.917969 287.003906 C 220.226562 275.777344 208.703125 262.78125 195.085938 263.171875 C 180.636719 263.59375 175.507812 278.734375 151.300781 297.554688 C 136.582031 308.996094 105.613281 328.941406 95.808594 320.964844 C 86.550781 313.429688 98.328125 282.785156 106.40625 261.773438 C 117.738281 232.277344 125.554688 227.152344 124.363281 215.792969 C 122.917969 202.03125 108.742188 183.785156 49.710938 165.886719 C 38.058594 159.371094 33.09375 149.101562 35.816406 142.808594 C 36.273438 141.75 37.824219 138.773438 43.101562 136.765625 C 62.488281 135.539062 79.425781 135.5 93.390625 135.914062 C 121.628906 136.757812 132.914062 139.320312 143.160156 131.871094 C 148.953125 127.664062 157.058594 118.324219 158.214844 95.738281 C 158.269531 88.144531 159 76.6875 162.527344 63.269531 C 165.378906 52.457031 170.125 34.433594 177.125 34.117188 C 178.585938 34.046875 183.613281 34.601562 195.367188 65.238281 C 202.585938 84.0625 206.886719 99.992188 209.402344 110.648438 C 209.988281 118.429688 212.136719 127.066406 218.65625 132.238281 C 230.902344 141.941406 248.136719 131.175781 286.574219 127.46875 C 306.632812 125.539062 332.492188 123.046875 337.457031 133.257812 C 342.148438 142.902344 326.3125 159.867188 317.8125 168.976562 Z M 317.8125 168.976562 " fill-opacity="0.52" fill-rule="nonzero"/><path fill="#f268a3" d="M 189.5 103.0625 C 188.800781 102.523438 188.105469 101.980469 187.40625 101.445312 C 185.785156 100.511719 184.046875 100.039062 182.171875 100.03125 C 180.746094 99.980469 179.414062 100.277344 178.179688 100.925781 C 176.898438 101.34375 175.785156 102.058594 174.847656 103.066406 C 173.835938 104.007812 173.125 105.113281 172.703125 106.398438 C 172.054688 107.628906 171.757812 108.960938 171.808594 110.390625 C 171.929688 111.304688 172.054688 112.222656 172.175781 113.144531 C 172.667969 114.902344 173.554688 116.421875 174.839844 117.714844 C 175.542969 118.25 176.238281 118.792969 176.9375 119.328125 C 178.554688 120.261719 180.296875 120.734375 182.164062 120.742188 C 183.589844 120.792969 184.921875 120.496094 186.160156 119.847656 C 187.445312 119.429688 188.554688 118.71875 189.496094 117.707031 C 190.507812 116.769531 191.21875 115.660156 191.640625 114.375 C 192.289062 113.144531 192.585938 111.8125 192.535156 110.382812 C 192.410156 109.46875 192.28125 108.550781 192.164062 107.628906 C 191.675781 105.878906 190.785156 104.355469 189.5 103.0625 Z M 189.5 103.0625 " fill-opacity="1" fill-rule="nonzero"/><path fill="#f268a3" d="M 181.054688 73.078125 C 179.964844 73.039062 178.941406 73.265625 177.996094 73.761719 C 177.011719 74.082031 176.160156 74.625 175.441406 75.402344 C 174.671875 76.121094 174.121094 76.972656 173.800781 77.953125 C 173.304688 78.898438 173.078125 79.914062 173.117188 81.003906 C 173.210938 81.703125 173.304688 82.410156 173.402344 83.109375 C 173.78125 84.453125 174.460938 85.621094 175.441406 86.613281 C 175.980469 87.027344 176.515625 87.441406 177.046875 87.847656 C 178.285156 88.566406 179.625 88.929688 181.054688 88.933594 C 182.148438 88.976562 183.164062 88.746094 184.109375 88.25 C 185.097656 87.929688 185.945312 87.386719 186.667969 86.613281 C 187.441406 85.894531 187.988281 85.042969 188.308594 84.0625 C 188.804688 83.117188 189.035156 82.101562 188.992188 81.011719 C 188.898438 80.308594 188.804688 79.605469 188.707031 78.902344 C 188.332031 77.5625 187.648438 76.394531 186.667969 75.402344 C 186.132812 74.988281 185.59375 74.574219 185.0625 74.164062 C 183.816406 73.449219 182.488281 73.085938 181.054688 73.078125 Z M 181.054688 73.078125 " fill-opacity="1" fill-rule="nonzero"/><path fill="#f268a3" d="M 172.371094 57.929688 C 172.539062 58.527344 172.835938 59.046875 173.273438 59.484375 C 173.589844 60.015625 174.011719 60.433594 174.535156 60.746094 C 174.976562 61.183594 175.496094 61.480469 176.089844 61.648438 C 176.929688 62.09375 177.835938 62.289062 178.804688 62.253906 C 179.429688 62.171875 180.054688 62.085938 180.679688 62.003906 C 181.242188 61.765625 181.804688 61.53125 182.363281 61.292969 C 182.835938 60.925781 183.316406 60.558594 183.789062 60.191406 C 184.15625 59.71875 184.523438 59.238281 184.894531 58.765625 C 185.125 58.207031 185.367188 57.644531 185.605469 57.085938 C 185.898438 56.152344 185.9375 55.210938 185.734375 54.277344 C 185.734375 53.644531 185.570312 53.054688 185.25 52.503906 C 184.964844 51.628906 184.476562 50.875 183.792969 50.242188 C 183.773438 50.21875 183.753906 50.195312 183.730469 50.171875 C 183.101562 49.492188 182.351562 49.015625 181.492188 48.734375 C 180.664062 48.296875 179.769531 48.097656 178.8125 48.132812 C 178.191406 48.214844 177.578125 48.296875 176.960938 48.386719 C 175.78125 48.71875 174.757812 49.3125 173.886719 50.171875 C 173.863281 50.195312 173.847656 50.21875 173.824219 50.242188 C 173.457031 50.714844 173.089844 51.191406 172.71875 51.664062 C 172.480469 52.226562 172.246094 52.785156 172.007812 53.34375 C 171.714844 54.277344 171.675781 55.21875 171.878906 56.152344 C 171.890625 56.789062 172.046875 57.382812 172.371094 57.929688 Z M 172.371094 57.929688 " fill-opacity="1" fill-rule="nonzero"/><path fill="#f268a3" d="M 263.773438 170.316406 C 264.488281 168.957031 264.816406 167.492188 264.757812 165.921875 C 264.625 164.914062 264.484375 163.90625 264.351562 162.890625 C 263.804688 160.957031 262.824219 159.277344 261.410156 157.851562 C 260.640625 157.257812 259.871094 156.664062 259.097656 156.066406 C 257.316406 155.035156 255.394531 154.515625 253.332031 154.511719 C 251.761719 154.453125 250.296875 154.777344 248.933594 155.492188 C 247.515625 155.953125 246.292969 156.734375 245.261719 157.847656 C 244.144531 158.878906 243.355469 160.105469 242.894531 161.519531 C 242.183594 162.878906 241.855469 164.34375 241.914062 165.910156 C 242.046875 166.921875 242.1875 167.929688 242.324219 168.945312 C 242.867188 170.878906 243.847656 172.558594 245.261719 173.980469 C 246.03125 174.578125 246.804688 175.171875 247.574219 175.765625 C 249.355469 176.800781 251.277344 177.320312 253.339844 177.324219 C 254.910156 177.382812 256.375 177.058594 257.738281 176.339844 C 259.152344 175.878906 260.378906 175.097656 261.410156 173.980469 C 262.523438 172.953125 263.308594 171.730469 263.773438 170.316406 Z M 263.773438 170.316406 " fill-opacity="1" fill-rule="nonzero"/><path fill="#f268a3" d="M 228.199219 235.160156 C 222.1875 235.160156 216.429688 240.4375 216.710938 246.636719 C 216.984375 252.855469 221.757812 258.113281 228.199219 258.113281 C 234.210938 258.113281 239.96875 252.832031 239.6875 246.636719 C 239.414062 240.414062 234.640625 235.160156 228.199219 235.160156 Z M 228.199219 235.160156 " fill-opacity="1" fill-rule="nonzero"/><path fill="#f268a3" d="M 154.746094 243.882812 C 153.96875 243.28125 153.191406 242.6875 152.417969 242.085938 C 150.625 241.046875 148.683594 240.519531 146.609375 240.515625 C 145.027344 240.457031 143.550781 240.785156 142.175781 241.507812 C 140.75 241.96875 139.511719 242.761719 138.472656 243.882812 C 137.351562 244.921875 136.558594 246.15625 136.097656 247.582031 C 135.378906 248.953125 135.042969 250.429688 135.101562 252.011719 C 135.238281 253.027344 135.378906 254.046875 135.511719 255.066406 C 136.0625 257.015625 137.042969 258.710938 138.472656 260.140625 C 139.25 260.734375 140.027344 261.335938 140.804688 261.9375 C 142.597656 262.972656 144.535156 263.5 146.609375 263.503906 C 148.191406 263.5625 149.671875 263.238281 151.042969 262.511719 C 152.46875 262.050781 153.707031 261.257812 154.746094 260.136719 C 155.867188 259.09375 156.664062 257.863281 157.125 256.4375 C 157.84375 255.066406 158.175781 253.589844 158.117188 252.011719 C 157.984375 250.988281 157.84375 249.972656 157.707031 248.953125 C 157.160156 247.003906 156.171875 245.3125 154.746094 243.882812 Z M 154.746094 243.882812 " fill-opacity="1" fill-rule="nonzero"/><path fill="#f268a3" d="M 121.75 177.925781 C 122.855469 178.9375 124.15625 179.617188 125.648438 179.976562 C 125.703125 180 125.757812 180.019531 125.816406 180.042969 C 127.316406 180.511719 128.8125 180.582031 130.3125 180.25 C 131.816406 180.179688 133.210938 179.734375 134.507812 178.914062 C 135.265625 178.324219 136.027344 177.738281 136.792969 177.152344 C 138.1875 175.746094 139.15625 174.085938 139.6875 172.179688 C 139.707031 172.113281 139.722656 172.050781 139.742188 171.988281 C 139.875 170.972656 140.015625 169.957031 140.148438 168.945312 C 140.015625 167.929688 139.875 166.914062 139.742188 165.90625 C 139.386719 164.417969 138.703125 163.121094 137.691406 162.015625 C 137.183594 161.15625 136.5 160.46875 135.636719 159.960938 C 134.921875 159.25 134.074219 158.765625 133.105469 158.488281 C 132.210938 157.96875 131.25 157.707031 130.214844 157.707031 C 129.199219 157.433594 128.179688 157.433594 127.171875 157.707031 C 125.648438 157.777344 124.226562 158.226562 122.914062 159.066406 C 122.140625 159.664062 121.363281 160.257812 120.59375 160.851562 C 120 161.625 119.402344 162.398438 118.800781 163.167969 C 118.414062 164.078125 118.03125 164.988281 117.644531 165.898438 C 117.511719 166.914062 117.371094 167.929688 117.234375 168.941406 C 117.371094 169.957031 117.511719 170.972656 117.644531 171.980469 C 118 173.46875 118.683594 174.769531 119.695312 175.871094 C 120.207031 176.730469 120.890625 177.414062 121.75 177.925781 Z M 121.75 177.925781 " fill-opacity="1" fill-rule="nonzero"/><path fill="#f268a3" d="M 288.257812 145.109375 C 277.375 145.109375 277.359375 162.003906 288.257812 162.003906 C 299.140625 162.007812 299.15625 145.109375 288.257812 145.109375 Z M 288.257812 145.109375 " fill-opacity="1" fill-rule="nonzero"/><path fill="#f268a3" d="M 318.636719 139.980469 C 318.105469 138.347656 317.117188 136.929688 315.605469 136.046875 C 314.128906 135.183594 312.175781 134.933594 310.53125 135.382812 C 308.367188 135.976562 306.457031 137.769531 305.925781 139.980469 C 305.890625 140.136719 305.851562 140.296875 305.816406 140.457031 C 305.738281 141.03125 305.65625 141.601562 305.582031 142.175781 C 305.546875 143.0625 305.734375 143.894531 306.136719 144.664062 C 306.289062 145.214844 306.570312 145.6875 306.964844 146.089844 C 307.421875 146.796875 308.03125 147.351562 308.78125 147.753906 C 309.800781 148.289062 310.898438 148.582031 312.046875 148.632812 C 312.9375 148.667969 313.773438 148.480469 314.542969 148.078125 C 315.34375 147.816406 316.039062 147.375 316.621094 146.742188 C 316.726562 146.625 316.839844 146.503906 316.941406 146.386719 C 317.761719 145.566406 318.328125 144.597656 318.636719 143.480469 C 318.953125 142.3125 318.953125 141.148438 318.636719 139.980469 Z M 318.636719 139.980469 " fill-opacity="1" fill-rule="nonzero"/><path fill="#f268a3" d="M 255.074219 272.550781 C 254.398438 271.40625 253.484375 270.492188 252.335938 269.8125 C 251.144531 269.125 249.859375 268.773438 248.484375 268.769531 C 247.105469 268.773438 245.820312 269.117188 244.628906 269.8125 C 243.484375 270.492188 242.574219 271.402344 241.890625 272.550781 C 241.203125 273.742188 240.855469 275.019531 240.851562 276.394531 C 240.9375 277.917969 241.125 278.964844 241.902344 280.289062 C 242.234375 280.859375 242.648438 281.390625 243.117188 281.855469 C 244.25 282.984375 244.082031 282.746094 244.664062 283.046875 C 244.753906 283.09375 246.398438 283.78125 246.480469 283.8125 C 247.09375 284.011719 247.859375 284.175781 248.542969 284.082031 C 249.898438 284.074219 251.160156 283.734375 252.335938 283.058594 C 253.460938 282.394531 254.355469 281.496094 255.027344 280.371094 C 255.214844 280.046875 255.371094 279.714844 255.507812 279.378906 C 255.910156 278.4375 256.113281 277.441406 256.121094 276.390625 C 256.113281 275.023438 255.761719 273.742188 255.074219 272.550781 Z M 255.074219 272.550781 " fill-opacity="1" fill-rule="nonzero"/><path fill="#f268a3" d="M 265.242188 292.851562 C 258.320312 292.851562 258.316406 303.59375 265.242188 303.59375 C 272.164062 303.59375 272.175781 292.851562 265.242188 292.851562 Z M 265.242188 292.851562 " fill-opacity="1" fill-rule="nonzero"/><path fill="#f268a3" d="M 135.300781 271.089844 C 134.636719 270.578125 133.964844 270.058594 133.296875 269.546875 C 131.757812 268.652344 130.085938 268.195312 128.296875 268.191406 C 126.9375 268.140625 125.664062 268.425781 124.484375 269.042969 C 123.257812 269.441406 122.195312 270.121094 121.292969 271.089844 C 120.332031 271.984375 119.648438 273.046875 119.246094 274.277344 C 118.625 275.457031 118.339844 276.726562 118.390625 278.085938 C 118.507812 278.964844 118.625 279.839844 118.75 280.71875 C 119.222656 282.394531 120.066406 283.851562 121.292969 285.085938 C 121.960938 285.597656 122.632812 286.117188 123.296875 286.628906 C 124.839844 287.523438 126.511719 287.976562 128.296875 287.976562 C 129.660156 288.03125 130.933594 287.746094 132.113281 287.125 C 133.339844 286.730469 134.402344 286.046875 135.300781 285.085938 C 136.265625 284.183594 136.949219 283.128906 137.351562 281.898438 C 137.972656 280.71875 138.257812 279.449219 138.203125 278.085938 C 138.089844 277.210938 137.972656 276.335938 137.847656 275.457031 C 137.375 273.78125 136.527344 272.328125 135.300781 271.089844 Z M 135.300781 271.089844 " fill-opacity="1" fill-rule="nonzero"/><path fill="#f268a3" d="M 115.359375 297.28125 C 114.964844 296.976562 114.570312 296.667969 114.175781 296.363281 C 113.261719 295.832031 112.277344 295.570312 111.21875 295.5625 C 110.699219 295.632812 110.179688 295.703125 109.660156 295.773438 C 108.667969 296.046875 107.808594 296.554688 107.078125 297.28125 C 106.796875 297.542969 106.515625 297.800781 106.238281 298.0625 C 105.664062 298.59375 105.253906 299.230469 105.015625 299.957031 C 104.648438 300.660156 104.476562 301.417969 104.507812 302.226562 C 104.476562 303.039062 104.648438 303.796875 105.015625 304.496094 C 105.253906 305.226562 105.660156 305.859375 106.238281 306.394531 C 106.632812 306.703125 107.03125 307.007812 107.429688 307.316406 C 108.34375 307.847656 109.339844 308.117188 110.40625 308.121094 C 110.925781 308.050781 111.453125 307.980469 111.972656 307.910156 C 112.972656 307.632812 113.839844 307.125 114.570312 306.394531 C 114.835938 306.113281 115.089844 305.835938 115.355469 305.554688 C 115.925781 305.023438 116.328125 304.398438 116.5625 303.667969 C 116.929688 302.976562 117.101562 302.222656 117.066406 301.417969 C 117.09375 300.613281 116.925781 299.859375 116.5625 299.164062 C 116.335938 298.433594 115.933594 297.8125 115.359375 297.28125 Z M 115.359375 297.28125 " fill-opacity="1" fill-rule="nonzero"/><path fill="#f268a3" d="M 104.226562 161.78125 C 103.792969 160.226562 103.007812 158.886719 101.875 157.742188 C 101.253906 157.265625 100.636719 156.792969 100.023438 156.3125 C 98.589844 155.484375 97.054688 155.070312 95.402344 155.0625 C 94.140625 155.019531 92.964844 155.28125 91.875 155.851562 C 90.738281 156.21875 89.753906 156.851562 88.921875 157.742188 C 88.03125 158.570312 87.398438 159.550781 87.03125 160.683594 C 86.457031 161.773438 86.195312 162.949219 86.242188 164.207031 C 86.351562 165.019531 86.457031 165.832031 86.570312 166.640625 C 87.007812 168.1875 87.789062 169.535156 88.921875 170.679688 C 89.542969 171.152344 90.160156 171.628906 90.773438 172.109375 C 92.207031 172.9375 93.742188 173.351562 95.394531 173.359375 C 96.65625 173.40625 97.832031 173.140625 98.921875 172.570312 C 100.054688 172.203125 101.042969 171.570312 101.875 170.679688 C 102.765625 169.851562 103.398438 168.871094 103.765625 167.734375 C 104.339844 166.640625 104.601562 165.46875 104.554688 164.207031 C 104.441406 163.402344 104.332031 162.589844 104.226562 161.78125 Z M 104.226562 161.78125 " fill-opacity="1" fill-rule="nonzero"/><path fill="#f268a3" d="M 71.273438 151.085938 C 70.820312 150.734375 70.371094 150.390625 69.921875 150.039062 C 68.882812 149.4375 67.753906 149.136719 66.550781 149.128906 C 65.636719 149.09375 64.777344 149.289062 63.980469 149.703125 C 63.152344 149.96875 62.441406 150.429688 61.832031 151.078125 C 61.183594 151.6875 60.722656 152.398438 60.453125 153.226562 C 60.035156 154.019531 59.847656 154.878906 59.882812 155.792969 C 59.964844 156.382812 60.039062 156.976562 60.121094 157.566406 C 60.4375 158.699219 61.007812 159.679688 61.839844 160.507812 C 62.289062 160.859375 62.738281 161.203125 63.1875 161.554688 C 64.226562 162.152344 65.355469 162.464844 66.558594 162.464844 C 67.476562 162.5 68.332031 162.304688 69.128906 161.890625 C 69.957031 161.621094 70.667969 161.160156 71.277344 160.515625 C 71.925781 159.914062 72.386719 159.195312 72.65625 158.367188 C 73.078125 157.574219 73.261719 156.714844 73.226562 155.792969 C 73.148438 155.203125 73.070312 154.609375 72.988281 154.019531 C 72.671875 152.898438 72.101562 151.914062 71.273438 151.085938 Z M 71.273438 151.085938 " fill-opacity="1" fill-rule="nonzero"/><path fill="#ffc9e0" d="M 163.25 115.164062 C 163.03125 111.0625 156.804688 109.789062 155.773438 114.152344 C 154.898438 117.882812 154.792969 121.34375 153.03125 124.871094 C 151.265625 128.390625 148.894531 131.511719 145.878906 134.050781 C 142.890625 136.566406 139.570312 138.492188 135.914062 139.863281 C 134.117188 140.539062 132.257812 141.152344 130.367188 141.515625 C 128.777344 141.824219 127.375 141.789062 125.933594 142.558594 C 125.53125 142.773438 125.628906 143.277344 125.933594 143.511719 C 128.804688 145.726562 134.414062 145.230469 137.800781 144.625 C 142.304688 143.820312 146.710938 142.070312 150.34375 139.273438 C 154.0625 136.410156 157.242188 132.769531 159.390625 128.578125 C 161.375 124.734375 163.492188 119.550781 163.25 115.164062 Z M 163.25 115.164062 " fill-opacity="1" fill-rule="nonzero"/><path fill="#ffc9e0" d="M 119.875 141.234375 C 119.6875 141.089844 119.507812 140.949219 119.320312 140.804688 C 118.894531 140.550781 118.425781 140.429688 117.9375 140.429688 C 117.554688 140.417969 117.207031 140.492188 116.878906 140.667969 C 116.539062 140.78125 116.242188 140.964844 115.996094 141.234375 C 115.726562 141.484375 115.542969 141.777344 115.429688 142.117188 C 115.261719 142.441406 115.179688 142.792969 115.191406 143.171875 C 115.226562 143.417969 115.253906 143.65625 115.289062 143.902344 C 115.417969 144.367188 115.660156 144.769531 115.996094 145.117188 C 116.183594 145.261719 116.363281 145.402344 116.550781 145.546875 C 116.976562 145.796875 117.445312 145.921875 117.9375 145.921875 C 118.316406 145.933594 118.667969 145.855469 118.992188 145.6875 C 119.332031 145.578125 119.628906 145.390625 119.875 145.121094 C 120.144531 144.871094 120.332031 144.578125 120.441406 144.238281 C 120.613281 143.914062 120.691406 143.5625 120.679688 143.183594 C 120.648438 142.9375 120.617188 142.699219 120.582031 142.453125 C 120.453125 141.980469 120.214844 141.578125 119.875 141.234375 Z M 119.875 141.234375 " fill-opacity="1" fill-rule="nonzero"/><path fill="#333333" d="M 164.917969 204.875 C 164.882812 204.914062 164.847656 204.957031 164.816406 204.996094 C 164.328125 205.597656 164.152344 206.34375 164.554688 207.050781 C 169.09375 215.125 178.222656 220.046875 187.410156 220.367188 C 192.183594 220.53125 196.808594 219.4375 201.039062 217.246094 C 204.695312 215.34375 210.542969 211.578125 211.371094 207.253906 C 211.941406 204.285156 209.058594 201.863281 206.273438 203.339844 C 204.496094 204.277344 203.4375 206.09375 201.996094 207.457031 C 200.785156 208.609375 199.472656 209.589844 198.035156 210.441406 C 194.882812 212.3125 191.085938 213.691406 187.40625 213.925781 C 179.507812 214.417969 172.480469 210.667969 167.210938 204.996094 C 166.820312 204.574219 166.113281 204.382812 165.566406 204.558594 C 165.359375 204.628906 165.054688 204.691406 164.917969 204.875 Z M 164.917969 204.875 " fill-opacity="1" fill-rule="nonzero"/><path fill="#f0ead3" d="M 224.246094 166.519531 C 224.546875 174.996094 217.917969 182.109375 209.4375 182.414062 C 200.957031 182.71875 193.828125 176.09375 193.527344 167.621094 C 193.222656 159.144531 199.851562 152.03125 208.332031 151.726562 C 216.816406 151.421875 223.941406 158.039062 224.246094 166.519531 Z M 224.246094 166.519531 " fill-opacity="1" fill-rule="nonzero"/><path fill="#333333" d="M 218.957031 166.707031 C 219.15625 172.265625 214.8125 176.929688 209.246094 177.132812 C 203.683594 177.332031 199.011719 172.988281 198.8125 167.433594 C 198.613281 161.875 202.960938 157.210938 208.519531 157.007812 C 214.085938 156.808594 218.761719 161.152344 218.957031 166.707031 Z M 218.957031 166.707031 " fill-opacity="1" fill-rule="nonzero"/><path fill="#fefefe" d="M 218.179688 160.304688 C 218.269531 162.632812 216.445312 164.582031 214.121094 164.667969 C 211.792969 164.75 209.839844 162.9375 209.753906 160.609375 C 209.664062 158.285156 211.488281 156.332031 213.8125 156.242188 C 216.144531 156.160156 218.101562 157.976562 218.179688 160.304688 Z M 218.179688 160.304688 " fill-opacity="1" fill-rule="nonzero"/><path fill="#f0ead3" d="M 178.035156 168.175781 C 178.339844 176.648438 171.710938 183.769531 163.226562 184.070312 C 154.746094 184.375 147.621094 177.75 147.316406 169.277344 C 147.011719 160.804688 153.644531 153.6875 162.125 153.382812 C 170.605469 153.082031 177.730469 159.703125 178.035156 168.175781 Z M 178.035156 168.175781 " fill-opacity="1" fill-rule="nonzero"/><path fill="#333333" d="M 172.75 168.367188 C 172.949219 173.921875 168.601562 178.59375 163.042969 178.796875 C 157.480469 178.996094 152.808594 174.652344 152.609375 169.09375 C 152.410156 163.535156 156.757812 158.867188 162.316406 158.664062 C 167.878906 158.464844 172.550781 162.8125 172.75 168.367188 Z M 172.75 168.367188 " fill-opacity="1" fill-rule="nonzero"/><path fill="#fefefe" d="M 171.972656 161.96875 C 172.054688 164.296875 170.238281 166.246094 167.90625 166.332031 C 165.582031 166.417969 163.625 164.597656 163.539062 162.277344 C 163.457031 159.949219 165.273438 158 167.601562 157.910156 C 169.933594 157.824219 171.890625 159.640625 171.972656 161.96875 Z M 171.972656 161.96875 " fill-opacity="1" fill-rule="nonzero"/><path fill="#333333" d="M 148.707031 154.335938 C 150.675781 151.996094 152.09375 149.589844 155.195312 148.59375 C 158.179688 147.628906 161.300781 148.503906 164.246094 147.683594 C 166.410156 147.074219 166.523438 143.738281 164.246094 143.183594 C 158.160156 141.707031 147.335938 146.648438 147.914062 154.007812 C 147.9375 154.363281 148.421875 154.667969 148.707031 154.335938 Z M 148.707031 154.335938 " fill-opacity="1" fill-rule="nonzero"/><path fill="#333333" d="M 221.429688 148.074219 C 221.617188 145.910156 219.398438 144.089844 217.703125 143.085938 C 214.976562 141.46875 211.851562 141.03125 208.71875 140.988281 C 205.484375 140.941406 205.898438 145.996094 209.332031 145.511719 C 211.5625 145.203125 214.097656 144.71875 216.324219 145.378906 C 218.226562 145.9375 219.140625 147.425781 220.652344 148.515625 C 221.003906 148.761719 221.394531 148.417969 221.429688 148.074219 Z M 221.429688 148.074219 " fill-opacity="1" fill-rule="nonzero"/></svg>