<?xml version="1.0" encoding="iso-8859-1"?>
<!-- Uploaded to: SVG Repo, www.svgrepo.com, Generator: SVG Repo Mixer Tools -->
<svg height="800px" width="800px" version="1.1" id="Layer_1" xmlns="http://www.w3.org/2000/svg" xmlns:xlink="http://www.w3.org/1999/xlink" 
	 viewBox="0 0 512 512" xml:space="preserve">
<path style="fill:#ACAAB0;" d="M58.769,435.813C46.015,423.058,38.99,406.1,38.99,388.062c0-18.037,7.024-34.996,19.779-47.75
	l14.691-14.692c6.869-6.869,10.653-15.999,10.651-25.712c0-9.713-3.783-18.844-10.65-25.711c-14.177-14.177-37.245-14.177-51.422,0
	L0,252.158c26.33-26.33,69.171-26.329,95.5-0.001c12.755,12.755,19.78,29.714,19.78,47.752c-0.001,18.038-7.025,34.996-19.78,47.752
	l-14.691,14.691c-6.867,6.868-10.651,15.999-10.65,25.712c0,9.713,3.783,18.845,10.651,25.713
	c14.175,14.177,37.245,14.177,51.422-0.001L162.008,384l22.038,22.039l-29.775,29.775C127.941,462.143,85.1,462.143,58.769,435.813z
	"/>
<path style="fill:#D8D8DA;" d="M481.179,233.791c-36.731-36.731-7.343-66.115-44.078-102.846
	C400.37,94.214,370.987,123.6,334.255,86.87c-40.574-40.576-106.356-40.573-146.926-0.002c-20.661,20.66-30.792,47.861-30.41,74.94
	l-0.017,249.34l249.337-0.018c27.079,0.379,54.277-9.75,74.94-30.412c40.571-40.571,40.572-106.351,0-146.924L481.179,233.791z"/>
<path style="fill:#C6C5CA;" d="M481.572,233.399l-0.001-0.001c-36.688-36.687-7.419-66.043-43.95-102.713l-280.07,280.071
	l249.08-0.019c27.079,0.379,54.277-9.75,74.94-30.412C522.142,339.754,522.143,273.974,481.572,233.399z"/>
<path style="fill:#58575D;" d="M341.079,175.543l-0.002-0.003c-8.098-8.097-8.098-21.277-0.001-29.379
	c8.11-8.104,21.288-8.1,29.388-0.002c8.097,8.102,8.097,21.281,0.005,29.38C362.362,183.645,349.181,183.645,341.079,175.543z"/>
<path style="fill:#454449;" d="M392.506,226.971l-0.004-0.004c-8.101-8.1-8.101-21.283,0-29.386
	c8.114-8.096,21.288-8.092,29.383-0.004c8.105,8.111,8.103,21.292,0.003,29.39C413.788,235.066,400.609,235.067,392.506,226.971z"/>
</svg>