<svg xmlns="http://www.w3.org/2000/svg" xmlns:xlink="http://www.w3.org/1999/xlink" width="500" zoomAndPan="magnify" viewBox="0 0 375 374.999991" height="500" preserveAspectRatio="xMidYMid meet" version="1.0"><path fill="#587b24" d="M 317.492188 159.570312 C 317.492188 159.570312 306.992188 167.480469 285.234375 175.984375 C 280.5625 177.808594 275.332031 179.640625 269.597656 181.464844 C 259.144531 184.78125 246.953125 187.925781 232.972656 190.472656 C 232.925781 190.472656 232.925781 190.472656 232.890625 190.472656 C 211.683594 194.339844 195.753906 193.242188 183.128906 189.710938 C 163.320312 184.234375 151.675781 172.921875 140.628906 165.773438 C 139.613281 165.128906 138.585938 164.5 137.566406 163.902344 C 118.578125 153.0625 95.886719 148.9375 95.886719 148.9375 C 95.886719 148.9375 95.242188 138.5625 95.242188 134.402344 C 96.5625 133.046875 98.128906 131.519531 100.042969 129.894531 C 103.152344 127.21875 107.015625 124.238281 111.734375 121.261719 C 123.925781 113.433594 141.5625 105.324219 164.976562 101.152344 C 168.890625 100.429688 172.921875 99.878906 177.171875 99.414062 C 185.464844 98.476562 194.339844 98.09375 203.855469 98.300781 C 216.226562 98.59375 227.484375 100.300781 237.679688 102.976562 C 241.882812 104.085938 245.972656 105.3125 249.835938 106.761719 C 266.152344 112.625 279.324219 120.875 289.570312 129.078125 C 292.628906 131.542969 295.429688 134.007812 297.976562 136.390625 C 301.457031 139.660156 304.480469 142.804688 306.980469 145.703125 C 314.09375 153.75 317.492188 159.570312 317.492188 159.570312 Z M 317.492188 159.570312 " fill-opacity="1" fill-rule="nonzero"/><path fill="#70aa42" d="M 237.691406 102.988281 L 237.691406 108.386719 C 237.691406 113.78125 234.804688 118.761719 230.167969 121.433594 L 214.953125 130.234375 C 210.28125 132.910156 204.546875 132.910156 199.910156 130.234375 L 184.691406 121.433594 C 180.019531 118.761719 177.171875 113.78125 177.171875 108.386719 L 177.171875 99.425781 C 185.464844 98.488281 194.339844 98.105469 203.855469 98.3125 C 216.226562 98.617188 227.496094 100.3125 237.691406 102.988281 Z M 237.691406 102.988281 " fill-opacity="1" fill-rule="nonzero"/><path fill="#70aa42" d="M 289.582031 129.089844 L 287.628906 130.234375 C 282.992188 132.910156 277.257812 132.910156 272.585938 130.234375 L 257.371094 121.433594 C 252.734375 118.761719 249.847656 113.78125 249.847656 108.386719 L 249.847656 106.773438 C 266.164062 112.636719 279.335938 120.886719 289.582031 129.089844 Z M 289.582031 129.089844 " fill-opacity="1" fill-rule="nonzero"/><path fill="#70aa42" d="M 274.199219 153.074219 L 274.199219 170.632812 C 274.199219 174.804688 272.492188 178.671875 269.609375 181.476562 C 259.15625 184.792969 246.964844 187.9375 232.984375 190.484375 L 221.210938 183.683594 C 216.574219 181.007812 213.691406 176.03125 213.691406 170.632812 L 213.691406 153.074219 C 213.691406 147.675781 216.574219 142.699219 221.210938 140.023438 L 236.429688 131.226562 C 241.101562 128.550781 246.835938 128.550781 251.472656 131.226562 L 266.691406 140.023438 C 271.347656 142.699219 274.199219 147.675781 274.199219 153.074219 Z M 274.199219 153.074219 " fill-opacity="1" fill-rule="nonzero"/><path fill="#70aa42" d="M 317.492188 159.570312 C 317.492188 159.570312 306.992188 167.480469 285.234375 175.984375 C 284.558594 174.324219 284.21875 172.503906 284.21875 170.632812 L 284.21875 153.074219 C 284.21875 147.675781 287.070312 142.699219 291.742188 140.023438 L 297.988281 136.414062 C 301.46875 139.683594 304.492188 142.828125 306.992188 145.726562 C 314.09375 153.75 317.492188 159.570312 317.492188 159.570312 Z M 317.492188 159.570312 " fill-opacity="1" fill-rule="nonzero"/><path fill="#70aa42" d="M 164.976562 101.164062 L 164.976562 108.398438 C 164.976562 113.792969 162.128906 118.773438 157.457031 121.445312 L 142.238281 130.246094 C 137.566406 132.921875 131.867188 132.921875 127.195312 130.246094 L 111.980469 121.445312 C 111.898438 121.398438 111.804688 121.367188 111.722656 121.273438 C 123.925781 113.445312 141.5625 105.335938 164.976562 101.164062 Z M 164.976562 101.164062 " fill-opacity="1" fill-rule="nonzero"/><path fill="#70aa42" d="M 201.148438 153.074219 L 201.148438 170.632812 C 201.148438 176.03125 198.296875 181.007812 193.625 183.683594 L 183.128906 189.722656 C 163.320312 184.246094 151.675781 172.933594 140.628906 165.785156 L 140.628906 153.074219 C 140.628906 147.675781 143.476562 142.699219 148.148438 140.023438 L 163.367188 131.226562 C 168.039062 128.550781 173.773438 128.550781 178.410156 131.226562 L 193.625 140.023438 C 198.296875 142.699219 201.148438 147.675781 201.148438 153.074219 Z M 201.148438 153.074219 " fill-opacity="1" fill-rule="nonzero"/><path fill="#bed27e" d="M 112.320312 196.464844 C 112.320312 196.464844 101.222656 230.019531 117.679688 270.300781 C 118.449219 272.195312 116.3125 275.410156 113.507812 273.257812 C 97.601562 261.097656 55.382812 222.273438 74.675781 161.402344 L 95.335938 165.878906 Z M 112.320312 196.464844 " fill-opacity="1" fill-rule="nonzero"/><path fill="#bed27e" d="M 277.082031 208.5 C 277.082031 208.5 295.429688 224.527344 331.707031 227.566406 C 333.972656 227.753906 334.460938 230.871094 332.324219 231.65625 C 315.425781 237.835938 276.253906 247.203125 241.289062 218.816406 C 241.277344 218.804688 260.265625 209.585938 277.082031 208.5 Z M 277.082031 208.5 " fill-opacity="1" fill-rule="nonzero"/><path fill="#587b24" d="M 317.492188 159.570312 C 317.492188 159.570312 290.386719 180.015625 232.890625 190.472656 C 175.347656 200.976562 156.570312 174.746094 137.578125 163.902344 C 118.589844 153.0625 95.898438 148.9375 95.898438 148.9375 C 95.898438 148.9375 95.253906 138.5625 95.253906 134.402344 C 96.574219 133.046875 98.140625 131.519531 100.054688 129.894531 C 107.402344 131.761719 123.296875 136.402344 137.578125 143.832031 C 165.328125 158.285156 185.136719 183.625 235.867188 171.300781 C 271.734375 162.628906 294.847656 152.207031 307.003906 145.714844 C 314.09375 153.75 317.492188 159.570312 317.492188 159.570312 Z M 317.492188 159.570312 " fill-opacity="1" fill-rule="nonzero"/><path fill="#70aa42" d="M 107.742188 152.128906 C 107.179688 152.128906 106.722656 151.695312 106.675781 151.132812 C 106.652344 150.808594 106.140625 143.085938 107.808594 138.0625 C 107.996094 137.5 108.605469 137.21875 109.152344 137.382812 C 109.714844 137.570312 110.019531 138.175781 109.832031 138.726562 C 108.289062 143.339844 108.792969 150.902344 108.804688 150.980469 C 108.851562 151.566406 108.40625 152.082031 107.820312 152.117188 C 107.785156 152.128906 107.761719 152.128906 107.742188 152.128906 Z M 107.742188 152.128906 " fill-opacity="1" fill-rule="nonzero"/><path fill="#70aa42" d="M 129.289062 160.492188 C 129.242188 160.492188 129.195312 160.492188 129.148438 160.480469 C 128.5625 160.410156 128.15625 159.875 128.226562 159.289062 C 128.273438 158.960938 129.289062 151.296875 131.914062 146.695312 C 132.207031 146.179688 132.851562 146.003906 133.363281 146.296875 C 133.878906 146.589844 134.054688 147.230469 133.761719 147.746094 C 131.34375 151.976562 130.351562 159.488281 130.339844 159.558594 C 130.269531 160.105469 129.8125 160.492188 129.289062 160.492188 Z M 129.289062 160.492188 " fill-opacity="1" fill-rule="nonzero"/><path fill="#70aa42" d="M 149.210938 172.886719 C 149.09375 172.886719 148.976562 172.863281 148.863281 172.828125 C 148.3125 172.644531 148.019531 172.023438 148.207031 171.472656 C 148.324219 171.171875 150.90625 163.867188 154.433594 159.917969 C 154.828125 159.488281 155.507812 159.441406 155.9375 159.839844 C 156.371094 160.222656 156.417969 160.902344 156.019531 161.34375 C 152.773438 164.980469 150.238281 172.117188 150.214844 172.1875 C 150.054688 172.621094 149.644531 172.886719 149.210938 172.886719 Z M 149.210938 172.886719 " fill-opacity="1" fill-rule="nonzero"/><path fill="#70aa42" d="M 171.996094 185.820312 C 171.9375 185.820312 171.890625 185.820312 171.832031 185.808594 C 171.25 185.726562 170.851562 185.179688 170.945312 184.59375 C 170.992188 184.269531 172.195312 176.625 174.929688 172.09375 C 175.230469 171.589844 175.886719 171.441406 176.386719 171.730469 C 176.890625 172.035156 177.042969 172.691406 176.75 173.191406 C 174.226562 177.363281 173.058594 184.839844 173.046875 184.910156 C 172.964844 185.449219 172.511719 185.820312 171.996094 185.820312 Z M 171.996094 185.820312 " fill-opacity="1" fill-rule="nonzero"/><path fill="#70aa42" d="M 198.296875 192.550781 C 197.714844 192.550781 197.234375 192.070312 197.234375 191.488281 C 197.234375 191.160156 197.257812 183.425781 199.265625 178.519531 C 199.488281 177.980469 200.121094 177.726562 200.65625 177.945312 C 201.195312 178.167969 201.464844 178.789062 201.230469 179.335938 C 199.371094 183.847656 199.347656 191.417969 199.347656 191.488281 C 199.359375 192.070312 198.882812 192.550781 198.296875 192.550781 Z M 198.296875 192.550781 " fill-opacity="1" fill-rule="nonzero"/><path fill="#70aa42" d="M 227.074219 191.652344 C 226.585938 191.652344 226.152344 191.3125 226.035156 190.820312 C 225.964844 190.507812 224.320312 182.949219 225.230469 177.726562 C 225.335938 177.152344 225.835938 176.730469 226.457031 176.859375 C 227.027344 176.964844 227.425781 177.515625 227.320312 178.085938 C 226.480469 182.890625 228.089844 190.285156 228.113281 190.355469 C 228.242188 190.925781 227.878906 191.488281 227.308594 191.617188 C 227.226562 191.652344 227.144531 191.652344 227.074219 191.652344 Z M 227.074219 191.652344 " fill-opacity="1" fill-rule="nonzero"/><path fill="#70aa42" d="M 254.179688 186.839844 C 253.773438 186.839844 253.375 186.605469 253.199219 186.195312 C 253.070312 185.890625 250 178.789062 249.894531 173.496094 C 249.882812 172.910156 250.351562 172.421875 250.933594 172.410156 C 251.542969 172.46875 252.007812 172.863281 252.019531 173.449219 C 252.125 178.320312 255.117188 185.273438 255.152344 185.34375 C 255.382812 185.878906 255.140625 186.5 254.601562 186.746094 C 254.472656 186.816406 254.332031 186.839844 254.179688 186.839844 Z M 254.179688 186.839844 " fill-opacity="1" fill-rule="nonzero"/><path fill="#70aa42" d="M 279.28125 178.519531 C 278.90625 178.519531 278.542969 178.320312 278.34375 177.96875 C 278.179688 177.679688 274.492188 170.890625 273.90625 165.621094 C 273.835938 165.035156 274.257812 164.511719 274.839844 164.453125 C 275.414062 164.382812 275.949219 164.816406 276.007812 165.386719 C 276.546875 170.222656 280.167969 176.882812 280.203125 176.941406 C 280.480469 177.457031 280.296875 178.097656 279.78125 178.378906 C 279.628906 178.484375 279.453125 178.519531 279.28125 178.519531 Z M 279.28125 178.519531 " fill-opacity="1" fill-rule="nonzero"/><path fill="#70aa42" d="M 304.679688 167.410156 C 304.367188 167.410156 304.050781 167.269531 303.851562 167 C 303.664062 166.765625 299.34375 161.238281 298.035156 156.613281 C 297.871094 156.050781 298.199219 155.457031 298.769531 155.304688 C 299.367188 155.140625 299.925781 155.480469 300.078125 156.042969 C 301.269531 160.269531 305.476562 165.644531 305.523438 165.703125 C 305.882812 166.160156 305.800781 166.835938 305.347656 167.199219 C 305.136719 167.339844 304.914062 167.410156 304.679688 167.410156 Z M 304.679688 167.410156 " fill-opacity="1" fill-rule="nonzero"/><path fill="#bed27e" d="M 337.847656 171.859375 C 331.34375 173.4375 325.65625 176.625 320.039062 180.65625 C 298.574219 196.007812 278.136719 223.980469 214.695312 223.980469 C 139.984375 223.980469 92.101562 184.105469 79.769531 173.261719 C 78.882812 172.539062 78.191406 171.90625 77.691406 171.472656 C 21.421875 169.136719 6.378906 149.628906 12.757812 126.15625 C 19.144531 102.648438 37.28125 86.921875 64.820312 88.710938 C 92.359375 90.453125 95.242188 134.414062 95.242188 134.414062 C 95.242188 138.585938 95.886719 148.949219 95.886719 148.949219 C 95.886719 148.949219 118.578125 153.074219 137.566406 163.914062 C 138.585938 164.511719 139.613281 165.152344 140.628906 165.785156 C 151.675781 172.921875 163.320312 184.234375 183.128906 189.722656 C 195.753906 193.253906 211.683594 194.363281 232.890625 190.484375 C 232.9375 190.484375 232.9375 190.484375 232.972656 190.484375 C 246.953125 187.9375 259.144531 184.78125 269.597656 181.476562 C 275.332031 179.652344 280.5625 177.820312 285.234375 175.996094 C 306.992188 167.492188 317.492188 159.582031 317.492188 159.582031 C 366.871094 156.507812 352.761719 167.78125 337.847656 171.859375 Z M 337.847656 171.859375 " fill-opacity="1" fill-rule="nonzero"/><path fill="#edde84" d="M 320.050781 180.65625 C 298.585938 196.007812 278.148438 223.980469 214.707031 223.980469 C 139.996094 223.980469 92.113281 184.105469 79.78125 173.261719 C 84.964844 171.089844 96.097656 167.992188 110.636719 173.308594 C 130.910156 180.75 178.070312 207.480469 226.898438 200.984375 C 275.730469 194.480469 302.332031 177.304688 315.507812 179.09375 C 317.410156 179.335938 318.894531 179.898438 320.050781 180.65625 Z M 320.050781 180.65625 " fill-opacity="1" fill-rule="nonzero"/><path fill="#ffffff" d="M 70.203125 113.433594 C 70.203125 114.03125 70.179688 114.628906 70.128906 115.222656 C 70.078125 115.820312 70.003906 116.414062 69.90625 117 C 69.804688 117.585938 69.683594 118.167969 69.535156 118.738281 C 69.386719 119.3125 69.214844 119.875 69.019531 120.429688 C 68.828125 120.984375 68.609375 121.523438 68.367188 122.050781 C 68.128906 122.578125 67.867188 123.09375 67.585938 123.589844 C 67.300781 124.089844 67 124.570312 66.675781 125.03125 C 66.351562 125.496094 66.011719 125.9375 65.652344 126.359375 C 65.292969 126.785156 64.914062 127.1875 64.519531 127.566406 C 64.128906 127.945312 63.71875 128.300781 63.296875 128.636719 C 62.871094 128.96875 62.4375 129.273438 61.988281 129.558594 C 61.539062 129.839844 61.078125 130.09375 60.609375 130.324219 C 60.136719 130.554688 59.660156 130.753906 59.171875 130.929688 C 58.683594 131.101562 58.191406 131.25 57.691406 131.367188 C 57.191406 131.480469 56.691406 131.570312 56.183594 131.628906 C 55.675781 131.6875 55.167969 131.714844 54.660156 131.714844 C 54.152344 131.714844 53.644531 131.6875 53.136719 131.628906 C 52.628906 131.570312 52.125 131.480469 51.628906 131.367188 C 51.128906 131.25 50.632812 131.101562 50.148438 130.929688 C 49.660156 130.753906 49.179688 130.554688 48.710938 130.324219 C 48.242188 130.09375 47.78125 129.839844 47.332031 129.558594 C 46.882812 129.273438 46.445312 128.96875 46.023438 128.636719 C 45.601562 128.300781 45.191406 127.945312 44.796875 127.566406 C 44.40625 127.1875 44.027344 126.785156 43.667969 126.359375 C 43.308594 125.9375 42.964844 125.496094 42.644531 125.03125 C 42.320312 124.570312 42.019531 124.089844 41.734375 123.589844 C 41.453125 123.09375 41.191406 122.578125 40.949219 122.050781 C 40.710938 121.523438 40.492188 120.984375 40.296875 120.429688 C 40.105469 119.875 39.933594 119.3125 39.785156 118.738281 C 39.636719 118.167969 39.511719 117.585938 39.414062 117 C 39.316406 116.414062 39.238281 115.820312 39.191406 115.222656 C 39.140625 114.628906 39.117188 114.03125 39.117188 113.433594 C 39.117188 112.832031 39.140625 112.234375 39.191406 111.640625 C 39.238281 111.042969 39.316406 110.453125 39.414062 109.867188 C 39.511719 109.277344 39.636719 108.699219 39.785156 108.125 C 39.933594 107.550781 40.105469 106.988281 40.296875 106.433594 C 40.492188 105.882812 40.710938 105.339844 40.949219 104.8125 C 41.191406 104.285156 41.453125 103.773438 41.734375 103.273438 C 42.019531 102.777344 42.320312 102.296875 42.644531 101.832031 C 42.964844 101.371094 43.308594 100.925781 43.667969 100.503906 C 44.027344 100.082031 44.40625 99.679688 44.796875 99.296875 C 45.191406 98.917969 45.601562 98.5625 46.023438 98.230469 C 46.445312 97.898438 46.882812 97.589844 47.332031 97.308594 C 47.78125 97.023438 48.242188 96.769531 48.710938 96.539062 C 49.179688 96.3125 49.660156 96.109375 50.148438 95.933594 C 50.632812 95.761719 51.128906 95.617188 51.628906 95.5 C 52.125 95.382812 52.628906 95.296875 53.136719 95.234375 C 53.644531 95.175781 54.152344 95.148438 54.660156 95.148438 C 55.167969 95.148438 55.675781 95.175781 56.183594 95.234375 C 56.691406 95.296875 57.191406 95.382812 57.691406 95.5 C 58.191406 95.617188 58.683594 95.761719 59.171875 95.933594 C 59.660156 96.109375 60.136719 96.3125 60.609375 96.539062 C 61.078125 96.769531 61.539062 97.023438 61.988281 97.308594 C 62.4375 97.589844 62.871094 97.898438 63.296875 98.230469 C 63.71875 98.5625 64.128906 98.917969 64.519531 99.296875 C 64.914062 99.679688 65.292969 100.082031 65.652344 100.503906 C 66.011719 100.925781 66.351562 101.371094 66.675781 101.832031 C 67 102.296875 67.300781 102.777344 67.585938 103.273438 C 67.867188 103.773438 68.128906 104.285156 68.367188 104.8125 C 68.609375 105.339844 68.828125 105.882812 69.019531 106.433594 C 69.214844 106.988281 69.386719 107.550781 69.535156 108.125 C 69.683594 108.699219 69.804688 109.277344 69.90625 109.867188 C 70.003906 110.453125 70.078125 111.042969 70.128906 111.640625 C 70.179688 112.234375 70.203125 112.832031 70.203125 113.433594 Z M 70.203125 113.433594 " fill-opacity="1" fill-rule="nonzero"/><path fill="#587b24" d="M 67.144531 113.433594 C 67.144531 114.398438 67.066406 115.351562 66.90625 116.296875 C 66.746094 117.242188 66.507812 118.160156 66.195312 119.050781 C 65.878906 119.941406 65.496094 120.789062 65.039062 121.589844 C 64.585938 122.394531 64.066406 123.136719 63.488281 123.816406 C 62.90625 124.5 62.277344 125.109375 61.597656 125.644531 C 60.914062 126.179688 60.195312 126.632812 59.4375 127 C 58.679688 127.371094 57.898438 127.648438 57.09375 127.835938 C 56.292969 128.023438 55.480469 128.117188 54.660156 128.117188 C 53.839844 128.117188 53.027344 128.023438 52.222656 127.835938 C 51.421875 127.648438 50.640625 127.371094 49.882812 127 C 49.125 126.632812 48.40625 126.179688 47.722656 125.644531 C 47.042969 125.109375 46.410156 124.5 45.832031 123.816406 C 45.253906 123.136719 44.734375 122.394531 44.277344 121.589844 C 43.824219 120.789062 43.4375 119.941406 43.125 119.050781 C 42.8125 118.160156 42.574219 117.242188 42.414062 116.296875 C 42.253906 115.351562 42.175781 114.398438 42.175781 113.433594 C 42.175781 112.46875 42.253906 111.511719 42.414062 110.566406 C 42.574219 109.621094 42.8125 108.703125 43.125 107.8125 C 43.4375 106.921875 43.824219 106.074219 44.277344 105.273438 C 44.734375 104.472656 45.253906 103.730469 45.832031 103.046875 C 46.410156 102.367188 47.042969 101.757812 47.722656 101.222656 C 48.40625 100.6875 49.125 100.234375 49.882812 99.863281 C 50.640625 99.496094 51.421875 99.21875 52.222656 99.027344 C 53.027344 98.839844 53.839844 98.746094 54.660156 98.746094 C 55.480469 98.746094 56.292969 98.839844 57.09375 99.027344 C 57.898438 99.21875 58.679688 99.496094 59.4375 99.863281 C 60.195312 100.234375 60.914062 100.6875 61.597656 101.222656 C 62.277344 101.757812 62.90625 102.367188 63.488281 103.046875 C 64.066406 103.730469 64.585938 104.472656 65.039062 105.273438 C 65.496094 106.074219 65.878906 106.921875 66.195312 107.8125 C 66.507812 108.703125 66.746094 109.621094 66.90625 110.566406 C 67.066406 111.511719 67.144531 112.46875 67.144531 113.433594 Z M 67.144531 113.433594 " fill-opacity="1" fill-rule="nonzero"/><path fill="#ffffff" d="M 67.34375 105.910156 C 67.34375 106.242188 67.316406 106.574219 67.261719 106.898438 C 67.203125 107.226562 67.121094 107.546875 67.015625 107.851562 C 66.90625 108.160156 66.773438 108.453125 66.613281 108.730469 C 66.457031 109.007812 66.277344 109.265625 66.078125 109.503906 C 65.875 109.738281 65.660156 109.949219 65.421875 110.132812 C 65.1875 110.320312 64.9375 110.476562 64.675781 110.605469 C 64.414062 110.730469 64.144531 110.828125 63.863281 110.894531 C 63.585938 110.957031 63.304688 110.992188 63.023438 110.992188 C 62.738281 110.992188 62.457031 110.957031 62.179688 110.894531 C 61.902344 110.828125 61.628906 110.730469 61.367188 110.605469 C 61.105469 110.476562 60.855469 110.320312 60.621094 110.132812 C 60.386719 109.949219 60.167969 109.738281 59.964844 109.503906 C 59.765625 109.265625 59.585938 109.007812 59.429688 108.730469 C 59.269531 108.453125 59.136719 108.160156 59.03125 107.851562 C 58.921875 107.546875 58.839844 107.226562 58.785156 106.898438 C 58.726562 106.574219 58.699219 106.242188 58.699219 105.910156 C 58.699219 105.574219 58.726562 105.246094 58.785156 104.917969 C 58.839844 104.589844 58.921875 104.273438 59.03125 103.964844 C 59.136719 103.65625 59.269531 103.363281 59.429688 103.085938 C 59.585938 102.808594 59.765625 102.550781 59.964844 102.316406 C 60.167969 102.078125 60.386719 101.867188 60.621094 101.683594 C 60.855469 101.496094 61.105469 101.339844 61.367188 101.214844 C 61.628906 101.085938 61.902344 100.988281 62.179688 100.925781 C 62.457031 100.859375 62.738281 100.828125 63.023438 100.828125 C 63.304688 100.828125 63.585938 100.859375 63.863281 100.925781 C 64.144531 100.988281 64.414062 101.085938 64.675781 101.214844 C 64.9375 101.339844 65.1875 101.496094 65.421875 101.683594 C 65.660156 101.867188 65.875 102.078125 66.078125 102.316406 C 66.277344 102.550781 66.457031 102.808594 66.613281 103.085938 C 66.773438 103.363281 66.90625 103.65625 67.015625 103.964844 C 67.121094 104.273438 67.203125 104.589844 67.261719 104.917969 C 67.316406 105.246094 67.34375 105.574219 67.34375 105.910156 Z M 67.34375 105.910156 " fill-opacity="1" fill-rule="nonzero"/><path fill="#bed27e" d="M 250.769531 193.03125 C 250.769531 193.03125 287.863281 229.445312 359.488281 204.492188 C 363.050781 203.253906 362.246094 197.9375 358.484375 197.855469 C 340.699219 197.46875 313.707031 194.09375 291.203125 179.453125 Z M 250.769531 193.03125 " fill-opacity="1" fill-rule="nonzero"/><path fill="#bed27e" d="M 159.640625 182.714844 C 159.640625 182.714844 161.21875 231.117188 196.324219 281.949219 C 197.890625 284.207031 195.578125 287.136719 193.007812 286.179688 C 173.902344 279.113281 126.273438 254.625 109.996094 182.714844 L 106.652344 166.078125 Z M 159.640625 182.714844 " fill-opacity="1" fill-rule="nonzero"/><path fill="#587b24" d="M 41.148438 156.71875 C 27.832031 156.71875 16.492188 148.515625 16.328125 148.386719 C 15.851562 148.039062 15.757812 147.371094 16.109375 146.90625 C 16.457031 146.4375 17.125 146.332031 17.589844 146.683594 C 17.800781 146.847656 39.96875 162.839844 57.800781 148.867188 C 58.269531 148.503906 58.933594 148.597656 59.296875 149.054688 C 59.660156 149.523438 59.578125 150.1875 59.109375 150.550781 C 53.257812 155.117188 47.011719 156.71875 41.148438 156.71875 Z M 41.148438 156.71875 " fill-opacity="1" fill-rule="nonzero"/><path fill="#d8c879" d="M 263.429688 216.257812 C 263.1875 216.257812 262.941406 216.175781 262.742188 216 C 255.222656 209.574219 250.703125 198.953125 250.515625 198.507812 C 250.28125 197.972656 250.539062 197.351562 251.085938 197.121094 C 251.625 196.886719 252.253906 197.140625 252.476562 197.691406 C 252.523438 197.796875 256.996094 208.300781 264.121094 214.386719 C 264.5625 214.773438 264.621094 215.4375 264.238281 215.882812 C 264.027344 216.128906 263.722656 216.257812 263.429688 216.257812 Z M 263.429688 216.257812 " fill-opacity="1" fill-rule="nonzero"/><path fill="#d8c879" d="M 230.601562 223.21875 C 230.203125 223.21875 229.820312 222.996094 229.644531 222.613281 C 225.078125 212.925781 224.761719 202.984375 224.75 202.5625 C 224.738281 201.980469 225.195312 201.488281 225.777344 201.476562 C 226.339844 201.523438 226.851562 201.921875 226.863281 202.503906 C 226.863281 202.609375 227.191406 212.449219 231.558594 221.710938 C 231.804688 222.238281 231.582031 222.867188 231.046875 223.125 C 230.917969 223.183594 230.765625 223.21875 230.601562 223.21875 Z M 230.601562 223.21875 " fill-opacity="1" fill-rule="nonzero"/><path fill="#d8c879" d="M 195.707031 222.132812 C 195.15625 222.132812 194.699219 221.710938 194.644531 221.164062 C 193.917969 212.902344 195.402344 202.714844 195.472656 202.28125 C 195.554688 201.699219 196.101562 201.277344 196.675781 201.382812 C 197.257812 201.464844 197.65625 202.015625 197.574219 202.585938 C 197.5625 202.691406 196.066406 212.960938 196.769531 220.976562 C 196.816406 221.558594 196.382812 222.074219 195.800781 222.121094 C 195.765625 222.132812 195.742188 222.132812 195.707031 222.132812 Z M 195.707031 222.132812 " fill-opacity="1" fill-rule="nonzero"/><path fill="#d8c879" d="M 165.058594 206.933594 C 165 206.933594 164.941406 206.933594 164.886719 206.921875 C 164.3125 206.828125 163.914062 206.277344 164.019531 205.695312 L 165.644531 196.113281 C 165.738281 195.542969 166.25 195.109375 166.871094 195.25 C 167.441406 195.34375 167.839844 195.890625 167.734375 196.476562 L 166.109375 206.058594 C 166.019531 206.570312 165.574219 206.933594 165.058594 206.933594 Z M 165.058594 206.933594 " fill-opacity="1" fill-rule="nonzero"/></svg>