<svg xmlns="http://www.w3.org/2000/svg" xmlns:xlink="http://www.w3.org/1999/xlink" width="500" zoomAndPan="magnify" viewBox="0 0 375 374.999991" height="500" preserveAspectRatio="xMidYMid meet" version="1.0"><path fill="#9a5530" d="M 356.546875 192.425781 C 341.480469 177.582031 316.523438 174.484375 297.503906 182.902344 C 287.671875 187.253906 279.464844 192.84375 272.738281 202.214844 C 266.582031 211.972656 264.484375 221.6875 264.144531 232.441406 C 263.484375 253.246094 275.714844 275.246094 295.113281 283.65625 C 301.082031 286.246094 307.761719 287.160156 314.210938 286.316406 C 318.273438 285.785156 329.039062 284.132812 328.789062 278.542969 C 328.679688 276.121094 326.882812 274.03125 324.742188 272.890625 C 322.605469 271.75 320.152344 271.386719 317.753906 271.035156 C 320.507812 271.296875 322.996094 268.765625 323.324219 266.015625 C 323.652344 263.265625 322.226562 260.539062 320.226562 258.628906 C 318.222656 256.71875 315.691406 255.476562 313.203125 254.265625 C 314.570312 254.597656 315.921875 253.320312 316.160156 251.933594 C 316.394531 250.542969 315.816406 249.148438 315.136719 247.914062 C 312.476562 243.078125 307.933594 239.289062 303.066406 236.804688 C 304.570312 237.226562 308.015625 237.167969 308.558594 235.25 C 308.941406 233.894531 308.691406 232.441406 308.296875 231.089844 C 307.277344 227.621094 305.285156 224.449219 302.617188 222.011719 C 305.578125 224.140625 309.464844 224.96875 313.023438 224.144531 C 316.484375 223.339844 317.894531 221.613281 318.621094 218.367188 C 318.371094 219.492188 322.316406 222.453125 323.183594 223.117188 C 324.976562 224.492188 327.378906 225.355469 329.5625 225.835938 C 329.957031 225.921875 330.367188 225.988281 330.78125 226.027344 C 332.398438 226.175781 334.078125 225.886719 335.003906 224.621094 C 336.148438 223.046875 335.507812 220.855469 334.828125 219.03125 C 338.070312 223.402344 345.148438 228.332031 350.796875 225.21875 C 353.21875 223.882812 354.628906 220.625 353.355469 218.167969 C 354.578125 220.261719 355.835938 222.398438 357.695312 223.957031 C 359.550781 225.511719 362.160156 226.398438 364.445312 225.589844 C 369.714844 223.726562 367.207031 213.117188 366.175781 209.148438 C 364.535156 202.847656 361.183594 196.992188 356.546875 192.425781 Z M 356.546875 192.425781 " fill-opacity="1" fill-rule="nonzero"/><path fill="#9a5530" d="M 59.414062 248.582031 C 58.96875 254.875 57.839844 261.738281 53.082031 265.878906 C 50.414062 268.199219 46.882812 269.347656 43.363281 269.683594 C 39.84375 270.015625 36.300781 269.589844 32.800781 269.082031 C 28.289062 268.429688 23.761719 267.628906 19.527344 265.945312 C 15.292969 264.257812 11.332031 261.625 8.714844 257.890625 C 7.105469 255.589844 6.03125 252.585938 7.085938 249.980469 C 8.066406 247.550781 10.707031 246.109375 13.3125 245.820312 C 15.917969 245.53125 18.527344 246.195312 21.054688 246.878906 C 22.777344 247.34375 27.113281 249.351562 28.207031 246.949219 C 29.09375 244.996094 26.046875 239.351562 25.457031 237.285156 C 23.628906 230.886719 22.34375 224.332031 21.5625 217.722656 C 20.707031 210.484375 20.304688 203.046875 20.9375 195.765625 C 20.945312 195.664062 20.957031 195.558594 20.964844 195.457031 C 32.089844 204.742188 42.316406 214.941406 50.347656 227.003906 C 54.800781 233.6875 59.980469 240.570312 59.414062 248.582031 Z M 59.414062 248.582031 " fill-opacity="1" fill-rule="nonzero"/><path fill="#b8714b" d="M 100.59375 259.0625 C 80.035156 259.296875 55.40625 259.496094 38.605469 243.734375 C 6.824219 213.914062 22.628906 125.441406 46.082031 103.105469 C 60.449219 89.421875 84.679688 88.421875 98.613281 103.789062 C 118.464844 125.691406 111.050781 167.886719 154.453125 163.273438 C 168.820312 161.746094 186.109375 153.910156 222.28125 159.71875 C 259.976562 165.773438 292.046875 188.664062 281.441406 211.242188 C 272.394531 230.503906 208.242188 248.28125 187.554688 252.515625 C 159.023438 258.359375 129.769531 258.730469 100.59375 259.0625 Z M 100.59375 259.0625 " fill-opacity="1" fill-rule="nonzero"/><path fill="#b8714b" d="M 131.460938 226.832031 C 130.996094 236.949219 130.527344 247.066406 130.0625 257.1875 C 129.964844 259.285156 129.9375 261.601562 131.285156 263.214844 C 133.027344 265.304688 136.179688 265.238281 138.898438 265.246094 C 142.628906 265.253906 146.355469 265.734375 149.964844 266.667969 C 153.597656 267.609375 157.546875 269.457031 158.625 273.054688 C 159.582031 276.253906 157.773438 279.78125 155.078125 281.742188 C 152.382812 283.707031 148.988281 284.410156 145.683594 284.839844 C 138.644531 285.753906 131.519531 285.664062 124.425781 285.496094 C 115.828125 285.292969 106.78125 284.84375 99.492188 280.277344 C 92.3125 275.777344 87.859375 267.761719 86.082031 259.46875 C 84.304688 251.179688 84.929688 242.566406 86.042969 234.160156 C 98.933594 224.019531 115.953125 221.511719 131.460938 226.832031 Z M 131.460938 226.832031 " fill-opacity="1" fill-rule="nonzero"/><path fill="#b8714b" d="M 71.976562 155.152344 C 71.945312 155.199219 71.914062 155.246094 71.886719 155.292969 " fill-opacity="1" fill-rule="nonzero"/><path fill="#b8714b" d="M 71.886719 155.292969 C 71.851562 155.25 71.816406 155.207031 71.78125 155.160156 " fill-opacity="1" fill-rule="nonzero"/><path fill="#472b1e" d="M 79.269531 125.742188 C 79.054688 125.425781 78.710938 125.320312 78.363281 125.195312 C 77.976562 125.058594 77.589844 124.933594 77.195312 124.820312 C 76.460938 124.609375 75.714844 124.4375 74.960938 124.3125 C 73.4375 124.058594 71.882812 123.972656 70.339844 124.058594 C 67.25 124.234375 64.199219 125.105469 61.53125 126.683594 C 61.316406 126.808594 61.492188 127.191406 61.722656 127.082031 C 64.433594 125.765625 67.375 125.007812 70.386719 124.898438 C 71.875 124.84375 73.371094 124.949219 74.839844 125.21875 C 75.566406 125.351562 76.285156 125.527344 76.996094 125.738281 C 77.632812 125.929688 78.421875 126.40625 79.085938 126.277344 C 79.3125 126.230469 79.386719 125.914062 79.269531 125.742188 Z M 79.269531 125.742188 " fill-opacity="1" fill-rule="nonzero"/><path fill="#472b1e" d="M 68.617188 133.980469 C 68.925781 134.152344 69.316406 134.292969 69.613281 134.105469 C 69.933594 133.90625 69.960938 133.457031 69.914062 133.082031 C 69.765625 131.949219 67.878906 127.898438 66.234375 129.472656 C 64.78125 130.859375 67.566406 133.40625 68.617188 133.980469 Z M 68.617188 133.980469 " fill-opacity="1" fill-rule="nonzero"/><path fill="#472b1e" d="M 72.886719 133.753906 C 72.597656 133.957031 72.222656 134.136719 71.90625 133.984375 C 71.566406 133.820312 71.492188 133.375 71.5 133 C 71.527344 131.855469 72.972656 127.628906 74.777344 129.015625 C 76.367188 130.246094 73.867188 133.070312 72.886719 133.753906 Z M 72.886719 133.753906 " fill-opacity="1" fill-rule="nonzero"/><path fill="#fff1f7" d="M 49.410156 159.085938 C 46.515625 165.234375 47.179688 172.445312 48.617188 179.085938 C 50.054688 185.726562 52.210938 192.316406 52.121094 199.109375 C 52.101562 200.527344 51.921875 202.085938 50.894531 203.0625 C 49.859375 204.054688 48.203125 204.148438 46.867188 203.628906 C 45.53125 203.109375 44.460938 202.085938 43.496094 201.027344 C 38.59375 195.628906 35.5625 188.730469 33.875 181.632812 C 32.183594 174.539062 31.761719 167.203125 31.550781 159.910156 C 34.5 157.058594 38.117188 155.03125 42.214844 154.859375 C 43.675781 154.800781 45.179688 154.9375 46.507812 155.546875 C 47.839844 156.15625 49.046875 157.667969 49.410156 159.085938 Z M 49.410156 159.085938 " fill-opacity="1" fill-rule="nonzero"/><path fill="#d1d3d4" d="M 36.097656 178.414062 C 35.921875 177.71875 35.765625 177.019531 35.613281 176.320312 C 35.300781 174.851562 35.058594 173.355469 34.882812 171.863281 C 34.835938 171.476562 34.257812 171.5 34.273438 171.894531 C 34.328125 173.4375 34.484375 174.964844 34.75 176.484375 C 34.878906 177.230469 35.039062 177.972656 35.222656 178.707031 C 35.371094 179.292969 35.492188 180.183594 36.027344 180.542969 C 36.136719 180.617188 36.324219 180.546875 36.375 180.429688 C 36.621094 179.847656 36.246094 178.996094 36.097656 178.414062 Z M 36.097656 178.414062 " fill-opacity="1" fill-rule="nonzero"/><path fill="#d1d3d4" d="M 38.300781 180.355469 C 38.1875 179.832031 38.066406 179.3125 37.953125 178.789062 C 37.714844 177.726562 37.480469 176.664062 37.265625 175.597656 C 37.175781 175.132812 36.363281 175.28125 36.441406 175.753906 C 36.621094 176.832031 36.816406 177.902344 37.027344 178.972656 C 37.132812 179.5 37.25 180.019531 37.367188 180.542969 C 37.429688 180.816406 37.496094 181.078125 37.601562 181.339844 C 37.691406 181.570312 37.761719 181.824219 37.972656 181.972656 C 38.109375 182.070312 38.292969 182.058594 38.375 181.898438 C 38.601562 181.472656 38.398438 180.800781 38.300781 180.355469 Z M 38.300781 180.355469 " fill-opacity="1" fill-rule="nonzero"/><path fill="#d1d3d4" d="M 39.414062 187.035156 C 39.253906 186.550781 39.09375 186.0625 38.925781 185.578125 C 38.585938 184.59375 38.238281 183.609375 37.878906 182.628906 C 37.730469 182.222656 37.160156 182.429688 37.25 182.839844 C 37.480469 183.863281 37.742188 184.867188 38.050781 185.871094 C 38.203125 186.359375 38.367188 186.84375 38.539062 187.328125 C 38.695312 187.757812 38.886719 188.375 39.265625 188.652344 C 39.414062 188.761719 39.621094 188.714844 39.671875 188.523438 C 39.789062 188.066406 39.558594 187.472656 39.414062 187.035156 Z M 39.414062 187.035156 " fill-opacity="1" fill-rule="nonzero"/><path fill="#d1d3d4" d="M 45.46875 199.378906 C 45.222656 198.945312 44.953125 198.519531 44.691406 198.09375 C 44.160156 197.222656 43.566406 196.398438 42.992188 195.554688 C 42.773438 195.234375 42.320312 195.550781 42.496094 195.882812 C 42.972656 196.789062 43.421875 197.703125 43.941406 198.585938 C 44.199219 199.019531 44.441406 199.457031 44.710938 199.878906 C 44.960938 200.265625 45.253906 200.78125 45.679688 200.984375 C 45.84375 201.0625 46 200.941406 46.007812 200.773438 C 46.027344 200.292969 45.695312 199.785156 45.46875 199.378906 Z M 45.46875 199.378906 " fill-opacity="1" fill-rule="nonzero"/><path fill="#fff1f7" d="M 94.636719 156.683594 C 98.164062 162.488281 98.269531 169.730469 97.542969 176.484375 C 96.816406 183.242188 95.367188 190.023438 96.175781 196.769531 C 96.34375 198.179688 96.6875 199.707031 97.8125 200.570312 C 98.945312 201.445312 100.605469 201.363281 101.878906 200.707031 C 103.152344 200.050781 104.105469 198.917969 104.953125 197.761719 C 109.257812 191.875 111.542969 184.691406 112.472656 177.457031 C 113.402344 170.222656 113.046875 162.886719 112.484375 155.613281 C 109.25 153.085938 105.441406 151.453125 101.347656 151.71875 C 99.886719 151.8125 98.40625 152.109375 97.148438 152.855469 C 95.890625 153.601562 94.847656 155.234375 94.636719 156.683594 Z M 94.636719 156.683594 " fill-opacity="1" fill-rule="nonzero"/><path fill="#d1d3d4" d="M 109.917969 174.492188 C 110.019531 173.78125 110.105469 173.070312 110.179688 172.359375 C 110.335938 170.863281 110.417969 169.351562 110.433594 167.847656 C 110.441406 167.457031 111.015625 167.417969 111.042969 167.816406 C 111.152344 169.355469 111.160156 170.890625 111.054688 172.429688 C 111.003906 173.1875 110.925781 173.9375 110.820312 174.6875 C 110.734375 175.285156 110.707031 176.1875 110.214844 176.597656 C 110.113281 176.683594 109.917969 176.636719 109.855469 176.523438 C 109.550781 175.96875 109.832031 175.085938 109.917969 174.492188 Z M 109.917969 174.492188 " fill-opacity="1" fill-rule="nonzero"/><path fill="#d1d3d4" d="M 107.933594 176.65625 C 107.992188 176.125 108.054688 175.59375 108.117188 175.0625 C 108.238281 173.980469 108.359375 172.898438 108.460938 171.816406 C 108.503906 171.34375 109.324219 171.40625 109.296875 171.882812 C 109.230469 172.972656 109.152344 174.058594 109.054688 175.144531 C 109.003906 175.679688 108.945312 176.210938 108.882812 176.742188 C 108.851562 177.019531 108.808594 177.289062 108.734375 177.558594 C 108.667969 177.800781 108.625 178.058594 108.429688 178.230469 C 108.308594 178.339844 108.125 178.347656 108.023438 178.199219 C 107.753906 177.796875 107.882812 177.109375 107.933594 176.65625 Z M 107.933594 176.65625 " fill-opacity="1" fill-rule="nonzero"/><path fill="#d1d3d4" d="M 107.535156 183.417969 C 107.644531 182.914062 107.75 182.414062 107.863281 181.914062 C 108.097656 180.898438 108.34375 179.886719 108.59375 178.871094 C 108.699219 178.453125 109.289062 178.597656 109.242188 179.015625 C 109.121094 180.058594 108.96875 181.082031 108.765625 182.113281 C 108.667969 182.617188 108.554688 183.117188 108.433594 183.613281 C 108.328125 184.058594 108.199219 184.691406 107.851562 185.007812 C 107.714844 185.132812 107.503906 185.105469 107.4375 184.921875 C 107.269531 184.480469 107.4375 183.863281 107.535156 183.417969 Z M 107.535156 183.417969 " fill-opacity="1" fill-rule="nonzero"/><path fill="#d1d3d4" d="M 102.820312 196.332031 C 103.015625 195.871094 103.242188 195.421875 103.457031 194.972656 C 103.894531 194.050781 104.394531 193.164062 104.878906 192.265625 C 105.0625 191.925781 105.542969 192.191406 105.40625 192.539062 C 105.027344 193.492188 104.675781 194.449219 104.253906 195.382812 C 104.046875 195.835938 103.847656 196.300781 103.625 196.746094 C 103.417969 197.160156 103.179688 197.703125 102.777344 197.949219 C 102.625 198.046875 102.453125 197.941406 102.429688 197.773438 C 102.363281 197.300781 102.636719 196.757812 102.820312 196.332031 Z M 102.820312 196.332031 " fill-opacity="1" fill-rule="nonzero"/><path fill="#472b1e" d="M 55.085938 119.746094 C 55.828125 122.128906 55.394531 124.382812 54.117188 124.78125 C 52.839844 125.179688 51.203125 123.574219 50.460938 121.191406 C 49.71875 118.808594 50.152344 116.554688 51.429688 116.15625 C 52.707031 115.757812 54.34375 117.363281 55.085938 119.746094 Z M 55.085938 119.746094 " fill-opacity="1" fill-rule="nonzero"/><path fill="#472b1e" d="M 84.832031 118.164062 C 84.347656 120.613281 85.019531 122.808594 86.332031 123.070312 C 87.644531 123.332031 89.101562 121.558594 89.585938 119.109375 C 90.074219 116.664062 89.402344 114.46875 88.089844 114.207031 C 86.777344 113.945312 85.320312 115.71875 84.832031 118.164062 Z M 84.832031 118.164062 " fill-opacity="1" fill-rule="nonzero"/><path fill="#9a5530" d="M 119.792969 151.355469 C 118.949219 153.96875 117.054688 156.304688 114.507812 157.316406 C 112.324219 158.183594 109.675781 157.941406 107.792969 156.589844 C 108.40625 157.613281 108.183594 159.226562 107.242188 160.082031 C 105.984375 161.222656 104.066406 161.269531 102.421875 160.867188 C 99.777344 160.226562 97.390625 158.5625 95.867188 156.304688 C 96.503906 158.09375 95.28125 160.183594 93.523438 160.890625 C 91.765625 161.601562 89.703125 161.144531 88.097656 160.128906 C 86.5 159.117188 85.277344 157.609375 84.144531 156.089844 C 84.527344 157.96875 83.058594 159.902344 81.222656 160.445312 C 79.378906 160.988281 77.351562 160.382812 75.769531 159.292969 C 74.234375 158.226562 73.042969 156.757812 71.886719 155.292969 C 70.890625 156.871094 69.863281 158.460938 68.445312 159.679688 C 66.992188 160.933594 65.035156 161.75 63.152344 161.40625 C 61.261719 161.058594 59.59375 159.296875 59.78125 157.382812 C 58.816406 159.015625 57.761719 160.644531 56.273438 161.820312 C 54.789062 162.996094 52.789062 163.671875 50.964844 163.152344 C 49.140625 162.632812 47.703125 160.6875 48.144531 158.84375 C 46.871094 161.246094 44.671875 163.15625 42.113281 164.074219 C 40.515625 164.648438 38.605469 164.804688 37.238281 163.804688 C 36.207031 163.050781 35.8125 161.46875 36.316406 160.386719 C 34.582031 161.933594 31.980469 162.453125 29.71875 161.820312 C 27.078125 161.085938 24.949219 158.960938 23.832031 156.453125 C 22.71875 153.949219 22.539062 151.097656 22.917969 148.378906 C 23.859375 141.6875 28.210938 135.671875 34.035156 132.257812 C 39.855469 128.839844 47.011719 127.953125 53.613281 129.355469 C 60.214844 130.757812 66.261719 134.347656 71.027344 139.128906 C 75.269531 133.871094 80.898438 129.65625 87.316406 127.566406 C 93.734375 125.46875 100.9375 125.59375 107.089844 128.375 C 113.242188 131.152344 118.207031 136.675781 119.847656 143.226562 C 120.515625 145.890625 120.636719 148.746094 119.792969 151.355469 Z M 119.792969 151.355469 " fill-opacity="1" fill-rule="nonzero"/><path fill="#8a4c29" d="M 42.992188 135.933594 L 42.828125 135.601562 C 42.730469 135.4375 42.601562 135.3125 42.441406 135.21875 C 42.296875 135.101562 42.132812 135.027344 41.945312 134.992188 C 41.882812 134.972656 41.816406 134.96875 41.75 134.972656 C 41.683594 134.957031 41.621094 134.953125 41.554688 134.960938 C 41.550781 134.960938 41.546875 134.960938 41.542969 134.960938 L 41.515625 134.964844 C 41.496094 134.964844 41.480469 134.96875 41.460938 134.972656 C 41.265625 134.972656 41.085938 135.023438 40.921875 135.121094 C 40.75 135.1875 40.601562 135.292969 40.480469 135.441406 C 40.347656 135.574219 40.257812 135.734375 40.210938 135.910156 C 40.132812 136.085938 40.101562 136.269531 40.117188 136.464844 C 40.140625 136.589844 40.164062 136.714844 40.1875 136.839844 C 40.269531 137.078125 40.402344 137.277344 40.585938 137.445312 C 40.6875 137.515625 40.785156 137.585938 40.886719 137.652344 C 41.113281 137.769531 41.355469 137.820312 41.609375 137.808594 C 41.777344 137.8125 41.902344 137.808594 42.089844 137.738281 C 42.199219 137.683594 42.3125 137.628906 42.421875 137.574219 C 42.582031 137.476562 42.710938 137.347656 42.800781 137.1875 C 42.886719 137.09375 42.941406 136.984375 42.96875 136.863281 C 43.046875 136.691406 43.078125 136.503906 43.0625 136.308594 C 43.039062 136.183594 43.015625 136.058594 42.992188 135.933594 Z M 42.992188 135.933594 " fill-opacity="1" fill-rule="nonzero"/><path fill="#8a4c29" d="M 47.882812 135.464844 C 47.816406 135.269531 47.707031 135.105469 47.554688 134.964844 L 47.308594 134.796875 C 47.121094 134.699219 46.925781 134.660156 46.714844 134.667969 L 46.617188 134.675781 C 46.457031 134.675781 46.3125 134.71875 46.175781 134.796875 C 46.035156 134.851562 45.914062 134.941406 45.8125 135.058594 C 45.707031 135.171875 45.632812 135.300781 45.59375 135.445312 C 45.527344 135.589844 45.503906 135.742188 45.515625 135.902344 C 45.535156 136.003906 45.554688 136.105469 45.574219 136.207031 C 45.640625 136.402344 45.75 136.570312 45.902344 136.707031 L 46.148438 136.875 C 46.335938 136.972656 46.53125 137.015625 46.742188 137.003906 L 46.835938 137 C 46.996094 136.996094 47.144531 136.953125 47.28125 136.875 C 47.421875 136.820312 47.542969 136.734375 47.640625 136.613281 C 47.75 136.503906 47.824219 136.371094 47.863281 136.226562 C 47.929688 136.082031 47.953125 135.933594 47.941406 135.773438 C 47.917969 135.667969 47.902344 135.566406 47.882812 135.464844 Z M 47.882812 135.464844 " fill-opacity="1" fill-rule="nonzero"/><path fill="#8a4c29" d="M 45.921875 140.109375 C 45.847656 139.886719 45.722656 139.699219 45.550781 139.542969 L 45.273438 139.351562 C 45.058594 139.242188 44.835938 139.195312 44.597656 139.207031 C 44.414062 139.210938 44.25 139.257812 44.09375 139.347656 C 43.933594 139.410156 43.796875 139.507812 43.683594 139.644531 C 43.5625 139.769531 43.480469 139.914062 43.433594 140.082031 C 43.359375 140.242188 43.332031 140.414062 43.347656 140.597656 C 43.371094 140.710938 43.394531 140.828125 43.414062 140.945312 C 43.488281 141.164062 43.613281 141.355469 43.785156 141.507812 L 44.0625 141.703125 C 44.273438 141.808594 44.5 141.859375 44.738281 141.847656 C 44.917969 141.84375 45.085938 141.796875 45.238281 141.707031 C 45.398438 141.644531 45.535156 141.546875 45.648438 141.410156 C 45.773438 141.285156 45.855469 141.136719 45.898438 140.972656 C 45.972656 140.808594 46.003906 140.636719 45.984375 140.457031 C 45.964844 140.339844 45.941406 140.222656 45.921875 140.109375 Z M 45.921875 140.109375 " fill-opacity="1" fill-rule="nonzero"/><path fill="#8a4c29" d="M 95.097656 130.90625 C 95.078125 130.804688 95.058594 130.703125 95.039062 130.601562 C 94.996094 130.511719 94.953125 130.421875 94.90625 130.332031 C 94.828125 130.199219 94.722656 130.097656 94.59375 130.019531 C 94.515625 129.953125 94.429688 129.90625 94.328125 129.886719 C 94.238281 129.839844 94.136719 129.816406 94.035156 129.820312 C 93.929688 129.800781 93.828125 129.804688 93.726562 129.839844 C 93.621094 129.84375 93.527344 129.875 93.4375 129.933594 C 93.296875 129.988281 93.175781 130.074219 93.078125 130.191406 C 93.023438 130.273438 92.964844 130.355469 92.910156 130.4375 C 92.875 130.53125 92.84375 130.625 92.808594 130.71875 C 92.800781 130.824219 92.792969 130.925781 92.785156 131.027344 C 92.800781 131.132812 92.820312 131.234375 92.839844 131.335938 C 92.886719 131.425781 92.929688 131.515625 92.972656 131.605469 C 93.050781 131.734375 93.15625 131.839844 93.289062 131.914062 C 93.363281 131.980469 93.449219 132.027344 93.550781 132.050781 C 93.691406 132.113281 93.84375 132.140625 94 132.125 C 94.019531 132.125 94.039062 132.125 94.058594 132.125 C 94.210938 132.121094 94.347656 132.082031 94.476562 132.003906 C 94.609375 131.953125 94.726562 131.871094 94.820312 131.757812 C 94.871094 131.683594 94.925781 131.605469 94.980469 131.527344 C 95.070312 131.351562 95.109375 131.164062 95.101562 130.964844 C 95.097656 130.945312 95.097656 130.925781 95.097656 130.90625 Z M 95.097656 130.90625 " fill-opacity="1" fill-rule="nonzero"/><path fill="#8a4c29" d="M 96.445312 134.816406 C 96.351562 134.671875 96.226562 134.5625 96.074219 134.484375 C 95.917969 134.402344 95.75 134.367188 95.570312 134.375 C 95.503906 134.371094 95.4375 134.367188 95.367188 134.359375 C 95.167969 134.371094 94.984375 134.433594 94.816406 134.542969 C 94.65625 134.648438 94.53125 134.789062 94.441406 134.960938 C 94.257812 135.3125 94.28125 135.75 94.5 136.078125 C 94.609375 136.242188 94.746094 136.367188 94.917969 136.457031 C 95.097656 136.546875 95.285156 136.585938 95.484375 136.578125 C 95.871094 136.558594 96.238281 136.328125 96.414062 135.976562 C 96.441406 135.921875 96.46875 135.863281 96.5 135.808594 C 96.578125 135.648438 96.613281 135.484375 96.605469 135.304688 C 96.597656 135.128906 96.542969 134.964844 96.445312 134.816406 Z M 96.445312 134.816406 " fill-opacity="1" fill-rule="nonzero"/><path fill="#8a4c29" d="M 99.355469 131.113281 C 98.640625 131.148438 97.988281 131.816406 98.058594 132.554688 C 98.132812 133.292969 98.734375 133.890625 99.5 133.851562 C 100.214844 133.8125 100.867188 133.144531 100.796875 132.40625 C 100.722656 131.667969 100.121094 131.070312 99.355469 131.113281 Z M 99.355469 131.113281 " fill-opacity="1" fill-rule="nonzero"/><path fill="#9a5530" d="M 67.324219 96.355469 C 67.214844 97.011719 67.140625 97.660156 67.09375 98.324219 C 67.074219 98.632812 67.074219 98.9375 67.101562 99.246094 C 67.132812 99.605469 67.144531 99.949219 67.363281 100.253906 C 67.476562 100.40625 67.757812 100.476562 67.886719 100.292969 C 67.996094 100.136719 68.074219 100.007812 68.113281 99.820312 C 68.144531 99.660156 68.152344 99.496094 68.171875 99.332031 C 68.207031 99 68.226562 98.667969 68.226562 98.335938 C 68.222656 97.699219 68.199219 97.0625 68.179688 96.425781 C 68.164062 95.945312 67.40625 95.867188 67.324219 96.355469 Z M 67.324219 96.355469 " fill-opacity="1" fill-rule="nonzero"/><path fill="#9a5530" d="M 70.542969 101.46875 C 70.5 100.738281 70.445312 100.003906 70.40625 99.273438 C 70.390625 99.023438 70.167969 98.824219 69.917969 98.835938 C 69.648438 98.851562 69.496094 99.070312 69.484375 99.320312 C 69.441406 100.058594 69.417969 100.792969 69.441406 101.527344 C 69.453125 101.882812 69.457031 102.238281 69.496094 102.589844 C 69.519531 102.796875 69.558594 103.003906 69.605469 103.207031 C 69.621094 103.285156 69.632812 103.367188 69.660156 103.441406 C 69.710938 103.582031 69.796875 103.628906 69.894531 103.703125 C 70.050781 103.8125 70.230469 103.816406 70.371094 103.679688 C 70.445312 103.601562 70.535156 103.53125 70.566406 103.394531 C 70.589844 103.300781 70.582031 103.195312 70.589844 103.101562 C 70.605469 102.910156 70.613281 102.722656 70.609375 102.53125 C 70.597656 102.175781 70.5625 101.824219 70.542969 101.46875 Z M 70.542969 101.46875 " fill-opacity="1" fill-rule="nonzero"/><path fill="#9a5530" d="M 72.839844 96.703125 C 72.824219 96.34375 72.828125 95.984375 72.855469 95.628906 C 72.871094 95.433594 72.671875 95.277344 72.5 95.261719 C 72.320312 95.25 72.109375 95.371094 72.085938 95.566406 C 72.039062 95.949219 72.011719 96.339844 72.007812 96.726562 C 72.007812 96.910156 72.015625 97.085938 72.03125 97.265625 C 72.042969 97.382812 72.042969 97.503906 72.085938 97.613281 C 72.128906 97.722656 72.207031 97.824219 72.296875 97.898438 C 72.40625 97.992188 72.617188 98.011719 72.710938 97.878906 C 72.777344 97.78125 72.835938 97.6875 72.863281 97.570312 C 72.894531 97.457031 72.871094 97.339844 72.863281 97.222656 C 72.851562 97.050781 72.847656 96.878906 72.839844 96.703125 Z M 72.839844 96.703125 " fill-opacity="1" fill-rule="nonzero"/><path fill="#9a5530" d="M 67.210938 103.320312 C 66.9375 103.335938 66.777344 103.558594 66.765625 103.816406 C 66.734375 104.570312 66.679688 105.324219 66.652344 106.078125 C 66.636719 106.4375 66.621094 106.804688 66.625 107.164062 C 66.628906 107.542969 66.628906 108.023438 66.921875 108.296875 C 67.0625 108.425781 67.25 108.382812 67.378906 108.273438 C 67.675781 108.011719 67.671875 107.472656 67.691406 107.109375 C 67.710938 106.746094 67.714844 106.382812 67.71875 106.019531 C 67.71875 105.269531 67.703125 104.515625 67.707031 103.765625 C 67.707031 103.511719 67.453125 103.308594 67.210938 103.320312 Z M 67.210938 103.320312 " fill-opacity="1" fill-rule="nonzero"/><path fill="#9a5530" d="M 65.171875 100.695312 C 65.148438 100.355469 65.125 100.019531 65.078125 99.683594 C 65.035156 99.332031 64.957031 98.988281 64.917969 98.640625 C 64.898438 98.460938 64.769531 98.308594 64.582031 98.296875 C 64.417969 98.289062 64.21875 98.398438 64.199219 98.582031 C 64.148438 98.953125 64.070312 99.324219 64.042969 99.699219 C 64.015625 100.050781 64 100.402344 64.007812 100.753906 C 64.015625 101.105469 64.015625 101.460938 64.054688 101.808594 C 64.078125 101.988281 64.09375 102.171875 64.125 102.351562 C 64.160156 102.589844 64.28125 102.757812 64.449219 102.925781 C 64.648438 103.128906 64.933594 103.011719 65.066406 102.8125 C 65.199219 102.621094 65.25 102.445312 65.25 102.210938 C 65.25 102.054688 65.242188 101.902344 65.238281 101.746094 C 65.234375 101.394531 65.195312 101.042969 65.171875 100.695312 Z M 65.171875 100.695312 " fill-opacity="1" fill-rule="nonzero"/><path fill="#9a5530" d="M 72.730469 104.25 C 72.464844 104.261719 72.316406 104.480469 72.304688 104.726562 C 72.253906 105.613281 72.179688 106.496094 72.128906 107.382812 C 72.105469 107.816406 72.074219 108.25 72.046875 108.6875 C 72.023438 109.128906 72.058594 109.566406 72.269531 109.960938 C 72.347656 110.109375 72.601562 110.125 72.703125 109.992188 C 72.992188 109.605469 73.070312 109.15625 73.105469 108.679688 C 73.140625 108.246094 73.160156 107.8125 73.179688 107.378906 C 73.21875 106.480469 73.214844 105.578125 73.207031 104.675781 C 73.207031 104.433594 72.96875 104.234375 72.730469 104.25 Z M 72.730469 104.25 " fill-opacity="1" fill-rule="nonzero"/><path fill="#9a5530" d="M 65.742188 109.609375 C 65.675781 108.839844 65.59375 108.078125 65.492188 107.308594 C 65.417969 106.742188 64.617188 106.78125 64.601562 107.355469 C 64.582031 108.128906 64.582031 108.898438 64.597656 109.671875 C 64.605469 110.046875 64.628906 110.414062 64.671875 110.785156 C 64.695312 111.003906 64.695312 111.253906 64.804688 111.445312 C 64.90625 111.617188 65.070312 111.78125 65.28125 111.769531 C 65.496094 111.757812 65.640625 111.578125 65.722656 111.398438 C 65.8125 111.195312 65.785156 110.945312 65.785156 110.726562 C 65.789062 110.355469 65.773438 109.984375 65.742188 109.609375 Z M 65.742188 109.609375 " fill-opacity="1" fill-rule="nonzero"/><path fill="#9a5530" d="M 70.152344 110.671875 C 70.125 110.367188 69.859375 110.085938 69.539062 110.117188 C 69.226562 110.148438 68.960938 110.40625 68.984375 110.734375 C 69.03125 111.390625 69.046875 112.050781 69.027344 112.707031 C 69.015625 113.027344 68.988281 113.339844 68.972656 113.660156 C 68.953125 114.019531 68.929688 114.425781 69.164062 114.722656 C 69.289062 114.886719 69.542969 114.988281 69.726562 114.839844 C 70.054688 114.578125 70.125 114.226562 70.175781 113.832031 C 70.222656 113.464844 70.226562 113.085938 70.234375 112.71875 C 70.242188 112.035156 70.214844 111.351562 70.152344 110.671875 Z M 70.152344 110.671875 " fill-opacity="1" fill-rule="nonzero"/><path fill="#9a5530" d="M 161.4375 202.6875 C 161.09375 200.851562 160.675781 199.027344 160.171875 197.230469 C 159.152344 193.601562 157.820312 190.070312 156.226562 186.65625 C 154.636719 183.257812 152.804688 179.980469 150.753906 176.84375 C 148.792969 173.847656 146.660156 170.910156 144.179688 168.324219 C 141.554688 165.585938 138.40625 163.316406 134.625 162.574219 C 134.285156 162.503906 134.1875 162.996094 134.511719 163.09375 C 141.101562 165.09375 145.550781 171.164062 149.199219 176.628906 C 153.273438 182.726562 156.539062 189.375 158.640625 196.410156 C 159.230469 198.375 159.726562 200.363281 160.128906 202.375 C 160.527344 204.398438 160.734375 206.472656 161.222656 208.476562 C 161.335938 208.957031 161.992188 208.746094 162.011719 208.324219 C 162.113281 206.453125 161.78125 204.523438 161.4375 202.6875 Z M 161.4375 202.6875 " fill-opacity="1" fill-rule="nonzero"/><path fill="#9a5530" d="M 188.300781 175.109375 C 187.367188 173.648438 186.316406 172.261719 185.167969 170.960938 C 182.863281 168.363281 180.152344 166.128906 177.171875 164.351562 C 175.496094 163.355469 173.707031 162.554688 171.871094 161.902344 C 171.570312 161.792969 171.382812 162.308594 171.679688 162.429688 C 177.9375 164.996094 183.390625 169.410156 187.136719 175.054688 C 188.199219 176.652344 188.992188 178.421875 190.082031 179.996094 C 190.25 180.242188 190.585938 180.046875 190.527344 179.78125 C 190.15625 178.097656 189.21875 176.546875 188.300781 175.109375 Z M 188.300781 175.109375 " fill-opacity="1" fill-rule="nonzero"/><path fill="#9a5530" d="M 200.347656 166.988281 C 199.828125 165.789062 198.867188 164.730469 197.992188 163.777344 C 197.074219 162.78125 196.097656 161.84375 195.070312 160.964844 C 194.742188 160.6875 194.300781 161.175781 194.621094 161.464844 C 195.601562 162.34375 196.535156 163.277344 197.40625 164.265625 C 197.832031 164.746094 198.246094 165.238281 198.652344 165.738281 C 199.074219 166.253906 199.476562 166.789062 199.964844 167.242188 C 200.132812 167.394531 200.445312 167.210938 200.347656 166.988281 Z M 200.347656 166.988281 " fill-opacity="1" fill-rule="nonzero"/><path fill="#9a5530" d="M 130.933594 227.566406 C 130.609375 235.492188 130.242188 243.40625 129.742188 251.324219 C 129.601562 253.5625 129.449219 255.800781 129.285156 258.035156 C 129.261719 258.363281 129.625 258.621094 129.921875 258.609375 C 130.285156 258.59375 130.472656 258.296875 130.496094 257.972656 C 131.050781 250.070312 131.433594 242.15625 131.695312 234.238281 C 131.773438 232 131.816406 229.761719 131.847656 227.519531 C 131.855469 226.925781 130.957031 226.988281 130.933594 227.566406 Z M 130.933594 227.566406 " fill-opacity="1" fill-rule="nonzero"/><path fill="#9a5530" d="M 85.722656 240.125 C 85.878906 238.347656 86.03125 236.574219 86.113281 234.789062 C 86.132812 234.324219 85.378906 234.269531 85.300781 234.722656 C 84.757812 237.851562 84.457031 241.019531 84.253906 244.1875 C 84.050781 247.355469 84.003906 250.535156 84.300781 253.699219 C 84.464844 255.480469 84.671875 257.335938 85.152344 259.066406 C 85.339844 259.730469 86.484375 259.539062 86.367188 258.835938 C 86.105469 257.300781 85.789062 255.792969 85.621094 254.242188 C 85.449219 252.667969 85.363281 251.089844 85.332031 249.507812 C 85.269531 246.375 85.449219 243.246094 85.722656 240.125 Z M 85.722656 240.125 " fill-opacity="1" fill-rule="nonzero"/><path fill="#9a5530" d="M 158.511719 182.230469 C 157.753906 180.839844 156.910156 179.492188 156.011719 178.191406 C 154.167969 175.523438 152.070312 173.035156 150 170.546875 C 149.757812 170.257812 149.261719 170.570312 149.503906 170.875 C 151.507812 173.382812 153.492188 175.90625 155.285156 178.574219 C 156.171875 179.890625 157.007812 181.234375 157.753906 182.632812 C 158.507812 184.042969 159.136719 185.515625 159.917969 186.90625 C 160.046875 187.140625 160.34375 186.9375 160.300781 186.71875 C 159.996094 185.121094 159.28125 183.648438 158.511719 182.230469 Z M 158.511719 182.230469 " fill-opacity="1" fill-rule="nonzero"/><path fill="#9a5530" d="M 201.539062 165.824219 C 201.453125 165.597656 201.3125 165.402344 201.183594 165.199219 C 201.050781 165 200.914062 164.804688 200.78125 164.609375 C 200.511719 164.210938 200.242188 163.816406 199.972656 163.421875 C 199.789062 163.15625 199.367188 163.433594 199.554688 163.699219 C 199.828125 164.089844 200.101562 164.480469 200.375 164.875 C 200.511719 165.070312 200.648438 165.265625 200.789062 165.460938 C 200.929688 165.652344 201.0625 165.859375 201.242188 166.015625 C 201.375 166.132812 201.605469 165.996094 201.539062 165.824219 Z M 201.539062 165.824219 " fill-opacity="1" fill-rule="nonzero"/><path fill="#9a5530" d="M 227.242188 169.664062 C 227.210938 169.578125 227.160156 169.507812 227.085938 169.449219 C 226.996094 169.363281 226.886719 169.308594 226.769531 169.285156 C 226.734375 169.269531 226.703125 169.269531 226.664062 169.273438 C 226.628906 169.261719 226.59375 169.261719 226.558594 169.265625 C 226.550781 169.269531 226.539062 169.269531 226.53125 169.269531 C 226.511719 169.273438 226.496094 169.277344 226.480469 169.277344 C 226.441406 169.285156 226.402344 169.292969 226.363281 169.296875 C 226.261719 169.3125 226.152344 169.324219 226.054688 169.351562 C 226.015625 169.363281 225.976562 169.375 225.933594 169.386719 C 225.800781 169.433594 225.6875 169.507812 225.59375 169.613281 C 225.554688 169.667969 225.515625 169.726562 225.476562 169.78125 C 225.410156 169.910156 225.382812 170.046875 225.390625 170.191406 C 225.390625 170.300781 225.417969 170.402344 225.472656 170.496094 C 225.511719 170.59375 225.570312 170.675781 225.652344 170.746094 C 225.730469 170.820312 225.820312 170.871094 225.917969 170.898438 C 226.015625 170.941406 226.121094 170.960938 226.230469 170.949219 C 226.375 170.941406 226.507812 170.898438 226.628906 170.820312 C 226.664062 170.800781 226.699219 170.78125 226.730469 170.761719 C 226.765625 170.742188 226.796875 170.714844 226.832031 170.691406 C 226.863281 170.667969 226.894531 170.644531 226.925781 170.621094 C 227.046875 170.53125 227.171875 170.4375 227.242188 170.292969 C 227.300781 170.179688 227.324219 170.058594 227.320312 169.933594 C 227.316406 169.835938 227.292969 169.746094 227.242188 169.664062 Z M 227.242188 169.664062 " fill-opacity="1" fill-rule="nonzero"/><path fill="#9a5530" d="M 232.996094 168 C 232.964844 167.914062 232.910156 167.84375 232.839844 167.78125 C 232.769531 167.714844 232.691406 167.671875 232.601562 167.648438 C 232.515625 167.609375 232.425781 167.59375 232.328125 167.601562 C 232.265625 167.613281 232.203125 167.625 232.140625 167.636719 C 232.023438 167.675781 231.921875 167.742188 231.839844 167.835938 L 231.738281 167.984375 C 231.679688 168.097656 231.652344 168.21875 231.660156 168.347656 L 231.664062 168.425781 C 231.664062 168.441406 231.664062 168.453125 231.664062 168.46875 C 231.664062 168.472656 231.667969 168.472656 231.667969 168.476562 C 231.667969 168.574219 231.691406 168.664062 231.742188 168.746094 C 231.765625 168.789062 231.769531 168.808594 231.789062 168.839844 C 231.847656 168.917969 231.90625 168.996094 231.976562 169.0625 C 232.035156 169.117188 232.101562 169.15625 232.179688 169.175781 C 232.253906 169.210938 232.332031 169.222656 232.414062 169.214844 C 232.464844 169.207031 232.519531 169.195312 232.574219 169.183594 C 232.671875 169.152344 232.757812 169.09375 232.832031 169.015625 C 232.894531 168.941406 232.945312 168.859375 232.992188 168.777344 C 232.996094 168.773438 233 168.765625 233 168.761719 C 233.046875 168.679688 233.070312 168.589844 233.070312 168.496094 C 233.074219 168.460938 233.078125 168.425781 233.078125 168.394531 C 233.078125 168.378906 233.078125 168.367188 233.074219 168.355469 L 233.070312 168.269531 C 233.070312 168.171875 233.046875 168.082031 232.996094 168 Z M 232.996094 168 " fill-opacity="1" fill-rule="nonzero"/><path fill="#9a5530" d="M 230.894531 171.949219 C 230.859375 171.949219 230.828125 171.945312 230.792969 171.945312 C 229.882812 171.878906 229.96875 173.511719 230.867188 173.351562 C 230.902344 173.34375 230.933594 173.335938 230.96875 173.332031 C 231.847656 173.175781 231.789062 172.015625 230.894531 171.949219 Z M 230.894531 171.949219 " fill-opacity="1" fill-rule="nonzero"/><path fill="#9a5530" d="M 125.128906 164.199219 C 125.101562 164.183594 125.074219 164.171875 125.042969 164.164062 C 125.015625 164.152344 124.984375 164.140625 124.953125 164.132812 C 124.945312 164.132812 124.9375 164.128906 124.929688 164.128906 C 124.910156 164.125 124.890625 164.121094 124.871094 164.117188 C 124.835938 164.109375 124.796875 164.101562 124.757812 164.089844 C 124.722656 164.082031 124.683594 164.074219 124.648438 164.066406 C 124.582031 164.0625 124.515625 164.054688 124.449219 164.050781 C 124.414062 164.054688 124.378906 164.0625 124.34375 164.070312 C 124.292969 164.078125 124.265625 164.082031 124.226562 164.09375 C 124.207031 164.101562 124.1875 164.109375 124.164062 164.117188 C 124.109375 164.140625 124.054688 164.167969 124 164.195312 C 123.917969 164.246094 123.855469 164.308594 123.808594 164.390625 C 123.769531 164.4375 123.742188 164.492188 123.726562 164.550781 C 123.6875 164.640625 123.671875 164.730469 123.679688 164.828125 C 123.691406 164.890625 123.703125 164.953125 123.714844 165.015625 C 123.742188 165.070312 123.769531 165.128906 123.796875 165.183594 C 123.84375 165.261719 123.910156 165.328125 123.988281 165.371094 C 124.0625 165.433594 124.144531 165.46875 124.238281 165.488281 C 124.257812 165.492188 124.277344 165.496094 124.292969 165.5 C 124.4375 165.53125 124.582031 165.53125 124.722656 165.484375 C 124.757812 165.472656 124.792969 165.460938 124.832031 165.449219 C 124.953125 165.40625 125.078125 165.375 125.1875 165.304688 C 125.378906 165.183594 125.488281 164.957031 125.476562 164.734375 C 125.464844 164.511719 125.332031 164.300781 125.128906 164.199219 Z M 125.128906 164.199219 " fill-opacity="1" fill-rule="nonzero"/><path fill="#9a5530" d="M 129.15625 165.617188 C 129.128906 165.527344 129.085938 165.453125 129.019531 165.386719 C 128.984375 165.335938 128.941406 165.296875 128.886719 165.269531 C 128.816406 165.210938 128.734375 165.171875 128.644531 165.15625 C 128.582031 165.152344 128.519531 165.144531 128.457031 165.140625 C 128.332031 165.148438 128.214844 165.1875 128.109375 165.253906 C 128.066406 165.285156 128.023438 165.316406 127.980469 165.347656 C 127.886719 165.417969 127.816406 165.492188 127.738281 165.574219 C 127.648438 165.671875 127.578125 165.792969 127.554688 165.925781 C 127.550781 165.945312 127.550781 165.96875 127.546875 165.992188 C 127.53125 166.105469 127.511719 166.226562 127.558594 166.335938 C 127.5625 166.339844 127.566406 166.34375 127.566406 166.347656 C 127.566406 166.351562 127.570312 166.355469 127.570312 166.355469 C 127.589844 166.421875 127.621094 166.476562 127.667969 166.523438 C 127.691406 166.546875 127.699219 166.5625 127.71875 166.578125 C 127.804688 166.648438 127.90625 166.707031 128.015625 166.71875 C 128.035156 166.71875 128.054688 166.722656 128.070312 166.722656 C 128.132812 166.726562 128.191406 166.734375 128.253906 166.738281 C 128.316406 166.734375 128.378906 166.722656 128.441406 166.703125 C 128.507812 166.679688 128.566406 166.644531 128.628906 166.609375 C 128.648438 166.597656 128.671875 166.585938 128.691406 166.570312 C 128.707031 166.566406 128.71875 166.558594 128.730469 166.550781 C 128.792969 166.515625 128.839844 166.460938 128.894531 166.414062 C 128.933594 166.378906 128.972656 166.34375 129.011719 166.308594 C 129.078125 166.242188 129.121094 166.164062 129.144531 166.074219 C 129.183594 165.988281 129.199219 165.898438 129.191406 165.804688 C 129.179688 165.742188 129.167969 165.679688 129.15625 165.617188 Z M 129.15625 165.617188 " fill-opacity="1" fill-rule="nonzero"/><path fill="#9a5530" d="M 126.648438 170.089844 C 126.585938 169.996094 126.507812 169.925781 126.410156 169.875 C 126.375 169.855469 126.339844 169.835938 126.308594 169.820312 C 126.195312 169.761719 126.074219 169.734375 125.949219 169.742188 C 125.820312 169.75 125.703125 169.785156 125.597656 169.855469 C 125.496094 169.925781 125.417969 170.011719 125.359375 170.121094 C 125.300781 170.234375 125.277344 170.355469 125.28125 170.480469 C 125.289062 170.609375 125.328125 170.726562 125.398438 170.832031 C 125.464844 170.933594 125.554688 171.011719 125.664062 171.070312 C 125.777344 171.128906 125.894531 171.152344 126.023438 171.148438 C 126.148438 171.140625 126.265625 171.101562 126.371094 171.03125 C 126.402344 171.011719 126.433594 170.988281 126.46875 170.964844 C 126.558594 170.90625 126.628906 170.824219 126.679688 170.726562 C 126.734375 170.625 126.757812 170.519531 126.75 170.402344 C 126.746094 170.289062 126.710938 170.183594 126.648438 170.089844 Z M 126.648438 170.089844 " fill-opacity="1" fill-rule="nonzero"/><path fill="#9a5530" d="M 28.164062 199.902344 C 28.140625 199.851562 28.117188 199.804688 28.09375 199.753906 C 28.046875 199.683594 27.992188 199.625 27.917969 199.585938 C 27.855469 199.53125 27.78125 199.496094 27.695312 199.480469 C 27.652344 199.46875 27.605469 199.464844 27.558594 199.457031 C 27.511719 199.453125 27.460938 199.445312 27.414062 199.4375 C 27.367188 199.429688 27.320312 199.421875 27.277344 199.417969 C 27.164062 199.402344 27.054688 199.398438 26.941406 199.402344 C 26.84375 199.402344 26.75 199.429688 26.664062 199.480469 C 26.574219 199.515625 26.5 199.570312 26.4375 199.644531 C 26.367188 199.714844 26.324219 199.796875 26.296875 199.886719 C 26.257812 199.976562 26.242188 200.074219 26.25 200.175781 C 26.261719 200.238281 26.273438 200.304688 26.285156 200.367188 C 26.328125 200.488281 26.394531 200.59375 26.492188 200.679688 C 26.640625 200.800781 26.824219 200.882812 27.019531 200.867188 C 27.128906 200.859375 27.234375 200.84375 27.34375 200.820312 C 27.390625 200.808594 27.4375 200.796875 27.484375 200.785156 C 27.53125 200.773438 27.574219 200.761719 27.621094 200.75 C 27.667969 200.738281 27.71875 200.730469 27.761719 200.710938 C 27.8125 200.683594 27.859375 200.660156 27.910156 200.636719 C 27.980469 200.59375 28.039062 200.535156 28.078125 200.464844 C 28.117188 200.421875 28.140625 200.375 28.15625 200.320312 C 28.191406 200.242188 28.203125 200.15625 28.195312 200.070312 C 28.1875 200.015625 28.175781 199.957031 28.164062 199.902344 Z M 28.164062 199.902344 " fill-opacity="1" fill-rule="nonzero"/><path fill="#9a5530" d="M 30.957031 198.875 C 30.835938 198.695312 30.628906 198.589844 30.414062 198.601562 C 30.199219 198.613281 30.003906 198.738281 29.902344 198.929688 C 29.855469 199.027344 29.832031 199.132812 29.835938 199.242188 C 29.84375 199.351562 29.875 199.453125 29.9375 199.546875 C 29.957031 199.582031 29.980469 199.617188 30 199.652344 C 30.011719 199.667969 30.023438 199.683594 30.035156 199.699219 C 30.039062 199.707031 30.046875 199.714844 30.054688 199.722656 C 30.054688 199.726562 30.058594 199.730469 30.0625 199.734375 C 30.074219 199.753906 30.089844 199.769531 30.105469 199.785156 C 30.117188 199.804688 30.128906 199.820312 30.148438 199.835938 C 30.191406 199.878906 30.246094 199.90625 30.304688 199.921875 C 30.359375 199.949219 30.421875 199.960938 30.484375 199.953125 C 30.527344 199.945312 30.566406 199.9375 30.609375 199.929688 C 30.6875 199.902344 30.753906 199.859375 30.808594 199.800781 C 30.824219 199.785156 30.835938 199.765625 30.847656 199.746094 C 30.859375 199.730469 30.871094 199.710938 30.882812 199.691406 C 30.886719 199.6875 30.886719 199.683594 30.890625 199.679688 C 30.898438 199.671875 30.902344 199.664062 30.90625 199.652344 C 30.917969 199.636719 30.929688 199.621094 30.9375 199.601562 C 30.953125 199.566406 30.972656 199.527344 30.988281 199.492188 C 31.039062 199.394531 31.0625 199.289062 31.054688 199.179688 C 31.050781 199.070312 31.015625 198.96875 30.957031 198.875 Z M 30.957031 198.875 " fill-opacity="1" fill-rule="nonzero"/><path fill="#9a5530" d="M 30.375 204.832031 C 29.507812 204.878906 29.578125 206.226562 30.445312 206.179688 C 31.3125 206.132812 31.242188 204.785156 30.375 204.832031 Z M 30.375 204.832031 " fill-opacity="1" fill-rule="nonzero"/><path fill="#9a5530" d="M 98.738281 275.40625 C 98.320312 274.535156 97.6875 273.722656 97.164062 272.910156 C 96.609375 272.050781 96.097656 271.167969 95.640625 270.253906 C 94.714844 268.40625 93.996094 266.457031 93.503906 264.449219 C 93.410156 264.070312 92.847656 264.269531 92.933594 264.640625 C 93.382812 266.667969 94.058594 268.640625 94.972656 270.507812 C 95.421875 271.425781 95.917969 272.320312 96.472656 273.179688 C 97.007812 274.011719 97.664062 274.980469 98.460938 275.585938 C 98.582031 275.675781 98.816406 275.574219 98.738281 275.40625 Z M 98.738281 275.40625 " fill-opacity="1" fill-rule="nonzero"/><path fill="#9a5530" d="M 104.332031 277 C 102.871094 276.058594 101.441406 275.0625 100.289062 273.742188 C 99.140625 272.425781 98.257812 270.875 97.78125 269.191406 C 97.683594 268.832031 97.144531 269.015625 97.234375 269.375 C 98.121094 272.816406 100.628906 276.382812 104.199219 277.371094 C 104.429688 277.433594 104.507812 277.113281 104.332031 277 Z M 104.332031 277 " fill-opacity="1" fill-rule="nonzero"/><path fill="#9a5530" d="M 155.160156 268.628906 C 153.5625 266.914062 150.949219 266.300781 148.726562 265.859375 C 146.15625 265.351562 143.539062 265.023438 140.9375 264.710938 C 135.535156 264.058594 130.046875 263.695312 124.617188 264.230469 C 123.105469 264.378906 121.59375 264.589844 120.101562 264.882812 C 118.589844 265.183594 117.140625 265.707031 115.679688 266.175781 C 115.4375 266.253906 115.5625 266.609375 115.804688 266.546875 C 117.15625 266.191406 118.546875 266.007812 119.929688 265.808594 C 121.226562 265.621094 122.515625 265.429688 123.820312 265.320312 C 126.4375 265.09375 129.078125 265.0625 131.707031 265.148438 C 136.964844 265.320312 142.25 265.976562 147.433594 266.859375 C 148.710938 267.078125 149.980469 267.34375 151.214844 267.75 C 152.421875 268.148438 153.554688 268.753906 154.703125 269.292969 C 155.136719 269.496094 155.472656 268.960938 155.160156 268.628906 Z M 155.160156 268.628906 " fill-opacity="1" fill-rule="nonzero"/><path fill="#8a4c29" d="M 34.355469 259.3125 C 33.980469 258.582031 33.613281 257.851562 33.257812 257.113281 C 32.539062 255.628906 31.871094 254.117188 31.21875 252.601562 C 29.925781 249.59375 28.785156 246.515625 27.761719 243.40625 C 27.171875 241.625 26.613281 239.84375 26.144531 238.027344 C 26.0625 237.710938 25.601562 237.875 25.667969 238.183594 C 26.394531 241.441406 27.191406 244.679688 28.269531 247.839844 C 29.34375 250.992188 30.585938 254.082031 32.007812 257.09375 C 32.410156 257.949219 32.824219 258.796875 33.253906 259.640625 C 33.664062 260.449219 34.050781 261.359375 34.714844 262 C 35.03125 262.304688 35.429688 261.929688 35.359375 261.574219 C 35.199219 260.777344 34.726562 260.027344 34.355469 259.3125 Z M 34.355469 259.3125 " fill-opacity="1" fill-rule="nonzero"/><path fill="#8a4c29" d="M 317.367188 271.007812 C 316.425781 270.847656 315.421875 270.988281 314.472656 271.039062 C 313.488281 271.089844 312.503906 271.125 311.515625 271.140625 C 309.574219 271.167969 307.625 271.125 305.6875 271.015625 C 301.765625 270.796875 297.855469 270.261719 294.007812 269.480469 C 291.851562 269.042969 289.710938 268.558594 287.605469 267.921875 C 287.273438 267.820312 287.167969 268.339844 287.492188 268.441406 C 291.253906 269.660156 295.054688 270.699219 298.96875 271.3125 C 302.855469 271.917969 306.792969 272.238281 310.726562 272.230469 C 311.855469 272.230469 312.984375 272.203125 314.109375 272.148438 C 315.1875 272.097656 316.382812 272.121094 317.410156 271.75 C 317.75 271.628906 317.757812 271.074219 317.367188 271.007812 Z M 317.367188 271.007812 " fill-opacity="1" fill-rule="nonzero"/><path fill="#8a4c29" d="M 312.441406 254.152344 C 311.632812 253.960938 310.742188 254.0625 309.917969 254.066406 C 309.078125 254.070312 308.242188 254.066406 307.40625 254.054688 C 305.703125 254.027344 304 253.960938 302.300781 253.847656 C 298.90625 253.617188 295.53125 253.222656 292.167969 252.699219 C 290.257812 252.398438 288.355469 252.042969 286.464844 251.628906 C 286.191406 251.570312 286.101562 251.984375 286.371094 252.050781 C 293.023438 253.769531 299.808594 254.746094 306.675781 254.96875 C 307.65625 255 308.636719 255.019531 309.621094 255.015625 C 310.550781 255.015625 311.578125 255.101562 312.476562 254.832031 C 312.820312 254.730469 312.769531 254.230469 312.441406 254.152344 Z M 312.441406 254.152344 " fill-opacity="1" fill-rule="nonzero"/><path fill="#8a4c29" d="M 303.605469 236.671875 C 302.800781 236.425781 301.910156 236.4375 301.078125 236.363281 C 300.253906 236.285156 299.429688 236.195312 298.613281 236.082031 C 296.945312 235.859375 295.289062 235.5625 293.648438 235.195312 C 290.34375 234.453125 287.128906 233.402344 283.980469 232.152344 C 282.195312 231.441406 280.429688 230.664062 278.707031 229.8125 C 278.464844 229.691406 278.289062 230.046875 278.515625 230.179688 C 284.46875 233.699219 291.121094 235.875 297.945312 236.890625 C 298.894531 237.03125 299.847656 237.148438 300.804688 237.242188 C 301.734375 237.335938 302.714844 237.480469 303.640625 237.300781 C 303.988281 237.230469 303.875 236.753906 303.605469 236.671875 Z M 303.605469 236.671875 " fill-opacity="1" fill-rule="nonzero"/><path fill="#8a4c29" d="M 301.953125 221.53125 C 301.527344 220.972656 300.796875 220.632812 300.210938 220.257812 C 299.621094 219.878906 299.027344 219.5 298.429688 219.132812 C 297.183594 218.371094 295.925781 217.628906 294.65625 216.910156 C 292.164062 215.496094 289.625 214.160156 287.042969 212.917969 C 285.542969 212.199219 284.027344 211.535156 282.484375 210.914062 C 281.988281 210.710938 281.601562 211.421875 282.097656 211.667969 C 287.242188 214.203125 292.324219 216.839844 297.195312 219.878906 C 297.863281 220.296875 298.527344 220.714844 299.191406 221.140625 C 299.546875 221.367188 299.898438 221.597656 300.253906 221.828125 C 300.605469 222.058594 300.929688 222.3125 301.34375 222.417969 C 301.816406 222.539062 302.257812 221.9375 301.953125 221.53125 Z M 301.953125 221.53125 " fill-opacity="1" fill-rule="nonzero"/><path fill="#8a4c29" d="M 317.984375 214.949219 C 317.660156 214.054688 317.316406 213.160156 316.960938 212.277344 C 316.238281 210.492188 315.445312 208.738281 314.585938 207.015625 C 312.859375 203.550781 310.839844 200.238281 308.59375 197.085938 C 307.328125 195.316406 306.003906 193.589844 304.605469 191.917969 C 304.453125 191.738281 304.140625 191.933594 304.292969 192.125 C 309.058594 198.113281 312.878906 204.832031 315.753906 211.925781 C 316.148438 212.910156 316.527344 213.898438 316.886719 214.898438 C 317.074219 215.421875 317.253906 215.949219 317.433594 216.476562 C 317.605469 216.996094 317.742188 217.527344 318.007812 218.003906 C 318.230469 218.398438 318.894531 218.171875 318.847656 217.726562 C 318.75 216.785156 318.304688 215.835938 317.984375 214.949219 Z M 317.984375 214.949219 " fill-opacity="1" fill-rule="nonzero"/><path fill="#8a4c29" d="M 335.324219 216.4375 C 335.226562 216.007812 335.128906 215.582031 335.015625 215.160156 C 334.785156 214.289062 334.515625 213.429688 334.226562 212.574219 C 333.660156 210.890625 332.992188 209.242188 332.269531 207.617188 C 330.832031 204.390625 329.179688 201.28125 327.378906 198.246094 C 326.351562 196.515625 325.277344 194.820312 324.230469 193.105469 C 324.117188 192.921875 323.847656 193.101562 323.953125 193.285156 C 325.707031 196.320312 327.382812 199.402344 328.992188 202.515625 C 330.601562 205.632812 332.035156 208.832031 333.105469 212.171875 C 333.40625 213.109375 333.679688 214.054688 333.917969 215.007812 C 334.03125 215.460938 334.144531 215.910156 334.246094 216.363281 C 334.363281 216.863281 334.414062 217.410156 334.636719 217.871094 C 334.855469 218.339844 335.488281 218.230469 335.519531 217.703125 C 335.542969 217.273438 335.417969 216.851562 335.324219 216.4375 Z M 335.324219 216.4375 " fill-opacity="1" fill-rule="nonzero"/><path fill="#8a4c29" d="M 353.089844 215.085938 C 352.855469 214.3125 352.613281 213.539062 352.363281 212.773438 C 351.847656 211.210938 351.265625 209.671875 350.65625 208.144531 C 349.457031 205.140625 348.195312 202.164062 346.664062 199.3125 C 345.792969 197.695312 344.921875 196.078125 344 194.488281 C 343.855469 194.238281 343.484375 194.484375 343.625 194.734375 C 346.78125 200.316406 349.230469 206.277344 351.1875 212.371094 C 351.457031 213.222656 351.71875 214.074219 351.96875 214.929688 C 352.089844 215.359375 352.210938 215.789062 352.332031 216.21875 C 352.449219 216.652344 352.515625 217.136719 352.816406 217.488281 C 353.027344 217.734375 353.492188 217.730469 353.5625 217.347656 C 353.695312 216.621094 353.296875 215.777344 353.089844 215.085938 Z M 353.089844 215.085938 " fill-opacity="1" fill-rule="nonzero"/></svg>