<?xml version="1.0" encoding="utf-8"?>
<!-- Generator: Adobe Illustrator 22.1.0, SVG Export Plug-In . SVG Version: 6.00 Build 0)  -->
<svg version="1.1" id="Layer_1" xmlns="http://www.w3.org/2000/svg" xmlns:xlink="http://www.w3.org/1999/xlink" x="0px" y="0px"
	 viewBox="0 0 512 512" style="enable-background:new 0 0 512 512;" xml:space="preserve">
<style type="text/css">
	.st0{fill:#FCE575;}
	.st1{fill:#FFD551;}
	.st2{fill:#FFA730;}
	.st3{fill:#E58D23;}
	.st4{fill:#FF624B;}
	.st5{fill:#FFF4C1;}
	.st6{fill:#FCDA4F;}
	.st7{fill:#FF4B34;}
	.st8{fill:#CCC033;}
	.st9{fill:#99AF17;}
	.st10{fill:#FF9079;}
	.st11{fill:#EACF32;}
	.st12{fill:#F9BB32;}
	.st13{fill:#FFEA63;}
	.st14{fill:#FFEACF;}
	.st15{fill:#FFD59A;}
	.st16{fill:#FFC34C;}
	.st17{fill:#A56021;}
	.st18{fill:#FFDF74;}
	.st19{fill:#BF6C0D;}
	.st20{fill:#FFB74B;}
	.st21{fill:#8C4C17;}
	.st22{fill:#FCF9DE;}
	.st23{fill:#DB9C2E;}
	.st24{fill:#FFF9DC;}
	.st25{fill:none;}
</style>
<g>
	<g>
		<path class="st5" d="M117.635,246.101L117.635,246.101c-6.812,0-12.333-5.522-12.333-12.333v-76.667
			c0-6.812,5.522-12.333,12.333-12.333h0c6.812,0,12.333,5.522,12.333,12.333v76.667
			C129.968,240.579,124.447,246.101,117.635,246.101z"/>
	</g>
	<g>
		<path class="st5" d="M100.82,111.238c0,0,9.868,10.722,8.153,29.031c-0.087,0.928-0.863,1.638-1.795,1.643
			c-18.39,0.091-28.198-10.685-28.198-10.685l0.03-0.032c-0.262-0.247-0.519-0.502-0.766-0.772
			c-5.52-6.031-5.105-15.394,0.925-20.914c6.031-5.52,15.394-5.105,20.914,0.925c0.247,0.27,0.478,0.549,0.701,0.832L100.82,111.238
			z"/>
	</g>
	<g>
		<path class="st5" d="M152.09,124.846c0,0-7.554,12.461-25.618,15.906c-0.915,0.175-1.813-0.373-2.077-1.267
			c-5.202-17.639,2.421-30.057,2.421-30.057l0.039,0.02c0.165-0.32,0.338-0.638,0.529-0.951c4.258-6.979,13.367-9.186,20.346-4.928
			c6.979,4.258,9.186,13.367,4.928,20.346c-0.191,0.312-0.394,0.612-0.604,0.905L152.09,124.846z"/>
	</g>
	<g>
		<path class="st5" d="M157.545,154.832c0,0-9.847,1.76-19.816-5.984c-0.505-0.392-0.63-1.103-0.289-1.645
			c6.728-10.681,16.584-12.387,16.584-12.387l0.007,0.029c0.24-0.06,0.482-0.115,0.73-0.159c5.527-0.972,10.796,2.72,11.768,8.247
			c0.972,5.527-2.72,10.796-8.248,11.768c-0.247,0.044-0.494,0.074-0.74,0.1L157.545,154.832z"/>
	</g>
	<g>
		<path class="st22" d="M121.737,186.23c-3.313,0-6-2.687-6-6v-20c0-3.313,2.687-6,6-6s6,2.687,6,6v20
			C127.737,183.544,125.051,186.23,121.737,186.23z"/>
	</g>
	<g>
		<path class="st19" d="M256.776,53.417c0.555,44.298,16.943,73.486,23.301,83.172c-14.153,4.796-24.185,12.133-24.185,12.133
			c-19.396,12.748-35.288,35.645-43.546,49.137c-3.106,5.075,0.974,11.07,7.454,11.002c60.11-0.631,94.791-23.601,94.791-23.601
			s0.002-0.146-0.001-0.407c19.624-12.375,30.856-28.563,27.819-40.38c0.484-6.223-0.385-13.38-2.599-20.91
			c-0.017-0.149-0.028-0.293-0.049-0.448c-2.733-20.066-17.256-36.677-17.256-36.677c-13.934-17.746-38.959-32.286-53.705-39.842
			C263.254,43.755,256.701,47.488,256.776,53.417z"/>
	</g>
	<g>
		<path class="st19" d="M320.764,129.928L320.764,129.928v47.499h10.798c17.093,0,30.95,12.15,30.95,27.138v0.007
			c0,14.988-13.857,27.138-30.95,27.138H73.212c-31.24,0.003-56.565,21.785-56.565,48.656v26.898
			c0,30.98,14.671,59.011,38.36,79.241c0.002,0.002,63.108,60.638,229.783,66.47l0.124-0.393c4.5,0.253,9.039,0.393,13.617,0.393
			c108.701,0,196.821-72.548,196.821-162.041C495.353,207.63,418.996,139.021,320.764,129.928z"/>
	</g>
	<g>
		<ellipse cx="196.352" cy="266.014" rx="10.748" ry="9.833"/>
	</g>
	<g>
		<path class="st2" d="M350.937,446.249c0-70.6-62.554-127.833-139.718-127.833H17.291c3.059,26.523,16.906,50.317,37.716,68.088
			c0.002,0.002,63.109,60.638,229.783,66.47l0.124-0.393c4.501,0.253,9.039,0.393,13.618,0.393c18.148,0,35.718-2.032,52.405-5.818
			V446.249z"/>
	</g>
	<g>
		<g>
			<path class="st17" d="M352.27,423.474c-4.579,0-9.117-0.14-13.618-0.393l-0.124,0.393
				c-166.674-5.832-229.781-66.468-229.783-66.47c-23.689-20.23-38.36-48.26-38.36-79.241v-26.898
				c0-6.803,1.628-13.276,4.559-19.156h-1.732c-31.24,0.003-56.565,21.785-56.565,48.656v26.898c0,30.98,14.671,59.011,38.36,79.241
				c0.002,0.002,63.109,60.638,229.783,66.47l0.124-0.393c4.501,0.253,9.039,0.393,13.618,0.393
				c51.987,0,99.258-16.602,134.442-43.708C408.347,418.393,381.029,423.474,352.27,423.474z"/>
		</g>
	</g>
	<g>
		<g>
			<path class="st3" d="M17.532,320.287c-0.084-0.623-0.168-1.245-0.24-1.871h0.018c-0.048-0.413-0.104-0.823-0.147-1.238
				C17.269,318.219,17.392,319.255,17.532,320.287z"/>
		</g>
		<g>
			<path class="st3" d="M16.647,307.264c0,1.058,0.021,2.113,0.055,3.164C16.667,309.377,16.647,308.322,16.647,307.264z"/>
		</g>
		<g>
			<path class="st3" d="M325.711,451.43c4.157-0.473,8.273-1.053,12.344-1.736C333.984,450.377,329.869,450.957,325.711,451.43z"/>
		</g>
		<g>
			<path class="st3" d="M16.865,313.676c-0.058-0.874-0.101-1.751-0.135-2.63C16.764,311.925,16.808,312.802,16.865,313.676z"/>
		</g>
		<g>
			<path class="st3" d="M325.711,451.43c4.157-0.474,8.274-1.052,12.344-1.736c0.164-0.028,0.327-0.056,0.49-0.084
				c2.191-0.373,4.368-0.778,6.532-1.21c0.523-0.104,1.039-0.223,1.56-0.331c1.439-0.298,2.873-0.605,4.299-0.928v-0.892
				c0-7.792-0.765-15.42-2.224-22.827c1.185,0.018-5.56-0.087-10.061-0.34l-0.124,0.393
				c-166.674-5.832-229.781-66.468-229.783-66.47c-12.726-10.868-22.844-23.99-29.489-38.608c0.003,0.007,0.006,0.013,0.009,0.02
				H17.31c0.072,0.625,0.138,1.252,0.223,1.874c1.64,12.135,5.54,23.674,11.332,34.302c-0.428-0.786-0.846-1.577-1.253-2.372
				c0.817,1.595,1.676,3.171,2.576,4.726c-0.449-0.775-0.887-1.556-1.316-2.342c6.507,11.936,15.389,22.723,26.136,31.9
				c0.002,0.002,63.109,60.638,229.783,66.47l0.124-0.393c4.501,0.253,9.039,0.393,13.618,0.393
				C307.755,452.974,316.826,452.441,325.711,451.43z"/>
		</g>
		<g>
			<path class="st3" d="M17.143,316.987c-0.096-0.95-0.175-1.904-0.244-2.86C16.967,315.084,17.048,316.037,17.143,316.987z"/>
		</g>
	</g>
	<g>
		<path class="st19" d="M411.326,380.775c-0.999-0.848-2.332-1.741-4.039-2.682l0,0c-3.113-2.005-6.349-3.958-9.714-5.843
			c-25.803-16.679-52.158-42.381-62.65-53.039l0,0c-2.619-2.708-7.247-2.98-10.337-0.608l-24.029,18.448
			c-26.441,20.299-28.494,55.939-4.483,77.808l27.039,24.626c4.689,2.89,9.638,5.664,14.852,8.267
			c47.353,23.648,97.258,24.948,111.466,2.906C461.266,432.297,444.587,403.539,411.326,380.775z"/>
	</g>
	<g>
		<path class="st17" d="M365.615,436.449c-5.214-2.603-10.162-5.377-14.852-8.267l-27.039-24.626
			c-24.011-21.868-21.958-57.509,4.483-77.808l7.492-5.752c-0.264-0.267-0.529-0.534-0.775-0.785
			c-2.619-2.708-7.247-2.98-10.337-0.608l-24.029,18.448c-26.44,20.299-28.494,55.939-4.483,77.808l27.039,24.626
			c4.69,2.89,9.638,5.664,14.852,8.267c44.369,22.157,90.976,24.695,108.362,6.794C424.235,456.949,394.459,450.853,365.615,436.449
			z"/>
	</g>
	<g>
		<g>
			<path class="st17" d="M342.101,134.369c-2.8,10.116-12.796,21.538-27.51,30.817c0.002,0.261,0.001,0.407,0.001,0.407
				s-34.68,22.97-94.791,23.601c-0.62,0.006-1.21-0.058-1.782-0.157c-2.159,3.2-4.063,6.19-5.672,8.821
				c-3.106,5.075,0.973,11.07,7.454,11.002c60.111-0.631,94.791-23.601,94.791-23.601s0.002-0.146-0.001-0.407
				c19.624-12.375,30.856-28.563,27.819-40.379C342.654,141.321,342.549,137.928,342.101,134.369z"/>
		</g>
	</g>
	<g>
		<circle class="st3" cx="130.41" cy="342.372" r="17.904"/>
	</g>
	<g>
		<circle class="st17" cx="410.88" cy="422.556" r="17.904"/>
	</g>
	<g>
		<circle class="st3" cx="179.382" cy="369.309" r="17.904"/>
	</g>
	<g>
		<path class="st3" d="M468.797,341.854c-0.849,0-1.71-0.181-2.529-0.563c-3.004-1.398-4.305-4.968-2.905-7.972
			c10.582-22.721,13.021-45.927,7.247-68.975c-4.346-17.346-11.975-28.121-12.051-28.228c-1.928-2.688-1.318-6.436,1.365-8.369
			c2.685-1.935,6.423-1.336,8.363,1.344c1.412,1.951,34.272,48.492,5.952,109.294C473.223,340.57,471.058,341.854,468.797,341.854z"
			/>
	</g>
	<g>
		<path class="st3" d="M326.602,132.438c-2.444,0-4.739-1.504-5.632-3.931c-11.615-31.585-30.403-43.707-30.592-43.826
			c-2.794-1.761-3.652-5.456-1.904-8.259s5.419-3.674,8.23-1.938c0.907,0.56,22.381,14.132,35.527,49.88
			c1.145,3.11-0.45,6.559-3.56,7.702C327.988,132.319,327.289,132.438,326.602,132.438z"/>
	</g>
</g>
</svg>
